<svg xmlns="http://www.w3.org/2000/svg" viewBox="0 0 48 48">
<path d="M36.5,6h-22C11.468,6,9,8.468,9,11.5V12H7.5C6.672,12,6,12.672,6,13.5S6.672,15,7.5,15H9h4c0.553,0,1,0.447,1,1 s-0.447,1-1,1H9v2H7.5C6.672,19,6,19.672,6,20.5S6.672,22,7.5,22H9h4c0.553,0,1,0.447,1,1s-0.447,1-1,1H9v2H7.5 C6.672,26,6,26.672,6,27.5S6.672,29,7.5,29H9h4c0.553,0,1,0.447,1,1s-0.447,1-1,1H9v2H7.5C6.672,33,6,33.672,6,34.5S6.672,36,7.5,36 H9h4c0.553,0,1,0.447,1,1s-0.447,1-1,1H9.025c0.254,2.799,2.611,5,5.475,5h22c3.032,0,5.5-2.468,5.5-5.5v-26 C42,8.468,39.532,6,36.5,6z M31.5,26H27v4.5c0,0.828-0.672,1.5-1.5,1.5S24,31.328,24,30.5V26h-4.5c-0.828,0-1.5-0.672-1.5-1.5 s0.672-1.5,1.5-1.5H24v-4.5c0-0.828,0.672-1.5,1.5-1.5s1.5,0.672,1.5,1.5V23h4.5c0.828,0,1.5,0.672,1.5,1.5S32.328,26,31.5,26z"> </path>
</svg>