<svg xmlns="http://www.w3.org/2000/svg" viewBox="0 0 48 48">
  <path d="M12.5 6C8.916 6 6 8.916 6 12.5L6 14L42 14L42 12.5C42 8.916 39.084 6 35.5 6L12.5 6zM6 17L6 35.5C6 39.084 8.916 42 12.5 42L24.056641 42C22.760641 39.978 22 37.58 22 35C22 31.902 23.088484 29.060172 24.896484 26.826172C24.617484 26.934172 24.317 27 24 27C22.619 27 21.5 25.881 21.5 24.5C21.5 23.119 22.619 22 24 22C25.381 22 26.5 23.119 26.5 24.5C26.5 24.786 26.441516 25.055547 26.353516 25.310547C28.651516 23.257547 31.676 22 35 22C37.58 22 39.978 22.760641 42 24.056641L42 17L6 17zM15.5 22C16.881 22 18 23.119 18 24.5C18 25.881 16.881 27 15.5 27C14.119 27 13 25.881 13 24.5C13 23.119 14.119 22 15.5 22zM35.09375 24.029297C29.01875 24.029297 24.09375 28.954297 24.09375 35.029297C24.09375 41.104297 29.01875 46.029297 35.09375 46.029297C41.16875 46.029297 46.09375 41.104297 46.09375 35.029297C46.09375 28.954297 41.16975 24.029297 35.09375 24.029297zM35.09375 27.029297C35.64575 27.029297 36.09375 27.477297 36.09375 28.029297L36.09375 34.029297L42.09375 34.029297C42.64575 34.029297 43.09375 34.477297 43.09375 35.029297C43.09375 35.581297 42.64575 36.029297 42.09375 36.029297L36.09375 36.029297L36.09375 42.029297C36.09375 42.581297 35.64575 43.029297 35.09375 43.029297C34.54175 43.029297 34.09375 42.581297 34.09375 42.029297L34.09375 36.029297L28.09375 36.029297C27.54175 36.029297 27.09375 35.581297 27.09375 35.029297C27.09375 34.477297 27.54175 34.029297 28.09375 34.029297L34.09375 34.029297L34.09375 28.029297C34.09375 27.477297 34.54175 27.029297 35.09375 27.029297z M15.5 31C16.881 31 18 32.119 18 33.5C18 34.881 16.881 36 15.5 36C14.119 36 13 34.881 13 33.5C13 32.119 14.119 31 15.5 31z"/>
</svg>
