<svg xmlns="http://www.w3.org/2000/svg" viewBox="0 0 48 48">
  <path d="M7.5 5C5.019 5 3 7.019 3 9.5L3 10.5C3 11.879 4.121 13 5.5 13L9 13L26.5 13C27.879 13 29 11.879 29 10.5L29 8C29 6.87 29.390391 5.838 30.025391 5L7.5 5zM33.986328 5.0019531C32.338328 5.0099531 31 6.35 31 8L31 10.5C31 12.981 28.981 15 26.5 15L9 15L9 36.5C9 40.084 11.916 43 15.5 43L24.767578 43C23.232578 41.04 22.250781 38.631 22.050781 36L16.5 36C15.672 36 15 35.328 15 34.5C15 33.672 15.672 33 16.5 33L22.169922 33C22.389922 31.578 22.832609 30.231 23.474609 29L16.5 29C15.672 29 15 28.328 15 27.5C15 26.672 15.672 26 16.5 26L25.632812 26C27.997812 23.539 31.317 22 35 22C35.682 22 36.346 22.068922 37 22.169922C37 22.169922 36.999047 8.5104688 36.998047 7.9804688C36.987047 6.3404688 35.654672 5.0099531 34.013672 5.0019531L33.986328 5.0019531zM16.5 19L29.5 19C30.328 19 31 19.672 31 20.5C31 21.328 30.328 22 29.5 22L16.5 22C15.672 22 15 21.328 15 20.5C15 19.672 15.672 19 16.5 19zM35 24C28.925 24 24 28.925 24 35C24 41.075 28.925 46 35 46C41.075 46 46 41.075 46 35C46 28.925 41.075 24 35 24zM35 27C35.552 27 36 27.448 36 28L36 34L42 34C42.552 34 43 34.448 43 35C43 35.552 42.552 36 42 36L36 36L36 42C36 42.552 35.552 43 35 43C34.448 43 34 42.552 34 42L34 36L28 36C27.448 36 27 35.552 27 35C27 34.448 27.448 34 28 34L34 34L34 28C34 27.448 34.448 27 35 27z"/>
</svg>
