<svg xmlns="http://www.w3.org/2000/svg" viewBox="0 0 48 48">
  <path d="M13 8C6.9483321 8 2 12.948332 2 19C2 25.051668 6.9483321 30 13 30L17 30A2.0002 2.0002 0 1 0 17 26L13 26C9.1096679 26 6 22.890332 6 19C6 15.109668 9.1096679 12 13 12L17 12A2.0002 2.0002 0 1 0 17 8L13 8zM29 8C27.9 8 27 8.9 27 10C27 11.1 27.9 12 29 12L33 12C36.86 12 40 15.14 40 19C40 20.33 39.630469 21.570859 38.980469 22.630859C40.270469 23.040859 41.480547 23.649687 42.560547 24.429688C43.480547 22.829688 44 20.98 44 19C44 12.93 39.07 8 33 8L29 8zM12 17A2.0002 2.0002 0 1 0 12 21L34 21A2.0002 2.0002 0 1 0 34 17L12 17zM35 24C28.925 24 24 28.925 24 35C24 41.075 28.925 46 35 46C41.075 46 46 41.075 46 35C46 28.925 41.075 24 35 24zM35 27C35.552 27 36 27.448 36 28L36 34L42 34C42.552 34 43 34.448 43 35C43 35.552 42.552 36 42 36L36 36L36 42C36 42.552 35.552 43 35 43C34.448 43 34 42.552 34 42L34 36L28 36C27.448 36 27 35.552 27 35C27 34.448 27.448 34 28 34L34 34L34 28C34 27.448 34.448 27 35 27z"/>
</svg>
