<svg xmlns="http://www.w3.org/2000/svg" viewBox="0 0 48 48">
  <path d="M12.5 4C10.019 4 8 6.019 8 8.5L8 37.351562C8.456 37.133563 8.961 37 9.5 37L15.232422 37C15.085422 36.356 15 35.688 15 35C15 30.037 19.038 26 24 26C28.582 26 32.366875 29.444906 32.921875 33.878906L33 33.929688L33 34.056641C33.01 34.046641 33.016391 34.035391 33.025391 34.025391C34.347391 32.703391 36.652609 32.703391 37.974609 34.025391L40 36.050781L40 20L28.5 20C26.019 20 24 17.981 24 15.5L24 4L12.5 4zM27 4.8789062L27 15.5C27 16.327 27.673 17 28.5 17L39.121094 17L27 4.8789062zM24 28C20.151598 28 17 31.151598 17 35C17 38.790398 20.058964 41.897212 23.828125 41.990234A1.50015 1.50015 0 0 0 24 42L35.878906 42L34.439453 43.439453A1.50015 1.50015 0 1 0 36.560547 45.560547L40.560547 41.560547A1.50015 1.50015 0 0 0 40.560547 39.439453L36.560547 35.439453A1.50015 1.50015 0 0 0 35.484375 34.984375A1.50015 1.50015 0 0 0 34.439453 37.560547L35.878906 39L24 39C21.772402 39 20 37.227598 20 35C20 32.772402 21.772402 31 24 31C26.227598 31 28 32.772402 28 35C28 35.732 27.787359 36.409 27.443359 37L30.705078 37C30.895078 36.366 31 35.695 31 35C31 31.151598 27.848402 28 24 28zM9.5 39C8.671 39 8 39.672 8 40.5C8 41.328 8.671 42 9.5 42L18.355469 42C17.351469 41.189 16.530219 40.165 15.949219 39L9.5 39z"/>
</svg>
