<svg xmlns="http://www.w3.org/2000/svg" viewBox="0 0 48 48">
  <path d="M21.460938 5.03125 A 2.0002 2.0002 0 0 0 20.085938 5.6367188 L 16.136719 9.5859375 A 2.0002 2.0002 0 0 0 16.212891 12.488281 L 20.164062 16.037109 A 2.0002 2.0002 0 1 0 22.835938 13.0625 L 22.78125 13.013672 C 29.023879 13.163268 34 18.219819 34 24.5 C 34 30.87517 28.87517 36 22.5 36 L 5 36 A 2.0002 2.0002 0 1 0 5 40 L 22.5 40 L 38.171875 40 L 37.585938 40.585938 A 2.0002 2.0002 0 1 0 40.414062 43.414062 L 44.236328 39.591797 A 2.0002 2.0002 0 0 0 44.228516 36.400391 L 40.414062 32.585938 A 2.0002 2.0002 0 0 0 38.978516 31.980469 A 2.0002 2.0002 0 0 0 37.585938 35.414062 L 38.171875 36 L 32.847656 36 C 36.000608 33.159354 38 29.060706 38 24.5 C 38 15.96317 31.03683 9 22.5 9 L 22.378906 9 L 22.914062 8.4648438 A 2.0002 2.0002 0 0 0 21.460938 5.03125 z M 11.960938 13.978516 A 2.0002 2.0002 0 0 0 10.457031 14.740234 C 8.2964417 17.403394 7 20.812064 7 24.5 A 2.0002 2.0002 0 0 0 7.0097656 24.707031 C 7.0566955 28.207056 8.272191 31.424198 10.279297 34 L 16.029297 34 C 12.996297 31.927 11 28.443 11 24.5 C 11 21.745936 11.959043 19.238606 13.564453 17.259766 A 2.0002 2.0002 0 0 0 11.960938 13.978516 z" />
</svg>
