<svg xmlns="http://www.w3.org/2000/svg"  viewBox="0 0 48 48" width="48px" height="48px"><path d="M 23.976562 3.9785156 A 1.50015 1.50015 0 0 0 22.5 5.5 L 22.5 7 L 15.5 7 C 13.019 7 11 9.019 11 11.5 L 11 20.5 C 11 22.981 13.019 25 15.5 25 L 32.5 25 C 34.981 25 37 22.981 37 20.5 L 37 11.5 C 37 9.019 34.981 7 32.5 7 L 25.5 7 L 25.5 5.5 A 1.50015 1.50015 0 0 0 23.976562 3.9785156 z M 19.5 13 C 20.881 13 22 14.119 22 15.5 C 22 16.881 20.881 18 19.5 18 C 18.119 18 17 16.881 17 15.5 C 17 14.119 18.119 13 19.5 13 z M 28.5 13 C 29.881 13 31 14.119 31 15.5 C 31 16.881 29.881 18 28.5 18 C 27.119 18 26 16.881 26 15.5 C 26 14.119 27.119 13 28.5 13 z M 12.5 28 C 10.019 28 8 30.019 8 32.5 L 8 33.261719 C 8 35.616719 8.9795 37.87875 10.6875 39.46875 C 12.9065 41.53575 17.017 44 24 44 C 30.983 44 35.0945 41.53575 37.3125 39.46875 C 39.0215 37.87875 40 35.615719 40 33.261719 L 40 32.5 C 40 30.019 37.981 28 35.5 28 L 12.5 28 z"/></svg>