<svg xmlns="http://www.w3.org/2000/svg"  viewBox="0 0 48 48" width="48px" height="48px"><path d="M 11 6 C 7.686 6 5 8.6577031 5 11.970703 L 5 15.470703 L 5 36 C 5 39.290032 7.7099679 42 11 42 L 37 42 C 40.290032 42 43 39.290032 43 36 L 43 15.470703 L 43 11.970703 C 43 8.6577031 40.314 6 37 6 L 11 6 z M 10.5 9.9707031 C 11.328 9.9707031 12 10.642703 12 11.470703 C 12 12.298703 11.328 12.970703 10.5 12.970703 C 9.672 12.970703 9 12.298703 9 11.470703 C 9 10.642703 9.672 9.9707031 10.5 9.9707031 z M 15.5 9.9707031 C 16.328 9.9707031 17 10.642703 17 11.470703 C 17 12.298703 16.328 12.970703 15.5 12.970703 C 14.672 12.970703 14 12.298703 14 11.470703 C 14 10.642703 14.672 9.9707031 15.5 9.9707031 z M 21.5 9.9707031 L 37.5 9.9707031 C 38.328 9.9707031 39 10.642703 39 11.470703 C 39 12.298703 38.328 13 37.5 13 L 21.5 13 C 20.672 13 20 12.299703 20 11.470703 C 20 10.641703 20.672 9.9707031 21.5 9.9707031 z M 9 16.970703 L 39 16.970703 L 39 36 C 39 37.127968 38.127968 38 37 38 L 11 38 C 9.8720321 38 9 37.127968 9 36 L 9 16.970703 z M 34.535156 19.982422 A 1.50015 1.50015 0 0 0 33.207031 20.740234 L 30.185547 25.886719 L 27.441406 22.546875 A 1.50015 1.50015 0 0 0 25.064453 22.625 L 21.121094 28.121094 L 18.716797 25.488281 A 1.50015 1.50015 0 0 0 16.371094 25.652344 L 12.261719 31.652344 A 1.50062 1.50062 0 1 0 14.738281 33.347656 L 17.777344 28.908203 L 20.152344 31.511719 A 1.50015 1.50015 0 0 0 22.480469 31.375 L 26.363281 25.962891 L 29.232422 29.453125 A 1.50015 1.50015 0 0 0 31.685547 29.259766 L 35.792969 22.259766 A 1.50015 1.50015 0 0 0 34.535156 19.982422 z"/></svg>