<svg xmlns="http://www.w3.org/2000/svg" viewBox="0 0 48 48">
  <path d="M9.5 7C6.468 7 4 9.468 4 12.5L4 35.5C4 38.532 6.468 41 9.5 41L38.5 41C41.532 41 44 38.532 44 35.5L44 12.5C44 9.468 41.532 7 38.5 7L9.5 7zM16 18C16.513 18 16.973109 18.313016 17.162109 18.791016L20.912109 28.291016C21.165109 28.933016 20.850984 29.658109 20.208984 29.912109C20.057984 29.971109 19.903953 30 19.751953 30C19.252953 30 18.781891 29.699031 18.587891 29.207031L18.208984 28.248047L13.791016 28.248047L13.412109 29.207031C13.159109 29.849031 12.433062 30.166109 11.789062 29.912109C11.147063 29.659109 10.832937 28.932062 11.085938 28.289062L14.835938 18.789062C15.025937 18.312062 15.487 18 16 18zM24.25 18L27.5 18C29.981 18 32 20.019 32 22.5C32 24.981 29.981 27 27.5 27L25.5 27L25.5 28.75C25.5 29.44 24.94 30 24.25 30C23.56 30 23 29.44 23 28.75L23 19.25C23 18.56 23.56 18 24.25 18zM35.25 18C35.94 18 36.5 18.56 36.5 19.25L36.5 28.75C36.5 29.44 35.94 30 35.25 30C34.56 30 34 29.44 34 28.75L34 19.25C34 18.56 34.56 18 35.25 18zM25.5 20.5L25.5 24.5L27.5 24.5C28.603 24.5 29.5 23.603 29.5 22.5C29.5 21.397 28.603 20.5 27.5 20.5L25.5 20.5zM16 22.654297L14.777344 25.75L17.222656 25.75L16 22.654297z"/>
</svg>
