<svg xmlns="http://www.w3.org/2000/svg" viewBox="0 0 48 48">
<path d="M18.5 9h-9C7.57 9 6 10.57 6 12.5v9C6 23.43 7.57 25 9.5 25h9c1.93 0 3.5-1.57 3.5-3.5v-9C22 10.57 20.43 9 18.5 9zM18.5 27h-9C7.57 27 6 28.57 6 30.5v9C6 41.43 7.57 43 9.5 43h9c1.93 0 3.5-1.57 3.5-3.5v-9C22 28.57 20.43 27 18.5 27zM36.5 27h-9c-1.93 0-3.5 1.57-3.5 3.5v9c0 1.93 1.57 3.5 3.5 3.5h9c1.93 0 3.5-1.57 3.5-3.5v-9C40 28.57 38.43 27 36.5 27zM42.839 12.525l-6.364-6.364c-1.365-1.365-3.584-1.365-4.949 0l-6.364 6.364c-1.364 1.364-1.364 3.585 0 4.949l6.365 6.365c.682.681 1.577 1.021 2.474 1.021.896 0 1.792-.341 2.475-1.022l6.364-6.364C44.203 16.11 44.203 13.89 42.839 12.525z"></path>
</svg>