<svg xmlns="http://www.w3.org/2000/svg" viewBox="0 0 48 48">
  <path d="M12.5 3C11.672 3 11 3.672 11 4.5C11 5.328 11.672 6 12.5 6L35.5 6C36.328 6 37 5.328 37 4.5C37 3.672 36.328 3 35.5 3L12.5 3zM12.5 8C10.019 8 8 10.019 8 12.5L8 27L15.5625 27C17.3375 27 18.831062 28.328797 19.039062 30.091797C19.334063 32.603797 21.468 34.5 24 34.5C26.532 34.5 28.665937 32.603797 28.960938 30.091797C29.168937 28.328797 30.6615 27 32.4375 27L40 27L40 12.5C40 10.019 37.981 8 35.5 8L12.5 8zM16.5 14L25.5 14C26.328 14 27 14.672 27 15.5C27 16.328 26.328 17 25.5 17L16.5 17C15.672 17 15 16.328 15 15.5C15 14.672 15.672 14 16.5 14zM31.5 14C32.328 14 33 14.672 33 15.5C33 16.328 32.328 17 31.5 17C30.672 17 30 16.328 30 15.5C30 14.672 30.672 14 31.5 14zM16.5 21L25.5 21C26.328 21 27 21.672 27 22.5C27 23.328 26.328 24 25.5 24L16.5 24C15.672 24 15 23.328 15 22.5C15 21.672 15.672 21 16.5 21zM31.5 21C32.328 21 33 21.672 33 22.5C33 23.328 32.328 24 31.5 24C30.672 24 30 23.328 30 22.5C30 21.672 30.672 21 31.5 21zM7.5 29C6.672 29 6 29.672 6 30.5L6 36.5C6 40.084 8.916 43 12.5 43L35.5 43C39.084 43 42 40.084 42 36.5L42 30.5C42 29.672 41.328 29 40.5 29L32.4375 29C31.6765 29 31.036266 29.568219 30.947266 30.324219C30.533266 33.845219 27.547 36.5 24 36.5C20.453 36.5 17.467688 33.845219 17.054688 30.324219C16.965687 29.568219 16.3235 29 15.5625 29L7.5 29z"/>
</svg>
