<?xml version="1.0" encoding="iso-8859-1"?>
<!-- Generator: Adobe Illustrator 25.2.0, SVG Export Plug-In . SVG Version: 6.00 Build 0)  -->
<svg version="1.1" id="Layer_1" xmlns="http://www.w3.org/2000/svg" xmlns:xlink="http://www.w3.org/1999/xlink" x="0px" y="0px"
	 viewBox="0 0 48 48" style="enable-background:new 0 0 48 48;" xml:space="preserve">
<path d="M18.136,23c-0.019,0-0.036,0-0.055,0c-0.012,0-0.023,0-0.035,0c-5.488-0.048-9.938-4.515-9.938-10s4.45-9.952,9.938-10
	c0.02-0.001,0.041,0,0.062,0c0.021,0.001,0.041,0,0.062,0c5.488,0.048,9.938,4.515,9.938,10s-4.45,9.952-9.938,10
	C18.159,23,18.147,23,18.136,23z"/>
<path d="M35,24c-6.075,0-11,4.925-11,11c0,6.075,4.925,11,11,11c6.075,0,11-4.925,11-11C46,28.925,41.075,24,35,24z M40,37h-6
	c-0.552,0-1-0.448-1-1v-7c0-0.552,0.448-1,1-1s1,0.448,1,1v6h5c0.552,0,1,0.448,1,1S40.552,37,40,37z"/>
<path d="M22,35c0-3.02,1.039-5.793,2.767-8H6.722C4.67,27,3,28.785,3,30.979V32.5c0,3.281,1.696,6.132,4.776,8.027
	C10.367,42.122,13.82,43,17.5,43c2.329,0,4.548-0.376,6.532-1.041C22.752,39.946,22,37.563,22,35z"/>
</svg>