<svg xmlns="http://www.w3.org/2000/svg" viewBox="0 0 48 48">
  <path d="M24 2.0214844C23.61875 2.0214844 23.237312 2.1665781 22.945312 2.4550781L20.484375 4.8886719L17.136719 4.0097656C16.339719 3.7987656 15.525594 4.2734063 15.308594 5.0664062L14.400391 8.4042969L11.0625 9.3144531C10.2685 9.5304531 9.7978594 10.346578 10.005859 11.142578L10.882812 14.490234L8.4492188 16.949219C7.8712187 17.533219 7.8712188 18.474594 8.4492188 19.058594L10.882812 21.519531L10.003906 24.867188C9.7949063 25.663187 10.266547 26.478313 11.060547 26.695312L14.398438 27.605469L15.308594 30.943359C15.525594 31.736359 16.339719 32.211047 17.136719 31.998047L20.484375 31.121094L22.945312 33.554688C23.237313 33.843688 23.620953 33.986328 24.001953 33.986328C24.382953 33.986328 24.764641 33.842688 25.056641 33.554688L27.517578 31.121094L30.863281 32C31.663281 32.212 32.474406 31.736359 32.691406 30.943359L33.599609 27.605469L36.9375 26.695312C37.7315 26.479312 38.202141 25.663188 37.994141 24.867188L37.117188 21.519531L39.550781 19.058594C40.128781 18.474594 40.128781 17.534219 39.550781 16.949219L37.117188 14.490234L37.996094 11.142578C38.205094 10.346578 37.733453 9.5314531 36.939453 9.3144531L33.601562 8.4042969L32.691406 5.0664062C32.474406 4.2734062 31.663281 3.7987656 30.863281 4.0097656L27.515625 4.8886719L25.054688 2.4550781C24.762687 2.1665781 24.38125 2.0214844 24 2.0214844z M19.886719 33.345703L15.726562 34.4375C15.478563 34.5025 15.231047 34.495453 14.998047 34.439453L14.998047 44.5C14.998047 45.053 15.302062 45.562266 15.789062 45.822266C16.276063 46.084266 16.870078 46.055047 17.330078 45.748047L23.720703 41.486328C23.890703 41.375328 24.107391 41.374328 24.275391 41.486328L30.667969 45.746094C30.919969 45.915094 31.209 46 31.5 46C31.743 46 31.985031 45.941266 32.207031 45.822266C32.694031 45.562266 33 45.053 33 44.5L33 34.439453C32.768 34.494453 32.519484 34.5025 32.271484 34.4375L28.111328 33.345703L25.054688 36.367188C24.762687 36.656188 24.379047 36.800781 23.998047 36.800781C23.617047 36.800781 23.235359 36.655187 22.943359 36.367188L19.886719 33.345703z"/>
</svg>
