<svg xmlns="http://www.w3.org/2000/svg" viewBox="0 0 48 48">
 <path d="M 24.496094 5 C 24.475094 5 24.4575 5.0048594 24.4375 5.0058594 C 24.3885 5.0078594 24.340969 5.0144844 24.292969 5.0214844 C 24.239969 5.0284844 24.187719 5.0358281 24.136719 5.0488281 C 24.095719 5.0588281 24.055625 5.0738906 24.015625 5.0878906 C 23.961625 5.1058906 23.910375 5.1244375 23.859375 5.1484375 C 23.824375 5.1654375 23.790812 5.184125 23.757812 5.203125 C 23.707812 5.232125 23.658328 5.2609219 23.611328 5.2949219 C 23.579328 5.3179219 23.551484 5.3431406 23.521484 5.3691406 C 23.479484 5.4051406 23.438391 5.443375 23.400391 5.484375 C 23.371391 5.515375 23.344359 5.5490313 23.318359 5.5820312 C 23.286359 5.6240312 23.254562 5.6659375 23.226562 5.7109375 C 23.202562 5.7489375 23.183109 5.787125 23.162109 5.828125 C 23.139109 5.874125 23.115656 5.9217031 23.097656 5.9707031 C 23.081656 6.0137031 23.068641 6.0585156 23.056641 6.1035156 C 23.042641 6.1555156 23.030484 6.2057656 23.021484 6.2597656 C 23.018484 6.2787656 23.010812 6.2954531 23.007812 6.3144531 C 23.003812 6.3454531 23.007859 6.37625 23.005859 6.40625 C 23.003859 6.43825 22.996094 6.4689531 22.996094 6.5019531 L 22.996094 18 L 17.117188 18 L 8.5585938 9.4394531 C 7.9725937 8.8534531 7.0235 8.8534531 6.4375 9.4394531 C 5.8515 10.024453 5.8515 10.975547 6.4375 11.560547 L 8.8320312 13.955078 C 8.8630313 13.979078 8.8997344 13.990531 8.9277344 14.019531 L 24.390625 29.484375 L 19.298828 34.576172 C 18.608167 34.21518 17.828116 34 16.996094 34 C 14.239094 34 11.996094 36.243 11.996094 39 C 11.996094 41.757 14.239094 44 16.996094 44 C 19.041094 44 20.798266 42.763 21.572266 41 L 28.421875 41 C 29.195875 42.763 30.951094 44 32.996094 44 C 35.753094 44 37.996094 41.757 37.996094 39 C 37.996094 36.28 35.811469 34.070719 33.105469 34.011719 C 33.085469 33.989719 33.079594 33.960453 33.058594 33.939453 L 29.117188 30 L 35.015625 30 C 37.761625 30 39.996094 27.765531 39.996094 25.019531 L 39.996094 19.5 C 39.997094 19.466 39.988328 19.433391 39.986328 19.400391 C 39.983328 19.362391 39.988422 19.325109 39.982422 19.287109 L 38.982422 12.287109 C 38.936422 11.966109 38.786641 11.669453 38.556641 11.439453 L 33.556641 6.4394531 C 33.321641 6.2034531 33.013594 6.0527188 32.683594 6.0117188 L 24.683594 5.0117188 C 24.652594 5.0077188 24.622797 5.0117656 24.591797 5.0097656 C 24.559797 5.0087656 24.529094 5 24.496094 5 z M 9.4960938 18 C 8.6680938 18 7.9960938 18.671 7.9960938 19.5 L 7.9960938 25.019531 C 7.9960938 27.765531 10.230563 30 12.976562 30 L 22.080078 30 L 10.080078 18 L 9.4960938 18 z M 26.511719 31.605469 L 27.037109 32.130859 C 27.065109 32.158859 27.076563 32.195563 27.101562 32.226562 L 29.945312 35.068359 C 29.020312 35.788359 28.340656 36.811 28.097656 38 L 21.896484 38 C 21.802203 37.537921 21.628413 37.107678 21.416016 36.701172 L 26.511719 31.605469 z M 16.996094 37 C 18.099094 37 18.996094 37.897 18.996094 39 C 18.996094 40.103 18.099094 41 16.996094 41 C 15.893094 41 14.996094 40.103 14.996094 39 C 14.996094 37.897 15.893094 37 16.996094 37 z M 32.996094 37 C 34.099094 37 34.996094 37.897 34.996094 39 C 34.996094 40.103 34.099094 41 32.996094 41 C 31.893094 41 30.996094 40.103 30.996094 39 C 30.996094 37.897 31.894094 37 32.996094 37 z"></path>
                                               
</svg>