<svg xmlns="http://www.w3.org/2000/svg" viewBox="0 0 48 48">
  <path d="M18 4.9980469 C 17.81 4.9980469 17.619453 5.034375 17.439453 5.109375 L 13.029297 6.8691406 L 9.109375 5.1308594 C 8.639375 4.9208594 8.1096875 4.9602344 7.6796875 5.2402344 C 7.2596875 5.5202344 7 5.99 7 6.5 L 7 37.5 C 7 40.53 9.47 43 12.5 43 L 25.119141 43 C 24.409141 41.66 24 40.13 24 38.5 C 24 37.63 24.129844 36.8 24.339844 36 L 13.5 36 C 12.67 36 12 35.33 12 34.5 C 12 33.67 12.67 33 13.5 33 L 25.769531 33 C 26.689531 31.72 27.910078 30.680469 29.330078 29.980469 C 28.580078 29.900469 28 29.27 28 28.5 C 28 27.67 28.67 27 29.5 27 L 32.5 27 C 33.11 27 33.639141 27.370391 33.869141 27.900391 C 35.139141 26.370391 36.94 25.320547 39 25.060547 L 39 6.5 C 39 5.99 38.740312 5.5202344 38.320312 5.2402344 C 37.890313 4.9702344 37.360625 4.9208594 36.890625 5.1308594 L 32.970703 6.8691406 L 28.560547 5.109375 C 28.200547 4.959375 27.799453 4.959375 27.439453 5.109375 L 23 6.8808594 L 18.560547 5.109375 C 18.380547 5.034375 18.19 4.9980469 18 4.9980469 z M 13.5 15 L 32.5 15 C 33.33 15 34 15.67 34 16.5 C 34 17.33 33.33 18 32.5 18 L 13.5 18 C 12.67 18 12 17.33 12 16.5 C 12 15.67 12.67 15 13.5 15 z M 13.5 27 L 23.5 27 C 24.33 27 25 27.67 25 28.5 C 25 29.33 24.33 30 23.5 30 L 13.5 30 C 12.67 30 12 29.33 12 28.5 C 12 27.67 12.67 27 13.5 27 z M 40 27 C 38.14 27 36.469141 27.849687 35.369141 29.179688 C 39.629141 30.039688 42.860234 33.729219 42.990234 38.199219 C 44.790234 37.159219 46 35.22 46 33 C 46 29.69 43.31 27 40 27 z M 33.5 31 A 7.5 7.5 0 0 0 33.5 46 A 7.5 7.5 0 0 0 33.5 31 z"/>
</svg>
