<svg xmlns="http://www.w3.org/2000/svg" viewBox="0 0 48 48">
  <path d="M24 4C20.704135 4 18 6.7041348 18 10L7.5 10A1.50015 1.50015 0 0 0 7.5 13L10 13L10 38.5C10 41.533 12.467 44 15.5 44L32.5 44C35.533 44 38 41.533 38 38.5L38 13L40.5 13A1.50015 1.50015 0 0 0 40.5 10L30 10C30 6.7041348 27.295865 4 24 4zM24 7C25.674135 7 27 8.3258652 27 10L21 10C21 8.3258652 22.325865 7 24 7zM19.5 18C20.328 18 21 18.672 21 19.5L21 34.5C21 35.328 20.328 36 19.5 36C18.672 36 18 35.328 18 34.5L18 19.5C18 18.672 18.672 18 19.5 18zM28.5 18C29.328 18 30 18.672 30 19.5L30 34.5C30 35.328 29.328 36 28.5 36C27.672 36 27 35.328 27 34.5L27 19.5C27 18.672 27.672 18 28.5 18z"/>
</svg>
