<svg xmlns="http://www.w3.org/2000/svg" viewBox="0 0 48 48">
  <path d="M8.5 5C7.672 5 7 5.671 7 6.5L7 8L5.5 8C4.672 8 4 8.672 4 9.5L4 40.5C4 41.328 4.672 42 5.5 42L23.890625 42C21.802625 39.892 20.308656 37.775641 19.597656 36.681641C19.482656 36.503641 19.385687 36.318906 19.304688 36.128906C18.878687 36.052906 18.445 36 18 36L10 36L10 8L18 8C20.481 8 22.5 10.019 22.5 12.5L22.5 31.005859C23.371 30.961859 24.258281 31.223641 24.988281 31.806641L25.5 32.242188L25.5 12.5C25.5 10.019 27.519 8 30 8L38 8L38 27.349609C38.456 27.131609 38.961 27 39.5 27C40.751 27 41.852703 27.660391 42.470703 28.650391C42.914703 28.333391 43.436 28.121062 44 28.039062L44 9.5C44 8.672 43.328 8 42.5 8L41 8L41 6.5C41 5.671 40.328 5 39.5 5L30 5C27.545 5 25.369 6.1915312 24 8.0195312C22.631 6.1915312 20.455 5 18 5L8.5 5z M14.5 12A1.50015 1.50015 0 1 0 14.5 15L18.5 15A1.50015 1.50015 0 1 0 18.5 12L14.5 12z M29.5 12A1.50015 1.50015 0 1 0 29.5 15L33.5 15A1.50015 1.50015 0 1 0 33.5 12L29.5 12z M14.5 17A1.50015 1.50015 0 1 0 14.5 20L18.5 20A1.50015 1.50015 0 1 0 18.5 17L14.5 17z M29.5 17A1.50015 1.50015 0 1 0 29.5 20L33.5 20A1.50015 1.50015 0 1 0 33.5 17L29.5 17z M14.5 22A1.50015 1.50015 0 1 0 14.5 25L18.5 25A1.50015 1.50015 0 1 0 18.5 22L14.5 22z M29.5 22C28.672 22 28 22.672 28 23.5L28 35.136719C28 35.611719 27.615625 35.996094 27.140625 35.996094C26.936625 35.996094 26.738031 35.924969 26.582031 35.792969L23.740234 33.369141C23.070234 32.833141 22.104047 32.886188 21.498047 33.492188C20.936047 34.051187 20.842438 34.92875 21.273438 35.59375C23.112437 38.42575 28.819 46 36 46C42 46 45.532031 42.417797 45.957031 37.841797C45.984031 37.729797 45.999 37.615 46 37.5L46 31.5C46 30.672 45.328 30 44.5 30C43.672 30 43 30.672 43 31.5L43 32C43 32.552 42.552 33 42 33C41.448 33 41 32.552 41 32L41 30.5C41 29.672 40.328 29 39.5 29C38.672 29 38 29.672 38 30.5L38 31C38 31.552 37.552 32 37 32C36.448 32 36 31.552 36 31L36 30.5C36 29.672 35.328 29 34.5 29C33.672 29 33 29.672 33 30.5L33 32C33 32.552 32.552 33 32 33C31.448 33 31 32.552 31 32L31 23.5C31 22.672 30.328 22 29.5 22z M14.5 27A1.50015 1.50015 0 1 0 14.5 30L18.5 30A1.50015 1.50015 0 1 0 18.5 27L14.5 27z"/>
</svg>
