<svg xmlns="http://www.w3.org/2000/svg" viewBox="0 0 48 48">
  <path d="M10.5 5C8.019 5 6 7.019 6 9.5L6 31.5C6 33.981 8.019 36 10.5 36L16 36L16 33L10.5 33C9.673 33 9 32.327 9 31.5L9 31L16 31L16 16.5C16 16.331 16.013391 16.166 16.025391 16L13.5 16C12.671 16 12 15.329 12 14.5C12 13.671 12.671 13 13.5 13L17.03125 13C18.18825 11.199 20.205 10 22.5 10L30 10L30 9.5C30 7.019 27.981 5 25.5 5L10.5 5z M22.5 12C20.019 12 18 14.019 18 16.5L18 38.5C18 40.981 20.019 43 22.5 43L40.5 43C41.329 43 42 42.329 42 41.5C42 40.671 41.329 40 40.5 40L22.5 40C21.673 40 21 39.327 21 38.5L21 38L40.5 38C41.329 38 42 37.329 42 36.5L42 16.5C42 14.019 39.981 12 37.5 12L22.5 12z M25.5 20L34.5 20C35.329 20 36 20.671 36 21.5C36 22.329 35.329 23 34.5 23L25.5 23C24.671 23 24 22.329 24 21.5C24 20.671 24.671 20 25.5 20z"/>
</svg>
