<svg xmlns="http://www.w3.org/2000/svg" viewBox="0 0 48 48">
  <path d="M24 2.9980469C23.6725 2.9980469 23.345312 3.1053125 23.070312 3.3203125L8.859375 14.519531C7.039375 15.949531 6 18.100156 6 20.410156L6 37.5C6 38.88 7.12 40 8.5 40L14 40L14 26.5C14 22.92 16.92 20 20.5 20L27.5 20C31.08 20 34 22.92 34 26.5L34 40L39.5 40C40.88 40 42 38.88 42 37.5L42 20.410156C42 18.100156 40.960625 15.949531 39.140625 14.519531L24.929688 3.3203125C24.654688 3.1053125 24.3275 2.9980469 24 2.9980469zM20.5 23C18.585045 23 17 24.585045 17 26.5L17 43.5A1.50015 1.50015 0 0 0 19.382812 44.712891L24 41.355469L28.617188 44.712891A1.50015 1.50015 0 0 0 31 43.5L31 26.5C31 24.585045 29.414955 23 27.5 23L20.5 23z"/>
</svg>
