<svg xmlns="http://www.w3.org/2000/svg" viewBox="0 0 48 48">
  <path d="M21.668 5.782c-.88-.565-1.948-.861-3.095-.764C15.948 5.239 14 7.573 14 10.208v.542.044c-5.487 1.715-8 5.997-8 9.456 0 1.262.287 2.528.79 3.666C8.55 22.088 10.943 21 13.3 21c3.838 0 6.176 2.353 6.274 2.453.579.593.566 1.542-.026 2.121-.594.578-1.542.566-2.121-.027C17.371 25.492 15.835 24 13.3 24c-1.632 0-3.393.861-4.596 2.248C7.85 27.232 7 28.75 7 31c0 3.735 3.719 6.724 7 6.932l0 0C13.964 40.725 16.216 43 19 43c1.325 0 2.521-.522 3.413-1.366C22.8 41.267 23 40.744 23 40.211V8.283C23 7.28 22.512 6.324 21.668 5.782zM19.5 36c-.829 0-1.5-.672-1.5-1.5 0-1.379-1.122-2.5-2.5-2.5-.829 0-1.5-.672-1.5-1.5s.671-1.5 1.5-1.5c3.033 0 5.5 2.468 5.5 5.5C21 35.328 20.329 36 19.5 36zM16.5 18c-.829 0-1.5-.672-1.5-1.5s.671-1.5 1.5-1.5c.827 0 1.5-.673 1.5-1.5 0-.828.671-1.5 1.5-1.5s1.5.672 1.5 1.5C21 15.981 18.981 18 16.5 18zM34.7 21c2.357 0 4.75 1.088 6.51 2.916C41.713 22.778 42 21.512 42 20.25c0-3.459-2.513-7.741-8-9.456V10.75v-.542c0-2.634-1.948-4.969-4.573-5.189-1.147-.096-2.214.199-3.095.764C25.488 6.324 25 7.28 25 8.283v31.929c0 .531.198 1.053.583 1.418 1.218 1.156 3.007 1.71 4.916 1.15C32.605 42.162 34 40.154 34 37.96v-.028c3.281-.208 7-3.197 7-6.932 0-2.25-.85-3.768-1.704-4.752C38.094 24.861 36.333 24 34.7 24c-2.536 0-4.071 1.492-4.126 1.547-.579.594-1.527.605-2.121.027-.593-.579-.605-1.528-.026-2.121C28.524 23.353 30.862 21 34.7 21zM32.5 29c.829 0 1.5.672 1.5 1.5S33.329 32 32.5 32c-1.378 0-2.5 1.121-2.5 2.5 0 .828-.671 1.5-1.5 1.5S27 35.328 27 34.5C27 31.468 29.467 29 32.5 29zM27 13.5c0-.828.671-1.5 1.5-1.5s1.5.672 1.5-1.5c0 .827.673 1.5 1.5 1.5.829 0 1.5.672 1.5 1.5 0 .828-.671 1.5-1.5 1.5C29.019 18 27 15.981 27 13.5zM41 5A2 2 0 1041 9 2 2 0 1041 5zM7 39A2 2 0 107 43 2 2 0 107 39zM41 39A2 2 0 1041 43 2 2 0 1041 39zM46 16A2 2 0 1046 20 2 2 0 1046 16zM46 28A2 2 0 1046 32 2 2 0 1046 28zM2 16A2 2 0 102 20 2 2 0 102 16zM2 28A2 2 0 102 32 2 2 0 102 28zM7 5A2 2 0 107 9 2 2 0 107 5z"/>
</svg>
