<svg xmlns="http://www.w3.org/2000/svg" viewBox="0 0 48 48">
  <path d="M46.93,6.063l-11.838-3.54c-3.257-0.972-6.768,0.08-8.949,2.683L25,6.568V4.789c0.882-0.386,1.5-1.264,1.5-2.289C26.5,1.119,25.381,0,24,0s-2.5,1.119-2.5,2.5c0,1.025,0.618,1.903,1.5,2.289v1.779l-1.143-1.363c-2.182-2.604-5.697-3.656-8.949-2.683L1.07,6.063C0.48,6.239,0.059,6.758,0.006,7.37c-0.054,0.613,0.273,1.196,0.823,1.472c0.328,0.164,6.372,3.124,14.741,3.124c2.32,0,4.825-0.247,7.43-0.825v7.864c-2.871-0.017-5.297,0.565-6.385,0.829c-0.638,0.155-1.331,0.015-1.858-0.373c-0.262-0.193-0.709-0.623-0.753-1.329c-0.035-0.562,0.156-1.095,0.538-1.501c0.11-0.117,0.233-0.214,0.363-0.3C15.546,16.739,16.466,17,17.5,17c1.933,0,3.5-0.896,3.5-2c0-1.007-1.306-1.832-3-1.971V13h-2c-1.375,0-2.703,0.574-3.645,1.577c-0.955,1.016-1.433,2.345-1.346,3.742c0.088,1.404,0.806,2.7,1.968,3.557c1.221,0.899,2.756,1.22,4.236,0.894C17.079,23.163,17,23.573,17,24c0,1.534,0.925,2.883,2.402,3.794C18.528,28.662,18,29.78,18,31c0,1.362,0.659,2.597,1.722,3.5C18.659,35.403,18,36.638,18,38c0,1.296,0.599,2.474,1.573,3.363C18.47,42.305,18,43.552,18,44.5c0,0.828,0.672,1.5,1.5,1.5s1.5-0.672,1.5-1.5c0-0.013,0.1-1.191,2-1.448V47c0,0.553,0.447,1,1,1s1-0.447,1-1v-3.888c1.611,0.295,2,1.129,2,1.388c0,0.828,0.672,1.5,1.5,1.5s1.5-0.672,1.5-1.5c0-0.965-0.478-2.177-1.611-3.102C29.385,40.505,30,39.313,30,38c0-1.362-0.659-2.597-1.722-3.5C29.341,33.597,30,32.362,30,31c0-1.22-0.528-2.338-1.402-3.206C30.075,26.883,31,25.534,31,24c0-0.511-0.104-1-0.295-1.461c0.437,0.086,0.778,0.164,0.973,0.211c1.506,0.364,3.094,0.048,4.345-0.874c1.162-0.856,1.88-2.152,1.968-3.557c0.087-1.397-0.391-2.727-1.346-3.742C35.703,13.574,34.375,13,33,13h-2v0.029c-1.694,0.14-3,0.964-3,1.971c0,1.104,1.567,2,3.5,2c1.034,0,1.954-0.261,2.595-0.669c0.13,0.086,0.253,0.183,0.363,0.3c0.382,0.406,0.573,0.939,0.538,1.501c-0.044,0.706-0.491,1.136-0.753,1.329c-0.526,0.389-1.222,0.529-1.858,0.373c-1.159-0.28-4.1-0.893-7.385-0.828v-7.865c2.605,0.578,5.11,0.825,7.43,0.825c8.368,0,14.413-2.96,14.741-3.124c0.55-0.275,0.877-0.858,0.823-1.472C47.941,6.758,47.52,6.239,46.93,6.063z M23,39.873c-1.15-0.282-2-1.022-2-1.873s0.85-1.59,2-1.873V39.873z M25,36.127c1.15,0.282,2,1.022,2,1.873s-0.85,1.59-2,1.873V36.127z M23,32.873c-1.15-0.282-2-1.022-2-1.873s0.85-1.59,2-1.873V32.873z M25,29.127c1.15,0.282,2,1.022,2,1.873s-0.85,1.59-2,1.873V29.127z M21.86,22.354c0.376-0.081,0.757-0.142,1.14-0.193v3.759c-1.746-0.257-3-1.138-3-1.92C20,23.402,20.736,22.746,21.86,22.354z M25,22.143c0.349,0.047,0.699,0.108,1.049,0.183C27.223,22.714,28,23.387,28,24c0,0.781-1.254,1.663-3,1.92V22.143z"/>
</svg>
