<?xml version="1.0" encoding="iso-8859-1"?>
<!-- Generator: Adobe Illustrator 22.1.0, SVG Export Plug-In . SVG Version: 6.00 Build 0)  -->
<svg version="1.1" id="Layer_1" xmlns="http://www.w3.org/2000/svg" xmlns:xlink="http://www.w3.org/1999/xlink" x="0px" y="0px"
	 viewBox="0 0 48 48" style="enable-background:new 0 0 48 48;" xml:space="preserve">
<path d="M42,14v-1.5C42,8.916,39.084,6,35.5,6h-23C8.916,6,6,8.916,6,12.5V14H42z"/>
<path d="M6,17v18.5c0,3.584,2.916,6.5,6.5,6.5h23c3.584,0,6.5-2.916,6.5-6.5V17H6z M15.5,36c-1.381,0-2.5-1.119-2.5-2.5
	c0-1.381,1.119-2.5,2.5-2.5s2.5,1.119,2.5,2.5C18,34.881,16.881,36,15.5,36z M15.5,27c-1.381,0-2.5-1.119-2.5-2.5
	c0-1.381,1.119-2.5,2.5-2.5s2.5,1.119,2.5,2.5C18,25.881,16.881,27,15.5,27z M24,36c-1.381,0-2.5-1.119-2.5-2.5
	c0-1.381,1.119-2.5,2.5-2.5s2.5,1.119,2.5,2.5C26.5,34.881,25.381,36,24,36z M24,27c-1.381,0-2.5-1.119-2.5-2.5
	c0-1.381,1.119-2.5,2.5-2.5s2.5,1.119,2.5,2.5C26.5,25.881,25.381,27,24,27z M32.5,27c-1.381,0-2.5-1.119-2.5-2.5
	c0-1.381,1.119-2.5,2.5-2.5s2.5,1.119,2.5,2.5C35,25.881,33.881,27,32.5,27z"/>
</svg>