<svg xmlns="http://www.w3.org/2000/svg" viewBox="0 0 48 48">
  <path d="M17.5 5 C 9.676 5 5 12.372 5 19.5 L 5 31.5 C 5 31.56 5.0105781 31.615828 5.0175781 31.673828 C 5.0145781 31.783828 5 31.89 5 32 C 5 38.271 10.589 43 18 43 L 26.923828 43 C 27.107828 42.813 27.109375 42.608984 27.109375 42.458984 C 27.109375 40.810984 25.769094 39.470703 24.121094 39.470703 C 23.568094 39.470703 23.121094 39.023703 23.121094 38.470703 L 23.121094 36.523438 C 23.120094 36.504438 23.109375 36.489703 23.109375 36.470703 C 23.109375 32.351703 19.759625 29 15.640625 29 L 15 29 C 14.447 29 14 28.553 14 28 C 14 27.447 14.447 27 15 27 L 15.640625 27 C 20.838625 27 25.066469 31.210438 25.105469 36.398438 C 25.107469 36.423437 25.119141 36.44375 25.119141 36.46875 L 25.119141 37.570312 C 27.392141 38.035313 29.109375 40.048984 29.109375 42.458984 C 29.109375 42.650984 29.095359 42.831 29.068359 43 L 40 43 C 41.659 43 42.5 42.159 42.5 40.5 C 42.5 38.592 41.438469 36.877391 39.730469 36.025391 C 38.781469 35.551391 34.398766 32.993703 33.634766 26.470703 C 33.426766 26.481703 33.217813 26.498047 33.007812 26.498047 C 32.754812 26.499047 32.498234 26.491609 32.240234 26.474609 C 26.808234 26.123609 22.451484 21.882 21.646484 16.5 L 21.5 16.5 C 15.92 16.5 10.988 19.121234 8 23.115234 L 8 19.5 C 8 13.847 11.554 8 17.5 8 C 18.328 8 19 7.328 19 6.5 C 19 5.672 18.328 5 17.5 5 z M 26.501953 5.4414062 C 26.066953 5.4414062 25.631141 5.5592031 25.244141 5.7832031 C 24.465141 6.2352031 24 7.0443125 24 7.9453125 L 24 14.708984 C 24 19.603984 27.690344 23.676469 32.402344 23.980469 C 34.917344 24.137469 37.333297 23.274406 39.154297 21.566406 C 40.963297 19.872406 42 17.479 42 15 L 42 7.9453125 C 42 7.0443125 41.534859 6.2352031 40.755859 5.7832031 C 39.990859 5.3382031 39.031766 5.3323906 38.259766 5.7753906 C 38.214766 5.8003906 38.172719 5.8340469 38.136719 5.8730469 L 35.279297 9 L 30.720703 9 L 27.861328 5.8710938 C 27.827328 5.8340938 27.785281 5.8023906 27.738281 5.7753906 C 27.358281 5.5573906 26.930953 5.4414063 26.501953 5.4414062 z M 29.5 13 C 30.328 13 31 13.672 31 14.5 C 31 15.328 30.328 16 29.5 16 C 28.672 16 28 15.328 28 14.5 C 28 13.672 28.672 13 29.5 13 z M 36.5 13 C 37.328 13 38 13.672 38 14.5 C 38 15.328 37.328 16 36.5 16 C 35.672 16 35 15.328 35 14.5 C 35 13.672 35.672 13 36.5 13 z"/>
</svg>
