<svg xmlns="http://www.w3.org/2000/svg" viewBox="0 0 48 48">
  <path d="M27.5 4C25.019 4 23 6.019 23 8.5L23 21.5C23 22.053 23.305969 22.561266 23.792969 22.822266C24.014969 22.940266 24.257 23 24.5 23C24.791 23 25.081031 22.916047 25.332031 22.748047L30.953125 19L38.5 19C40.981 19 43 16.981 43 14.5L43 8.5C43 6.019 40.981 4 38.5 4L27.5 4zM13.396484 4.0117188C12.897172 3.9728906 12.383406 4.0282031 11.878906 4.1894531L9.7265625 4.8789062C7.5915625 5.5609063 5.9557344 7.3885469 5.4277344 9.6855469C4.1727344 15.143547 5.6784063 21.788141 9.9414062 29.619141C14.201406 37.440141 18.869266 42.142562 23.947266 43.726562C26.098266 44.397562 28.424734 43.805875 30.052734 42.171875L31.6875 40.529297C33.2135 38.997297 33.435078 36.504266 32.205078 34.697266L29.740234 31.076172C28.682234 29.522172 26.803125 28.8625 25.078125 29.4375L21.332031 30.6875C20.832031 30.8545 20.271187 30.766734 19.867188 30.427734C18.342188 29.146734 17.048328 27.591625 15.986328 25.765625C14.922328 23.935625 14.235781 22.080219 13.925781 20.199219C13.844781 19.707219 14.032531 19.209234 14.394531 18.865234L17.607422 15.816406C18.969422 14.524406 19.383766 12.446687 18.634766 10.679688L16.916016 6.625C16.268016 5.0965 14.894422 4.1282031 13.396484 4.0117188z"/>
</svg>
