<svg xmlns="http://www.w3.org/2000/svg" viewBox="0 0 48 48">
  <path d="M15.5 5C13.2 5 11.179531 6.1997656 10.019531 8.0097656C10.179531 7.9997656 10.34 8 10.5 8L33.5 8C37.64 8 41 11.36 41 15.5L41 31.5C41 31.66 41.000234 31.820469 40.990234 31.980469C42.800234 30.820469 44 28.8 44 26.5L44 15.5C44 9.71 39.29 5 33.5 5L15.5 5zM10.5 10C6.9280619 10 4 12.928062 4 16.5L4 31.5C4 35.071938 6.9280619 38 10.5 38L11 38L11 42.535156C11 44.486408 13.392719 45.706869 14.970703 44.558594L23.988281 38L32.5 38C36.071938 38 39 35.071938 39 31.5L39 16.5C39 12.928062 36.071938 10 32.5 10L10.5 10z"/>
</svg>
