<svg xmlns="http://www.w3.org/2000/svg" viewBox="0 0 48 48">
  <path d="M17.960938 9.9804688 A 2.0002 2.0002 0 0 0 16.585938 10.585938 L 10 17.171875 L 7.4140625 14.585938 A 2.0002 2.0002 0 1 0 4.5859375 17.414062 L 8.5859375 21.414062 A 2.0002 2.0002 0 0 0 11.414062 21.414062 L 19.414062 13.414062 A 2.0002 2.0002 0 0 0 17.960938 9.9804688 z M 23 14 A 2.0002 2.0002 0 1 0 23 18 L 42 18 A 2.0002 2.0002 0 1 0 42 14 L 23 14 z M 15.982422 24.970703 A 2.0002 2.0002 0 0 0 14.585938 25.585938 L 11 29.171875 L 7.4140625 25.585938 A 2.0002 2.0002 0 0 0 5.9785156 24.980469 A 2.0002 2.0002 0 0 0 4.5859375 28.414062 L 8.171875 32 L 4.5859375 35.585938 A 2.0002 2.0002 0 1 0 7.4140625 38.414062 L 11 34.828125 L 14.585938 38.414062 A 2.0002 2.0002 0 1 0 17.414062 35.585938 L 13.828125 32 L 17.414062 28.414062 A 2.0002 2.0002 0 0 0 15.982422 24.970703 z M 23 30 A 2.0002 2.0002 0 1 0 23 34 L 42 34 A 2.0002 2.0002 0 1 0 42 30 L 23 30 z"/>
</svg>
