<svg xmlns="http://www.w3.org/2000/svg" viewBox="0 0 48 48">
  <path d="M9.5 4C7.57 4 6 5.57 6 7.5L6 17.5C6 19.43 7.57 21 9.5 21L13 21L13 20.5C13 17.467 15.467 15 18.5 15C20.36 15 22.004 15.929656 23 17.347656L23 7.5C23 5.57 21.43 4 19.5 4L9.5 4zM28.5 4C26.585045 4 25 5.5850452 25 7.5L25 17.5C25 19.414955 26.585045 21 28.5 21L38.5 21C40.414955 21 42 19.414955 42 17.5L42 7.5C42 5.5850452 40.414955 4 38.5 4L28.5 4zM28.5 7L38.5 7C38.795045 7 39 7.2049548 39 7.5L39 17.5C39 17.795045 38.795045 18 38.5 18L28.5 18C28.204955 18 28 17.795045 28 17.5L28 7.5C28 7.2049548 28.204955 7 28.5 7zM18.498047 8C18.881797 8 19.265594 8.1464531 19.558594 8.4394531C20.144594 9.0244531 20.144594 9.9755469 19.558594 10.560547L14.558594 15.560547C14.267594 15.853547 13.884 16 13.5 16C13.116 16 12.732453 15.853547 12.439453 15.560547L9.4394531 12.560547C8.8534531 11.975547 8.8534531 11.024453 9.4394531 10.439453C10.025453 9.8534531 10.974547 9.8534531 11.560547 10.439453L13.498047 12.378906L17.4375 8.4394531C17.7305 8.1464531 18.114297 8 18.498047 8zM18.501953 17C16.571953 17 15 18.57 15 20.5L15 29.806641C12 33.950641 12 35.253906 12 35.753906C12 37.829906 13.449547 40.368828 16.310547 43.298828C17.381547 44.396828 18.844469 45 20.355469 45C20.678469 45 21.003125 44.972016 21.328125 44.916016L27.296875 43.882812C29.412875 43.514812 31.213094 42.041062 31.996094 40.039062C32.921094 37.673063 33.512859 36.048078 33.755859 35.205078C34.227859 33.561078 34.011484 31.813203 33.146484 30.283203C32.216484 28.641203 30.622438 27.414922 28.773438 26.919922C28.732437 26.908922 25.982953 26.416234 22.001953 25.615234L22.001953 20.5C22.001953 18.57 20.431953 17 18.501953 17z"/>
</svg>
