<svg xmlns="http://www.w3.org/2000/svg" viewBox="0 0 48 48">
  <path d="M25.3,1.2c-0.4,0-0.8,0.1-1.1,0.3l-15,9C8.3,11,8,12.3,8.5,13.2c0.6,0.9,1.8,1.3,2.7,0.7l14-8.3l13,7.8v5.1l-1.6-1.6 c-0.4-0.4-0.9-0.6-1.4-0.6c-1.1,0-2,0.9-2,2c0,0.5,0.2,1.1,0.6,1.4l5,5c0.8,0.8,2,0.8,2.8,0l5-5c0.8-0.8,0.8-2,0.1-2.8 s-2-0.8-2.8-0.1c0,0,0,0-0.1,0.1l-1.6,1.6v-6.2c0-0.7-0.4-1.4-1-1.7l-15-9C26,1.3,25.7,1.2,25.3,1.2z M7.5,23.1 c-0.5,0-1,0.2-1.4,0.6l-5,5c-0.8,0.8-0.8,2-0.1,2.8c0.8,0.8,2,0.8,2.8,0.1c0,0,0,0,0.1-0.1l1.6-1.6v6.2c0,0.7,0.4,1.4,1,1.7l15,9 c0.6,0.4,1.4,0.4,2.1,0l15-9c0.9-0.6,1.3-1.8,0.7-2.7s-1.8-1.3-2.7-0.7l-14,8.3L9.5,35v-5.1l1.6,1.6c0.8,0.8,2,0.8,2.8,0.1 c0.8-0.8,0.8-2,0.1-2.8c0,0,0,0-0.1-0.1l-5-5C8.5,23.3,8,23.1,7.5,23.1z M17.8,16.3c-1,0-1.7,0.8-1.7,1.7s0.8,1.7,1.7,1.7 c1,0,1.7-0.8,1.7-1.7S18.7,16.3,17.8,16.3z M19.7,16.3c0.4,0.5,0.7,1.1,0.7,1.7s-0.3,1.3-0.7,1.7H24c0.8,0,1.5,0.7,1.5,1.5 s-0.7,1.5-1.5,1.5h-3.7V27h11.4c0.4,0,0.6-0.3,0.6-0.6s-0.3-0.6-0.6-0.6h-0.2v-8.8c0-0.4-0.3-0.6-0.6-0.6H19.7z M16.9,20.6 c-0.7,0-1.3,0.6-1.3,1.3V27h3.9v-5.2H24c0.4,0,0.6-0.3,0.7-0.6c0-0.4-0.3-0.6-0.6-0.7c0,0,0,0,0,0h-4.5h-2.2H16.9z M17.3,28.3 c-1,0-1.7,0.8-1.7,1.7s0.8,1.7,1.7,1.7c1,0,1.7-0.8,1.7-1.7S18.3,28.3,17.3,28.3z M21.6,28.3c-1,0-1.7,0.8-1.7,1.7s0.8,1.7,1.7,1.7 c1,0,1.7-0.8,1.7-1.7S22.6,28.3,21.6,28.3z M25.9,28.3c-1,0-1.7,0.8-1.7,1.7s0.8,1.7,1.7,1.7s1.7-0.8,1.7-1.7S26.9,28.3,25.9,28.3z M30.2,28.3c-1,0-1.7,0.8-1.7,1.7s0.8,1.7,1.7,1.7S32,31,32,30S31.2,28.3,30.2,28.3z"/>
</svg>
