<svg xmlns="http://www.w3.org/2000/svg" viewBox="0 0 48 48">
  <path d="M10 6A4 4 0 0 0 10 14A4 4 0 0 0 10 6zM14.5 6C15.452 7.062 16.037109 8.461 16.037109 10C16.037109 11.539 15.453 12.938 14.5 14L24.537109 14C26.470109 14 28.037109 15.567 28.037109 17.5C28.037109 19.433 26.470109 21 24.537109 21L16.037109 21L16.037109 31L42.537109 31C43.365109 31 44.037109 30.329 44.037109 29.5C44.037109 28.671 43.365109 28 42.537109 28L42.037109 28L42.037109 7.5C42.037109 6.672 41.365109 6 40.537109 6L14.5 6zM8 16C6.343 16 5 17.343 5 19L5 31L14 31L14 19L24.5 19A1.50015 1.50015 0 1 0 24.5 16L14 16L9 16L8 16zM9 34A4 4 0 0 0 9 42A4 4 0 0 0 9 34zM19 34A4 4 0 0 0 19 42A4 4 0 0 0 19 34zM29 34A4 4 0 0 0 29 42A4 4 0 0 0 29 34zM39 34A4 4 0 0 0 39 42A4 4 0 0 0 39 34z"/>
</svg>
