<svg xmlns="http://www.w3.org/2000/svg" viewBox="0 0 48 48">
  <path d="M16.5 5C12.916 5 10 7.916 10 11.5L10 41.5C10 42.063 10.315406 42.579938 10.816406 42.835938C11.317406 43.092937 11.918953 43.045797 12.376953 42.716797L22.039062 35.759766C22.024062 35.506766 22 35.257 22 35C22 27.832 27.832 22 35 22C36.034 22 37.035 22.134281 38 22.363281L38 11.5C38 7.916 35.084 5 31.5 5L16.5 5zM35 24C28.925 24 24 28.925 24 35C24 41.075 28.925 46 35 46C41.075 46 46 41.075 46 35C46 28.925 41.075 24 35 24zM28 34L42 34C42.552 34 43 34.448 43 35C43 35.552 42.552 36 42 36L28 36C27.448 36 27 35.552 27 35C27 34.448 27.448 34 28 34z"/>
</svg>
