<svg xmlns="http://www.w3.org/2000/svg" viewBox="0 0 48 48">
  <path d="M11.294922 2.71875 A 1.50015 1.50015 0 0 0 10.490234 2.9707031 C 7.476843 4.9108467 4.9108467 7.476843 2.9707031 10.490234 A 1.50015 1.50015 0 1 0 5.4921875 12.113281 C 7.200044 9.4606734 9.4606733 7.200044 12.113281 5.4921875 A 1.50015 1.50015 0 0 0 11.294922 2.71875 z M 24 4 C 12.972 4 4 12.972 4 24 C 4 35.028 12.972 44 24 44 C 35.028 44 44 35.028 44 24 C 44 12.972 35.028 4 24 4 z M 22.5 12 C 23.329 12 24 12.671 24 13.5 L 24 23.878906 L 28.560547 28.439453 C 29.145547 29.024453 29.145547 29.974547 28.560547 30.560547 C 28.267547 30.853547 27.884 31 27.5 31 C 27.116 31 26.732453 30.853547 26.439453 30.560547 L 21.439453 25.560547 C 21.158453 25.278547 21 24.898 21 24.5 L 21 13.5 C 21 12.671 21.671 12 22.5 12 z M 43.716797 35.181641 A 1.50015 1.50015 0 0 0 42.507812 35.886719 C 40.799957 38.539327 38.539327 40.799957 35.886719 42.507812 A 1.50015 1.50015 0 1 0 37.509766 45.029297 C 40.523157 43.089153 43.089153 40.523157 45.029297 37.509766 A 1.50015 1.50015 0 0 0 43.716797 35.181641 z"/>
</svg>
