<svg xmlns="http://www.w3.org/2000/svg" viewBox="0 0 48 48">
  <path d="M39,21h-0.58C37.67,13.71,31.49,8,24,8S10.33,13.71,9.58,21H9c-4.96,0-9,4.04-9,9c0,4.96,4.04,9,9,9h30c4.96,0,9-4.04,9-9 C48,25.04,43.96,21,39,21z M32.49,28c-1.27,3.59-4.68,6-8.49,6c-2.41,0-4.67-1-6.33-2.64l-0.11,1.25 c-0.07,0.78-0.72,1.37-1.49,1.37h-0.14c-0.82-0.08-1.43-0.8-1.36-1.63l0.44-4.98c0.07-0.83,0.79-1.44,1.62-1.36l4.98,0.43 c0.83,0.07,1.44,0.8,1.37,1.63c-0.08,0.82-0.8,1.43-1.63,1.36l-1.52-0.13c1.1,1.06,2.59,1.7,4.17,1.7c2.54,0,4.81-1.61,5.66-4 c0.28-0.78,1.13-1.19,1.91-0.91C32.35,26.36,32.76,27.22,32.49,28z M32.99,22.63C32.93,23.41,32.27,24,31.5,24 c-0.04,0-0.09,0-0.13-0.01l-4.98-0.43c-0.83-0.07-1.44-0.8-1.37-1.63c0.08-0.82,0.8-1.43,1.63-1.36l1.52,0.13 C27.07,19.64,25.58,19,24,19c-2.54,0-4.81,1.61-5.66,4c-0.22,0.62-0.8,1-1.41,1c-0.17,0-0.34-0.03-0.5-0.09 c-0.78-0.27-1.19-1.13-0.92-1.91c1.27-3.59,4.68-6,8.49-6c2.41,0,4.67,1,6.33,2.64l0.11-1.25c0.07-0.83,0.79-1.44,1.63-1.37 c0.82,0.08,1.43,0.8,1.36,1.63L32.99,22.63z"/>
</svg>
