<svg xmlns="http://www.w3.org/2000/svg" viewBox="0 0 48 48">
  <path d="M7.9785156 5.9804688 A2.0002 2.0002 0 0 0 6.5859375 9.4140625 L15.171875 18 L10 18 A2.0002 2.0002 0 1 0 10 22 L19.753906 22 A2.0002 2.0002 0 0 0 22 19.740234 L22 10 A2.0002 2.0002 0 1 0 18 10 L18 15.171875 L9.4140625 6.5859375 A2.0002 2.0002 0 0 0 7.9785156 5.9804688 z M39.960938 5.9804688 A2.0002 2.0002 0 0 0 38.585938 6.5859375 L30 15.171875 L30 10 A2.0002 2.0002 0 1 0 26 10 L26 19.753906 A2.0002 2.0002 0 0 0 28.259766 22 L38 22 A2.0002 2.0002 0 1 0 38 18 L32.828125 18 L41.414062 9.4140625 A2.0002 2.0002 0 0 0 39.960938 5.9804688 z M19.960938 25.980469 A2.0002 2.0002 0 0 0 19.740234 26 L10 26 A2.0002 2.0002 0 1 0 10 30 L15.171875 30 L6.5859375 38.585938 A2.0002 2.0002 0 1 0 9.4140625 41.414062 L18 32.828125 L18 38 A2.0002 2.0002 0 1 0 22 38 L22 28.246094 A2.0002 2.0002 0 0 0 19.960938 25.980469 z M27.978516 25.980469 A2.0002 2.0002 0 0 0 26 28.259766 L26 38 A2.0002 2.0002 0 1 0 30 38 L30 32.828125 L38.585938 41.414062 A2.0002 2.0002 0 1 0 41.414062 38.585938 L32.828125 30 L38 30 A2.0002 2.0002 0 1 0 38 26 L28.246094 26 A2.0002 2.0002 0 0 0 27.978516 25.980469 z"/>
</svg>
