<svg xmlns="http://www.w3.org/2000/svg" viewBox="0 0 48 48">
  <path d="M10.5 7C6.9280619 7 4 9.9280619 4 13.5L4 30.5C4 34.071938 6.9280619 37 10.5 37L12 37L12 42.5C12 44.46599 14.427297 45.67893 16 44.5L26 37L37.5 37C41.071938 37 44 34.071938 44 30.5L44 13.5C44 9.9280619 41.071938 7 37.5 7L10.5 7zM15.5 17L32.5 17C33.33 17 34 17.67 34 18.5C34 19.33 33.33 20 32.5 20L15.5 20C14.67 20 14 19.33 14 18.5C14 17.67 14.67 17 15.5 17zM15.5 24L28.5 24C29.33 24 30 24.67 30 25.5C30 26.33 29.33 27 28.5 27L15.5 27C14.67 27 14 26.33 14 25.5C14 24.67 14.67 24 15.5 24z"/>
</svg>
