<svg xmlns="http://www.w3.org/2000/svg" viewBox="0 0 48 48">
  <path d="M10.5 6C7.468 6 5 8.468 5 11.5L5 36C5 39.309 7.691 42 11 42L24.056641 42C23.280641 40.789 22.702328 39.441 22.361328 38L11 38C9.897 38 9 37.103 9 36L9 17L39 17L39 22.634766C40.466 23.108766 41.813 23.838578 43 24.767578L43 11.5C43 8.468 40.532 6 37.5 6L10.5 6zM10.5 10C11.328 10 12 10.672 12 11.5C12 12.328 11.328 13 10.5 13C9.672 13 9 12.328 9 11.5C9 10.672 9.672 10 10.5 10zM15.5 10C16.328 10 17 10.672 17 11.5C17 12.328 16.328 13 15.5 13C14.672 13 14 12.328 14 11.5C14 10.672 14.672 10 15.5 10zM21.5 10L37.5 10C38.328 10 39 10.672 39 11.5C39 12.328 38.328 13.029297 37.5 13.029297L21.5 13.029297C20.672 13.029297 20 12.329 20 11.5C20 10.671 20.672 10 21.5 10zM35 24C28.925 24 24 28.925 24 35C24 41.075 28.925 46 35 46C41.075 46 46 41.075 46 35C46 28.925 41.075 24 35 24zM35 27C35.552 27 36 27.448 36 28L36 34L42 34C42.552 34 43 34.448 43 35C43 35.552 42.552 36 42 36L36 36L36 42C36 42.552 35.552 43 35 43C34.448 43 34 42.552 34 42L34 36L28 36C27.448 36 27 35.552 27 35C27 34.448 27.448 34 28 34L34 34L34 28C34 27.448 34.448 27 35 27z"/>
</svg>
