<svg xmlns="http://www.w3.org/2000/svg" viewBox="0 0 48 48">
  <path d="M12 3 A 6 6 0 0 0 12 15 A 6 6 0 0 0 12 3 z M 26 3 A 6 6 0 0 0 26 15 A 6 6 0 0 0 26 3 z M 6.5 17 C 4.57 17 3 18.57 3 20.5 L 3 30 C 3 34.963 7.038 39 12 39 C 14.104 39 16.036313 38.268688 17.570312 37.054688 C 15.968313 35.142688 15 32.684 15 30 L 15 20.5 C 15 19.172 15.474719 17.952 16.261719 17 L 6.5 17 z M 20.5 17 C 18.57 17 17 18.57 17 20.5 L 17 30 C 17 33.694 19.237734 36.871813 22.427734 38.257812 C 22.157734 37.214813 22 36.127 22 35 C 22 27.82 27.82 22 35 22 L 35 20.5 C 35 18.57 33.43 17 31.5 17 L 20.5 17 z M 35 24 C 28.925 24 24 28.925 24 35 C 24 41.075 28.925 46 35 46 C 41.075 46 46 41.075 46 35 C 46 28.925 41.075 24 35 24 z M 35 27 C 35.552 27 36 27.448 36 28 L 36 34 L 42 34 C 42.552 34 43 34.448 43 35 C 43 35.552 42.552 36 42 36 L 36 36 L 36 42 C 36 42.552 35.552 43 35 43 C 34.448 43 34 42.552 34 42 L 34 36 L 28 36 C 27.448 36 27 35.552 27 35 C 27 34.448 27.448 34 28 34 L 34 34 L 34 28 C 34 27.448 34.448 27 35 27 z" />
</svg>
