<svg xmlns="http://www.w3.org/2000/svg" viewBox="0 0 48 48">
  <path d="M24 5C22.334 5 20.857781 5.871125 20.050781 7.328125L4.5683594 35.294922C3.7853594 36.709922 3.8098594 38.385344 4.6308594 39.777344C5.4518594 41.169344 6.9045312 42 8.5195312 42L39.482422 42C41.096422 42 42.549141 41.168344 43.369141 39.777344C44.189141 38.384344 44.213641 36.709922 43.431641 35.294922L27.949219 7.328125C27.142219 5.871125 25.666 5 24 5zM11.484375 5.9824219A1.50015 1.50015 0 0 0 10.251953 8.3320312L12.251953 11.332031A1.50015 1.50015 0 1 0 14.748047 9.6679688L12.748047 6.6679688A1.50015 1.50015 0 0 0 11.484375 5.9824219zM36.470703 5.9824219A1.50015 1.50015 0 0 0 35.251953 6.6679688L33.251953 9.6679688A1.50015 1.50015 0 1 0 35.748047 11.332031L37.748047 8.3320312A1.50015 1.50015 0 0 0 36.470703 5.9824219zM7.03125 11.990234A1.50015 1.50015 0 0 0 6.2558594 14.802734L9.7558594 16.802734A1.5002871 1.5002871 0 1 0 11.244141 14.197266L7.7441406 12.197266A1.50015 1.50015 0 0 0 7.03125 11.990234zM41.074219 11.990234A1.50015 1.50015 0 0 0 40.255859 12.197266L36.755859 14.197266A1.5002872 1.5002872 0 1 0 38.244141 16.802734L41.744141 14.802734A1.50015 1.50015 0 0 0 41.074219 11.990234zM24 16C24.829 16 25.5 16.671 25.5 17.5L25.5 27.5C25.5 28.329 24.829 29 24 29C23.171 29 22.5 28.329 22.5 27.5L22.5 17.5C22.5 16.671 23.171 16 24 16zM4.5 19A1.50015 1.50015 0 1 0 4.5 22L8.5 22A1.50015 1.50015 0 1 0 8.5 19L4.5 19zM39.5 19A1.50015 1.50015 0 1 0 39.5 22L43.5 22A1.50015 1.50015 0 1 0 43.5 19L39.5 19zM24 32C25.105 32 26 32.895 26 34C26 35.105 25.105 36 24 36C22.895 36 22 35.105 22 34C22 32.895 22.895 32 24 32z"/>
</svg>
