<svg xmlns="http://www.w3.org/2000/svg" viewBox="0 0 48 48">
  <path d="M12 6C8.686 6 6 8.686 6 12L6 16L16 16L16 6L12 6zM19 6L19 16L29 16L29 6L19 6zM32 6L32 16L42 16L42 12C42 8.686 39.314 6 36 6L32 6zM30.476562 18.978516A1.50015 1.50015 0 0 0 30.259766 19L20.5 19A1.50015 1.50015 0 0 0 19 20.5L19 30.253906A1.50015 1.50015 0 0 0 19 30.740234L19 40.5A1.50015 1.50015 0 0 0 20.5 42L30.253906 42A1.50015 1.50015 0 0 0 30.740234 42L36.5 42C39.519774 42 42 39.519774 42 36.5L42 30.746094A1.50015 1.50015 0 0 0 42 30.259766L42 20.5A1.50015 1.50015 0 0 0 40.5 19L30.746094 19A1.50015 1.50015 0 0 0 30.476562 18.978516zM6 19L6 29L16 29L16 19L6 19zM22 22L29 22L29 29L22 29L22 22zM32 22L39 22L39 29L32 29L32 22zM6 32L6 36C6 39.314 8.686 42 12 42L16 42L16 32L6 32zM22 32L29 32L29 39L22 39L22 32zM32 32L39 32L39 36.5C39 37.898226 37.898226 39 36.5 39L32 39L32 32z"/>
</svg>
