<svg xmlns="http://www.w3.org/2000/svg" viewBox="0 0 48 48">
  <path d="M23.976562 2.9785156 A 1.50015 1.50015 0 0 0 22.5 4.5 L 22.5 7.5 A 1.50015 1.50015 0 1 0 25.5 7.5 L 25.5 4.5 A 1.50015 1.50015 0 0 0 23.976562 2.9785156 z M 11.484375 3.9824219 A 1.50015 1.50015 0 0 0 10.251953 6.3320312 L 12.251953 9.3320312 A 1.50015 1.50015 0 1 0 14.748047 7.6679688 L 12.748047 4.6679688 A 1.50015 1.50015 0 0 0 11.484375 3.9824219 z M 36.470703 3.9824219 A 1.50015 1.50015 0 0 0 35.251953 4.6679688 L 33.251953 7.6679688 A 1.50015 1.50015 0 1 0 35.748047 9.3320312 L 37.748047 6.3320312 A 1.50015 1.50015 0 0 0 36.470703 3.9824219 z M 15.5 12 C 15.077 12 14.675625 12.178234 14.390625 12.490234 L 4.8359375 23 L 15.089844 23 C 15.119844 22.915 15.155172 22.831 15.201172 22.75 L 21.402344 12 L 15.5 12 z M 26.597656 12 L 32.798828 22.75 C 32.845828 22.831 32.880156 22.915 32.910156 23 L 43.164062 23 L 33.609375 12.490234 C 33.324375 12.178234 32.923 12 32.5 12 L 26.597656 12 z M 24 13.501953 L 18.519531 23 L 29.480469 23 L 24 13.501953 z M 4.890625 26 L 20.722656 41.402344 L 15.09375 26.015625 C 15.09075 26.009625 15.089891 26.005 15.087891 26 L 4.890625 26 z M 18.279297 26 L 24 41.634766 L 29.720703 26 L 18.279297 26 z M 32.912109 26 C 32.910109 26.005 32.910203 26.009625 32.908203 26.015625 L 27.279297 41.402344 L 43.109375 26 L 32.912109 26 z"/>
</svg>
