<svg xmlns="http://www.w3.org/2000/svg" viewBox="0 0 48 48">
  <path d="M43.609,13.678l-3.813-0.636l-0.099-0.147C38.488,11.082,36.467,10,34.289,10H33.86l-1.886-5.658 c-0.061-0.181-0.219-0.313-0.408-0.337c-0.197-0.035-0.376,0.059-0.482,0.218l-4,6c-0.02,0.028-0.035,0.06-0.048,0.092L23.161,20 H15.5c-3.365,0-6.651,0.942-9.505,2.727l-1.657,1.035c-0.649,0.405-1.083,1.072-1.19,1.83C3.04,26.349,3.271,27.11,3.78,27.681 c0.765,0.854,1.979,1.104,3.017,0.623L9,27.282V41.5c0,1.93,1.57,3.5,3.5,3.5s3.5-1.57,3.5-3.5v-5.59l4.458-0.892L28,37.847V41.5 c0,1.93,1.57,3.5,3.5,3.5s3.5-1.57,3.5-3.5v-6.78c0.874-0.835,4.512-4.78,2.215-10.18c-1.51,0.536-2.643,1.28-2.66,1.292 C34.384,25.945,34.191,26,34.001,26c-0.323,0-0.641-0.156-0.833-0.445c-0.307-0.46-0.183-1.08,0.277-1.387 c0.094-0.063,1.713-1.125,3.81-1.739c0.537-0.206,1.022-0.359,1.327-0.436l2.478-0.413c2.318-0.386,4.135-2.202,4.521-4.521 l0.084-0.505C45.891,15.195,44.969,13.904,43.609,13.678z M34.5,17c-0.828,0-1.5-0.672-1.5-1.5s0.672-1.5,1.5-1.5 c0.828,0,1.5,0.672,1.5,1.5S35.328,17,34.5,17z"/>
</svg>
