<svg xmlns="http://www.w3.org/2000/svg" viewBox="0 0 48 48">
  <path d="M12.5 4 C 10.019 4 8 6.019 8 8.5 L 8 22.050781 C 6.8602309 22.282931 6 23.292928 6 24.5 L 6 35.5 C 6 36.707072 6.8602309 37.717069 8 37.949219 L 8 39.5 C 8 41.981 10.019 44 12.5 44 L 35.050781 44 L 33.025391 41.974609 C 32.363391 41.313609 32 40.435 32 39.5 C 32 38.970245 32.128096 38.464336 32.349609 38 C 32.519609 37.645 32.739391 37.312391 33.025391 37.025391 C 33.153141 36.897641 33.294634 36.790626 33.4375 36.685547 C 33.529402 36.620962 33.622598 36.557033 33.71875 36.5 C 33.71875 36.5 33.720703 36.5 33.720703 36.5 C 34.255328 36.181935 34.861594 36 35.5 36 C 36.028 36 36.537 36.115938 37 36.335938 L 37 35 L 9 35 L 9 25 L 39 25 L 39 27.351562 C 39.456 27.133563 39.961 27 40.5 27 C 41.039 27 41.544 27.133563 42 27.351562 L 42 24.5 C 42 23.292928 41.139769 22.282931 40 22.050781 L 40 20 L 28.5 20 C 26.019 20 24 17.981 24 15.5 L 24 4 L 12.5 4 z M 27 4.8789062 L 27 15.5 C 27 16.327 27.673 17 28.5 17 L 39.121094 17 L 27 4.8789062 z M 23 26 C 22.448 26 22 26.448 22 27 L 22 33 C 22 33.552 22.448 34 23 34 L 26 34 C 26.552 34 27 33.552 27 33 C 27 32.448 26.552 32 26 32 L 24 32 L 24 27 C 24 26.448 23.552 26 23 26 z M 30.625 26 C 29.247 26 28.125 27.122 28.125 28.5 C 28.125 29.878 29.247 31 30.625 31 L 31.5 31 C 31.776 31 32 31.224 32 31.5 C 32 31.776 31.776 32 31.5 32 L 30.408203 32 C 30.066203 32 29.785031 31.745969 29.707031 31.667969 C 29.316031 31.276969 28.683969 31.276969 28.292969 31.667969 C 27.901969 32.058969 27.901969 32.691031 28.292969 33.082031 C 28.568969 33.358031 29.327203 34 30.408203 34 L 31.5 34 C 32.878 34 34 32.878 34 31.5 C 34 30.122 32.878 29 31.5 29 L 30.625 29 C 30.349 29 30.125 28.776 30.125 28.5 C 30.125 28.224 30.349 28 30.625 28 L 31.5 28 C 31.804 28 32.041969 28.208031 32.042969 28.207031 C 32.433969 28.597031 33.066031 28.598031 33.457031 28.207031 C 33.848031 27.816031 33.848031 27.183969 33.457031 26.792969 C 33.376031 26.711969 32.631 26 31.5 26 L 30.625 26 z M 15.8125 26.017578 C 15.684891 26.041906 15.560313 26.092922 15.445312 26.169922 C 14.985312 26.475922 14.860969 27.097641 15.167969 27.556641 L 16.796875 30 L 15.167969 32.445312 C 14.860969 32.905313 14.985312 33.526031 15.445312 33.832031 C 15.616312 33.946031 15.808047 34.001953 15.998047 34.001953 C 16.321047 34.001953 16.639031 33.844641 16.832031 33.556641 L 18 31.804688 L 19.167969 33.556641 C 19.359969 33.845641 19.678953 34.001953 20.001953 34.001953 C 20.191953 34.001953 20.382687 33.945031 20.554688 33.832031 C 21.014688 33.526031 21.139031 32.904313 20.832031 32.445312 L 19.203125 30 L 20.832031 27.556641 C 21.139031 27.096641 21.014688 26.475922 20.554688 26.169922 C 20.092688 25.861922 19.473969 25.986313 19.167969 26.445312 L 18 28.197266 L 16.832031 26.445312 C 16.601781 26.101063 16.195328 25.944594 15.8125 26.017578 z M 40.5 29 C 39.671 29 39 29.671 39 30.5 L 39 40.878906 L 36.560547 38.439453 C 35.974547 37.853453 35.025453 37.853453 34.439453 38.439453 C 33.853453 39.024453 33.853453 39.975547 34.439453 40.560547 L 39.439453 45.560547 C 39.731453 45.853547 40.116 46 40.5 46 C 40.884 46 41.267547 45.853547 41.560547 45.560547 L 46.560547 40.560547 C 47.145547 39.974547 47.145547 39.025453 46.560547 38.439453 C 45.974547 37.853453 45.025453 37.853453 44.439453 38.439453 L 42 40.878906 L 42 30.5 C 42 29.671 41.329 29 40.5 29 z"/>
</svg>
