<svg xmlns="http://www.w3.org/2000/svg" viewBox="0 0 48 48">
  <path d="M12.5 4C10.015 4 8 6.015 8 8.5L8 39.5C8 41.985 10.015 44 12.5 44L22.037109 44C22.069109 43.783 22.120359 43.568375 22.193359 43.359375L23.746094 37.9375C23.980094 37.1305 24.418672 36.388922 25.013672 35.794922L25.824219 34.982422C24.849219 34.896422 24.079672 34.115766 24.013672 33.134766L21 30.121094L17.986328 33.134766C17.916328 34.174766 17.058 35 16 35C14.895 35 14 34.104 14 33C14 31.942 14.825234 31.083672 15.865234 31.013672L19.013672 27.865234C19.084672 26.824234 19.942 26 21 26C22.058 26 22.916328 26.825234 22.986328 27.865234L26 30.878906L30.013672 26.865234C30.083672 25.825234 30.942 25 32 25C33.045 25 33.893422 25.802219 33.982422 26.824219L36.810547 23.996094C37.731547 23.074094 38.831047 22.464453 39.998047 22.189453L39.998047 20L28.5 20C26.015 20 24 17.985 24 15.5L24 4L12.5 4z M27 4.8789062L27 15.5C27 16.327 27.673 17 28.5 17L39.121094 17L27 4.8789062z M41.498047 24C41.224047 24.001 40.946969 24.025172 40.667969 24.076172C39.783969 24.235172 38.939563 24.696156 38.226562 25.410156L26.427734 37.208984C26.070734 37.565984 25.807969 38.011141 25.667969 38.494141L24.097656 43.974609C24.025656 44.164609 23.993 44.365406 24 44.566406C24.013 44.929406 24.155594 45.288406 24.433594 45.566406C24.710594 45.843406 25.067688 45.986 25.429688 46C25.630688 46.007 25.834391 45.975344 26.025391 45.902344L31.505859 44.332031C31.988859 44.192031 32.431062 43.930266 32.789062 43.572266L44.589844 31.773438C45.303844 31.060437 45.764828 30.216031 45.923828 29.332031C45.973828 29.053031 45.997047 28.775953 45.998047 28.501953C46.001047 27.307953 45.540687 26.179312 44.679688 25.320312C43.820687 24.460313 42.692047 23.998 41.498047 24z"/>
</svg>
