<svg xmlns="http://www.w3.org/2000/svg" viewBox="0 0 48 48">
  <path d="M9.4238281 9 C7.4938281 9 5.9238281 10.57 5.9238281 12.5 L 5.9238281 31.5 C 5.9238281 33.43 7.4938281 35 9.4238281 35 L 38.423828 35 C 40.353828 35 41.923828 33.43 41.923828 31.5 L 41.923828 12.5 C 41.923828 10.57 40.353828 9 38.423828 9 L 9.4238281 9 z M 12.5 14 L 20.5 14 C 21.328 14 22 14.671 22 15.5 C 22 16.329 21.328 17 20.5 17 L 12.5 17 C 11.672 17 11 16.329 11 15.5 C 11 14.671 11.672 14 12.5 14 z M 27.5 14 L 35.5 14 C 36.328 14 37 14.671 37 15.5 C 37 16.329 36.328 17 35.5 17 L 27.5 17 C 26.672 17 26 16.329 26 15.5 C 26 14.671 26.672 14 27.5 14 z M 12.5 20 L 20.5 20 C 21.328 20 22 20.671 22 21.5 C 22 22.329 21.328 23 20.5 23 L 12.5 23 C 11.672 23 11 22.329 11 21.5 C 11 20.671 11.672 20 12.5 20 z M 27.5 20 L 35.5 20 C 36.328 20 37 20.671 37 21.5 C 37 22.329 36.328 23 35.5 23 L 27.5 23 C 26.672 23 26 22.329 26 21.5 C 26 20.671 26.672 20 27.5 20 z M 12.5 26 L 20.5 26 C 21.328 26 22 26.671 22 27.5 C 22 28.329 21.328 29 20.5 29 L 12.5 29 C 11.672 29 11 28.329 11 27.5 C 11 26.671 11.672 26 12.5 26 z M 27.5 26 L 32.5 26 C 33.328 26 34 26.671 34 27.5 C 34 28.329 33.328 29 32.5 29 L 27.5 29 C 26.672 29 26 28.329 26 27.5 C 26 26.671 26.672 26 27.5 26 z M 3.4238281 36 A 1.50015 1.50015 0 1 0 3.4238281 39 L 44.423828 39 A 1.50015 1.50015 0 1 0 44.423828 36 L 3.4238281 36 z" />
</svg>
