<svg xmlns="http://www.w3.org/2000/svg" viewBox="0 0 48 48">
  <path d="M10 11C6.86 11 4.2795313 13.42 4.0195312 16.5L24 27.289062L43.980469 16.5C43.720469 13.42 41.14 11 38 11L10 11zM4 19.890625L4 37C4 40.31 6.69 43 10 43L21.339844 43C21.689844 42.24 22.319609 41.629063 23.099609 41.289062C22.369609 39.489062 22 37.49 22 35.5C22 33.59 22.699609 31.830234 23.849609 30.490234C23.659609 30.470234 23.469062 30.420313 23.289062 30.320312L4 19.890625zM44 19.890625L29 28C32.79 28 36 31.43 36 35.5C36 35.75 35.990469 36 35.980469 36.25C36.420469 36.09 36.93 36 37.5 36C40.02 36 41.260859 37.790625 41.880859 39.140625C42.280859 38.700625 42.790859 38.360156 43.380859 38.160156C43.550859 38.100156 43.730156 38.059531 43.910156 38.019531C43.970156 37.689531 44 37.35 44 37L44 19.890625zM29 30C27.5 30 26.203542 30.761999 25.347656 31.789062C24.49177 32.816126 24 34.125 24 35.5C24 37.75 24.531349 40.238652 25.863281 42.310547C25.933281 42.419434 26.071151 42.479731 26.146484 42.585938C25.610848 42.738273 25.175513 43 24.5 43A1.50015 1.50015 0 0 0 24.5 46C26.086005 46 27.446116 45.581876 28.626953 44.960938C29.731071 45.601685 31.028723 46 32.5 46C33.8125 46 34.95505 45.522976 35.712891 44.8125C36.470731 44.102024 36.860562 43.261682 37.142578 42.556641C37.276617 42.221543 37.338513 42.074769 37.4375 41.810547C37.51149 42.054368 37.54968 42.168756 37.648438 42.46875C37.882399 43.179448 38.21668 44.039803 38.951172 44.777344C39.685664 45.514884 40.833984 46 42.146484 46C43.342484 46 44.456582 45.423612 45.132812 44.527344C45.809044 43.631075 46.070288 42.45171 45.880859 41.263672A1.5001767 1.5001767 0 0 0 42.917969 41.736328C42.993539 42.21029 42.880299 42.532472 42.738281 42.720703C42.596261 42.908935 42.450484 43 42.146484 43C41.458984 43 41.275305 42.860116 41.076172 42.660156C40.877039 42.460197 40.675585 42.070552 40.498047 41.53125C40.320509 40.991948 40.193541 40.3537 39.869141 39.652344C39.70694 39.301666 39.482079 38.91051 39.076172 38.568359C38.670264 38.226209 38.0625 38 37.5 38C36.9375 38 36.346007 38.219174 35.941406 38.541016C35.536806 38.862857 35.295273 39.234938 35.113281 39.576172C34.749298 40.258641 34.575405 40.8984 34.357422 41.443359C34.139438 41.988318 33.904269 42.397976 33.662109 42.625C33.41995 42.852024 33.1875 43 32.5 43C31.986849 43 31.652427 42.792194 31.236328 42.681641C31.457219 42.416772 31.81235 42.235577 31.998047 41.957031C33.452859 39.774813 34 37.333333 34 35.5C34 34.125 33.50823 32.816126 32.652344 31.789062C31.796458 30.761999 30.5 30 29 30zM29 33C29.5 33 29.953542 33.238 30.347656 33.710938C30.74177 34.183874 31 34.875 31 35.5C31 36.666667 30.547141 38.725187 29.501953 40.292969C29.297892 40.59906 28.978418 40.782648 28.738281 41.050781C28.63341 40.911266 28.484644 40.841781 28.386719 40.689453C27.468651 39.261348 27 37.25 27 35.5C27 34.875 27.25823 34.183874 27.652344 33.710938C28.046458 33.238 28.5 33 29 33z"/>
</svg>
