<svg xmlns="http://www.w3.org/2000/svg" viewBox="0 0 48 48">
  <path d="M24 4C21.256343 4 19 6.256343 19 9L19 9.5A1.50015 1.50015 0 1 0 22 9.5L22 9C22 7.877657 22.877657 7 24 7C25.122343 7 26 7.877657 26 9C26 10.25 25.648438 10.361328 24.773438 11.111328C23.898438 11.861328 22.5 13.25 22.5 15.5A1.50015 1.50015 0 1 0 25.5 15.5C25.5 14.25 25.851562 14.138672 26.726562 13.388672C27.601562 12.638672 29 11.25 29 9C29 6.256343 26.743657 4 24 4zM13.904297 16C12.563297 16 11.303266 16.590141 10.447266 17.619141L7.0410156 21.705078C6.3700156 22.514078 6 23.536938 6 24.585938L6 37.5C6 40.532 8.467 43 11.5 43L36.5 43C39.533 43 42 40.532 42 37.5L42 24.585938C42 23.534938 41.629031 22.513078 40.957031 21.705078L37.552734 17.619141C36.695734 16.590141 35.436703 16 34.095703 16L28 16L28 19L34.095703 19C34.542703 19 34.961094 19.196063 35.246094 19.539062L38.652344 23.625C38.745344 23.737 38.810187 23.867 38.867188 24L9.1328125 24C9.1898125 23.867 9.2546563 23.737 9.3476562 23.625L12.753906 19.539062C13.038906 19.196063 13.457297 19 13.904297 19L20 19L20 16L13.904297 16zM24 19A1.5 1.5 0 0 0 24 22A1.5 1.5 0 0 0 24 19zM20.5 28L27.5 28C28.329 28 29 28.672 29 29.5C29 30.328 28.329 31 27.5 31L20.5 31C19.671 31 19 30.328 19 29.5C19 28.672 19.671 28 20.5 28z"/>
</svg>
