<?xml version="1.0" encoding="iso-8859-1"?>
<!-- Generator: Adobe Illustrator 24.1.2, SVG Export Plug-In . SVG Version: 6.00 Build 0)  -->
<svg version="1.1" xmlns="http://www.w3.org/2000/svg" xmlns:xlink="http://www.w3.org/1999/xlink" x="0px" y="0px"
	 viewBox="0 0 48 48" style="enable-background:new 0 0 48 48;" xml:space="preserve">
<g id="weight">
</g>
<g id="virus">
</g>
<g id="scissors">
</g>
<g id="physical_therapy">
</g>
<g id="cast">
</g>
<g id="hand_with_pill">
</g>
<g id="brain-3">
</g>
<g id="headache">
</g>
<g id="uterus">
</g>
<g id="body_scan">
</g>
<g id="assistive_listening_systems">
</g>
<g id="autism">
</g>
<g id="access_for_blind">
</g>
<g id="head_with_brain">
</g>
<g id="ophthalmology">
</g>
<g id="false_teeth">
</g>
<g id="closed_eye">
</g>
<g id="world_health_organization">
</g>
<g id="insulin_pen">
	<path d="M14.33,38.59l-1.66,1.66c-0.47,0.48-1.1,0.74-1.77,0.74c-0.67,0-1.3-0.26-1.77-0.74l-1.38-1.38
		c-0.98-0.98-0.98-2.56,0-3.54l1.67-1.67c0.19,0.28,0.42,0.54,0.67,0.79l3.46,3.47C13.79,38.16,14.05,38.39,14.33,38.59z"/>
	
		<line style="stroke:#000000;stroke-width:3;stroke-linecap:round;stroke-linejoin:round;stroke-miterlimit:10;" x1="4.5" y1="43.5" x2="9" y2="39"/>
	
		<line style="fill:none;stroke:#000000;stroke-width:3;stroke-linecap:round;stroke-linejoin:round;stroke-miterlimit:10;" x1="36.5" y1="4.5" x2="43.5" y2="11.5"/>
	<rect x="34.665" y="7.382" transform="matrix(0.7071 -0.7071 0.7071 0.7071 3.8488 29.7118)" width="6.251" height="5.657"/>
	<path d="M36.25,17.33l-5.58-5.58c-0.47-0.48-1.1-0.74-1.77-0.74c-0.67,0-1.3,0.26-1.77,0.74L19,19.88l2.56,2.56
		c0.59,0.58,0.59,1.54,0,2.12C21.27,24.85,20.88,25,20.5,25s-0.77-0.15-1.06-0.44L16.88,22L15,23.88l2.56,2.56
		c0.59,0.58,0.59,1.54,0,2.12C17.27,28.85,16.88,29,16.5,29s-0.77-0.15-1.06-0.44L12.88,26l-0.67,0.67
		c-0.76,0.76-1.17,1.76-1.17,2.83s0.41,2.07,1.17,2.83l3.46,3.46c0.78,0.78,1.81,1.17,2.83,1.17s2.05-0.39,2.83-1.17l14.92-14.92
		C37.23,19.89,37.23,18.31,36.25,17.33z M30.56,19.56l-2,2C28.27,21.85,27.88,22,27.5,22s-0.77-0.15-1.06-0.44
		c-0.59-0.58-0.59-1.54,0-2.12l2-2c0.59-0.59,1.53-0.59,2.12,0C31.15,18.02,31.15,18.98,30.56,19.56z"/>
</g>
<g id="ultrasound">
</g>
<g id="hospital_bed">
</g>
<g id="hospital_room">
</g>
<g id="hypertension">
</g>
<g id="blood_sample">
</g>
<g id="wipes">
</g>
<g id="death">
</g>
<g id="sign_language_interpretation">
</g>
<g id="medical_history">
</g>
<g id="nose">
</g>
<g id="supplement_bottle">
</g>
<g id="health_graph">
</g>
</svg>