<svg xmlns="http://www.w3.org/2000/svg"  viewBox="0 0 48 48" width="48px" height="48px"><path d="M 24 5 C 13.523 5 5 13.523 5 24 C 5 34.477 13.523 43 24 43 C 34.477 43 43 34.477 43 24 C 43 13.523 34.477 5 24 5 z M 3.0058594 14.630859 A 1.50015 1.50015 0 0 0 2.8554688 14.632812 A 1.50015 1.50015 0 0 0 1.5292969 15.626953 C 0.55967643 18.228555 -1.4802974e-16 21.04585 0 24 C 0 26.95415 0.55967644 29.771445 1.5292969 32.373047 A 1.50015 1.50015 0 1 0 4.3398438 31.324219 C 3.4854642 29.031821 3 26.57585 3 24 C 3 21.42415 3.4854642 18.968179 4.3398438 16.675781 A 1.50015 1.50015 0 0 0 3.0058594 14.630859 z M 45.099609 14.630859 A 1.50015 1.50015 0 0 0 43.660156 16.675781 C 44.514536 18.968179 45 21.42415 45 24 C 45 26.57585 44.514536 29.031821 43.660156 31.324219 A 1.50015 1.50015 0 1 0 46.470703 32.373047 C 47.440324 29.771445 48 26.95415 48 24 C 48 21.04585 47.440324 18.228555 46.470703 15.626953 A 1.50015 1.50015 0 0 0 45.099609 14.630859 z M 24 15 C 24.829 15 25.5 15.671 25.5 16.5 L 25.5 25.5 C 25.5 26.329 24.829 27 24 27 C 23.171 27 22.5 26.329 22.5 25.5 L 22.5 16.5 C 22.5 15.671 23.171 15 24 15 z M 24 29 C 25.105 29 26 29.895 26 31 C 26 32.105 25.105 33 24 33 C 22.895 33 22 32.105 22 31 C 22 29.895 22.895 29 24 29 z"/></svg>