<svg  xmlns="http://www.w3.org/2000/svg" viewBox="0 0 48 48">
 <path d="M 12 3 A 6 6 0 0 0 12 15 A 6 6 0 0 0 12 3 z M 26 3 A 6 6 0 0 0 26 15 A 6 6 0 0 0 26 3 z M 6.5 17 C 4.6 17 3 18.6 3 20.5 L 3 30 C 3 35 7 39 12 39 C 14.1 39 15.999609 38.299609 17.599609 37.099609 C 15.999609 35.099609 15 32.7 15 30 L 15 20.5 C 15 19.2 15.500781 18 16.300781 17 L 6.5 17 z M 20.5 17 C 18.6 17 17 18.6 17 20.5 L 17 30 C 17 33.7 19.200391 36.900781 22.400391 38.300781 C 22.200391 37.200781 22 36.1 22 35 C 22 27.8 27.8 22 35 22 L 35 20.5 C 35 18.6 33.4 17 31.5 17 L 20.5 17 z M 35 24 C 28.9 24 24 28.9 24 35 C 24 41.1 28.9 46 35 46 C 41.1 46 46 41.1 46 35 C 46 28.9 41.1 24 35 24 z M 34 28 C 34.6 28 35 28.4 35 29 L 35 35 L 40 35 C 40.6 35 41 35.4 41 36 C 41 36.6 40.6 37 40 37 L 34 37 C 33.4 37 33 36.6 33 36 L 33 29 C 33 28.4 33.4 28 34 28 z"></path>
                                                
</svg>