<?xml version="1.0" encoding="iso-8859-1"?>
<!-- Generator: Adobe Illustrator 24.2.3, SVG Export Plug-In . SVG Version: 6.00 Build 0)  -->
<svg version="1.1" id="Layer_1" xmlns="http://www.w3.org/2000/svg" xmlns:xlink="http://www.w3.org/1999/xlink" x="0px" y="0px"
	 viewBox="0 0 48 48" style="enable-background:new 0 0 48 48;" xml:space="preserve">
<path d="M35,24c-6.075,0-11,4.925-11,11c0,6.075,4.925,11,11,11c6.075,0,11-4.925,11-11C46,28.925,41.075,24,35,24z M40,37h-6
	c-0.552,0-1-0.448-1-1v-7c0-0.552,0.448-1,1-1s1,0.448,1,1v6h5c0.552,0,1,0.448,1,1C41,36.552,40.552,37,40,37z"/>
<path d="M6,17v18.5c0,3.584,2.916,6.5,6.5,6.5h11.557C22.761,39.978,22,37.58,22,35c0-0.263,0.024-0.519,0.039-0.778l0,0
	l-1.269,0.95c-0.446,0.335-1.057,0.343-1.513,0.021c-0.455-0.322-0.651-0.901-0.485-1.433l1.159-3.71l-3.423-2.596
	c-0.44-0.334-0.618-0.911-0.442-1.435c0.176-0.523,0.667-0.876,1.219-0.876h4.225l1.273-3.704c0.179-0.519,0.667-0.868,1.216-0.868
	s1.037,0.349,1.216,0.868l1.273,3.704h0.05C28.814,23.188,31.766,22,35,22c2.58,0,4.978,0.761,7,2.057V17H6z"/>
<path d="M42,14v-1.5C42,8.916,39.084,6,35.5,6h-23C8.916,6,6,8.916,6,12.5V14H42z"/>
</svg>