<?xml version="1.0" encoding="iso-8859-1"?>
<!-- Generator: Adobe Illustrator 25.1.0, SVG Export Plug-In . SVG Version: 6.00 Build 0)  -->
<svg version="1.1" id="Layer_1" xmlns="http://www.w3.org/2000/svg" xmlns:xlink="http://www.w3.org/1999/xlink" x="0px" y="0px"
	 viewBox="0 0 48 48" style="enable-background:new 0 0 48 48;" xml:space="preserve">
<path d="M26,30v-1c0-1.657,1.343-3,3-3h14c1.657,0,3,1.343,3,3v1H26z M46,32v11c0,1.657-1.343,3-3,3H29c-1.657,0-3-1.343-3-3V32H46z
	 M32,41.5c0-0.828-0.672-1.5-1.5-1.5S29,40.672,29,41.5s0.672,1.5,1.5,1.5S32,42.328,32,41.5z M32,36.5c0-0.828-0.672-1.5-1.5-1.5
	S29,35.672,29,36.5s0.672,1.5,1.5,1.5S32,37.328,32,36.5z M37.5,41.5c0-0.828-0.672-1.5-1.5-1.5s-1.5,0.672-1.5,1.5S35.172,43,36,43
	S37.5,42.328,37.5,41.5z M37.5,36.5c0-0.828-0.672-1.5-1.5-1.5s-1.5,0.672-1.5,1.5S35.172,38,36,38S37.5,37.328,37.5,36.5z M43,36.5
	c0-0.828-0.672-1.5-1.5-1.5S40,35.672,40,36.5s0.672,1.5,1.5,1.5S43,37.328,43,36.5z"/>
<path d="M28.5,17h10.621L27,4.879V15.5C27,16.327,27.673,17,28.5,17z"/>
<g>
	<path d="M24,43v-8h-6.509c-0.828,0-1.5-0.672-1.5-1.5c0-0.759,0.564-1.387,1.296-1.486L17.491,32H24v-3
		c0-0.342,0.035-0.677,0.101-1h-6.609c-0.828,0-1.5-0.685-1.5-1.514c0-0.759,0.564-1.387,1.296-1.486l0.204-0.014h8.531
		C26.855,24.367,27.885,24,29,24h11v-4H28.5c-2.481,0-4.5-2.019-4.5-4.5V4H12.5C10.019,4,8,6.019,8,8.5v31
		c0,2.481,2.019,4.5,4.5,4.5h11.601C24.035,43.677,24,43.342,24,43z"/>
</g>
</svg>