<svg xmlns="http://www.w3.org/2000/svg" viewBox="0 0 480 480">
  <path d="M277.548,97.719c1.888-0.792,4.016-0.792,5.904,0l57.276,24.019c6.265,2.627,6.235,11.515-0.049,14.099c-61.453,25.274-59.048,25.216-63.083,23.557c-0.058-0.024-57.276-23.557-57.276-23.557c-6.283-2.584-6.314-11.472-0.049-14.099L277.548,97.719z M277.457,176.638L235.789,159.5c-5.024-2.066-10.537,1.628-10.537,7.06c0,28.48-0.666,28.521,1.886,30.437c31.937,23.966,74.74,24.003,106.727-0.001c1.179-0.886,1.884-2.284,1.884-3.739V166.56c0-5.432-5.513-9.126-10.537-7.06C280.199,178.013,281.597,178.342,277.457,176.638z M464.5,32v416c0,17.64-14.35,32-32,32h-305c-12.07,0-22.59-6.72-28.04-16.6c-1.83-3.311-1.05-7.46,1.82-9.92c13.811-11.825-2.744,2.356,98.11-84.04c21.82-18.391,25.99-49.881,9.69-73.32c-16.09-23.12-46.83-30.32-71.51-16.75c-0.452,0.237-29.561,17.311-30.02,17.58c-5.34,3.12-12.05-0.72-12.05-6.9V32c0-17.67,14.33-32,32-32h305C450.17,0,464.5,14.33,464.5,32z M245.5,334h6c4.42,0,8-3.58,8-8s-3.58-8-8-8h-6c-4.42,0-8,3.58-8,8S241.08,334,245.5,334z M335.5,382c0-4.42-3.58-8-8-8h-74c-4.42,0-8,3.58-8,8s3.58,8,8,8h74C331.92,390,335.5,386.42,335.5,382z M368.5,326c0-4.42-3.58-8-8-8h-71.67c-4.41,0-8,3.58-8,8s3.59,8,8,8h71.67C364.92,334,368.5,330.42,368.5,326z M381.63,121.54l-98.04-41.11c-1.97-0.83-4.21-0.83-6.18,0l-98.04,41.11c-6.581,2.761-6.491,12.088,0.05,14.78l25.098,10.315c2.863,1.177,4.732,3.965,4.732,7.06v39.564c0,6.46,3.1,12.641,8.28,16.53c37.659,28.244,88.24,28.274,125.94,0c5.18-3.89,8.28-10.07,8.28-16.53v-39.564c0-3.095,1.869-5.884,4.732-7.06l25.098-10.315C388.128,133.626,388.206,124.299,381.63,121.54z M188.71,356.85c-23.412,20.255-80.614,69.744-106.459,92.101C78.695,452.026,79.5,454.298,79.5,472c0,4.418-3.582,8-8,8h-48c-4.418,0-8-3.582-8-8V295.95c0-41.253,19.113-70.301,51.305-93.534c5.293-3.82,12.695-0.042,12.695,6.486v107.37c0,6.099,6.548,9.957,11.88,6.996c18.801-10.44,53.333-29.565,53.7-29.768c17.67-9.72,39.45-4.44,50.7,12.25C206.82,322.13,203.78,344.09,188.71,356.85z"/>
</svg>
