<svg xmlns="http://www.w3.org/2000/svg" viewBox="0 0 42 56">
  <path d="M 4.0292969 0 L 4.0292969 12 L 4.0292969 18 C 4.2742969 18 4.5113125 18.089953 4.6953125 18.251953 L 13.410156 26 L 28.650391 26 L 37.365234 18.251953 C 37.548234 18.088953 37.784297 18 38.029297 18 L 38.029297 12 L 38.029297 9 L 30.029297 9 C 29.477297 9 29.029297 8.552 29.029297 8 L 29.029297 0 L 4.0292969 0 z M 31.029297 1.4140625 L 31.029297 7 L 36.615234 7 L 33.822266 4.2070312 L 31.029297 1.4140625 z M 11.029297 11 L 23.029297 11 C 23.581297 11 24.029297 11.448 24.029297 12 C 24.029297 12.552 23.581297 13 23.029297 13 L 11.029297 13 C 10.477297 13 10.029297 12.552 10.029297 12 C 10.029297 11.448 10.477297 11 11.029297 11 z M 28.029297 11 L 30.029297 11 C 30.581297 11 31.029297 11.448 31.029297 12 C 31.029297 12.552 30.581297 13 30.029297 13 L 28.029297 13 C 27.477297 13 27.029297 12.552 27.029297 12 C 27.029297 11.448 27.477297 11 28.029297 11 z M 2.0292969 14 L 0.029296875 15.5 L 0.029296875 18 L 2.0292969 18 L 2.0292969 14 z M 40.029297 14 L 40.029297 18 L 42.029297 18 L 42.029297 15.5 L 40.029297 14 z M 11.029297 15 L 13.029297 15 C 13.581297 15 14.029297 15.448 14.029297 16 C 14.029297 16.552 13.581297 17 13.029297 17 L 11.029297 17 C 10.477297 17 10.029297 16.552 10.029297 16 C 10.029297 15.448 10.477297 15 11.029297 15 z M 18.029297 15 L 30.029297 15 C 30.581297 15 31.029297 15.448 31.029297 16 C 31.029297 16.552 30.581297 17 30.029297 17 L 18.029297 17 C 17.477297 17 17.029297 16.552 17.029297 16 C 17.029297 15.448 17.477297 15 18.029297 15 z M 11.029297 19 L 23.029297 19 C 23.581297 19 24.029297 19.448 24.029297 20 C 24.029297 20.552 23.581297 21 23.029297 21 L 11.029297 21 C 10.477297 21 10.029297 20.552 10.029297 20 C 10.029297 19.448 10.477297 19 11.029297 19 z M 28.029297 19 L 30.029297 19 C 30.581297 19 31.029297 19.448 31.029297 20 C 31.029297 20.552 30.581297 21 30.029297 21 L 28.029297 21 C 27.477297 21 27.029297 20.552 27.029297 20 C 27.029297 19.448 27.477297 19 28.029297 19 z M 0.029296875 20 L 0.029296875 56 L 42.029297 56 L 42.029297 20 L 39.029297 20 L 38.410156 20 L 29.693359 27.748047 C 29.510359 27.911047 29.275297 28 29.029297 28 L 13.029297 28 C 12.784297 28 12.548234 27.910047 12.365234 27.748047 L 3.6484375 20 L 3.0292969 20 L 0.029296875 20 z M 21.029297 32 C 23.786297 32 26.029297 34.243 26.029297 37 L 26.029297 47 C 26.029297 49.757 23.786297 52 21.029297 52 C 18.272297 52 16.029297 49.757 16.029297 47 L 16.029297 37 C 16.029297 34.243 18.272297 32 21.029297 32 z M 21.029297 34 A 3 3 0 0 0 21.029297 40 A 3 3 0 0 0 21.029297 34 z M 18.029297 40.998047 L 18.029297 47 C 18.029297 48.654 19.375297 50 21.029297 50 C 22.683297 50 24.029297 48.654 24.029297 47 L 24.029297 40.998047 C 23.909297 41.088047 23.78425 41.173953 23.65625 41.251953 C 22.08025 42.211953 19.984156 42.216234 18.410156 41.240234 C 18.323156 41.186234 18.234391 41.134219 18.150391 41.074219 C 18.111391 41.046219 18.068297 41.027047 18.029297 40.998047 z M 21.029297 44 C 21.581297 44 22.029297 44.448 22.029297 45 L 22.029297 47 C 22.029297 47.552 21.581297 48 21.029297 48 C 20.477297 48 20.029297 47.552 20.029297 47 L 20.029297 45 C 20.029297 44.448 20.477297 44 21.029297 44 z"/>
</svg>
