<svg xmlns="http://www.w3.org/2000/svg" viewBox="0 0 48 48">
  <path d="M7.9785156,5.9804688A2.0002,2.0002,0,0,0,6,8.2597656L6,16A2.0002,2.0002,0,1,0,10,16L10,12.828125L17.585938,20.414062A2.0002,2.0002,0,1,0,20.414062,17.585938L12.828125,10L16,10A2.0002,2.0002,0,1,0,16,6L8.2460938,6A2.0002,2.0002,0,0,0,7.9785156,5.9804688z M39.960938,5.9804688A2.0002,2.0002,0,0,0,39.740234,6L32,6A2.0002,2.0002,0,1,0,32,10L35.171875,10L27.585938,17.585938A2.0002,2.0002,0,1,0,30.414062,20.414062L38,12.828125L38,16A2.0002,2.0002,0,1,0,42,16L42,8.2460938A2.0002,2.0002,0,0,0,39.960938,5.9804688z M18.960938,26.980469A2.0002,2.0002,0,0,0,17.585938,27.585938L10,35.171875L10,32A2.0002,2.0002,0,1,0,6,32L6,39.753906A2.0002,2.0002,0,0,0,8.2597656,42L16,42A2.0002,2.0002,0,1,0,16,38L12.828125,38L20.414062,30.414062A2.0002,2.0002,0,0,0,18.960938,26.980469z M28.978516,26.980469A2.0002,2.0002,0,0,0,27.585938,30.414062L35.171875,38L32,38A2.0002,2.0002,0,1,0,32,42L39.753906,42A2.0002,2.0002,0,0,0,42,39.740234L42,32A2.0002,2.0002,0,1,0,38,32L38,35.171875L30.414062,27.585938A2.0002,2.0002,0,0,0,28.978516,26.980469z"/>
</svg>
