<svg xmlns="http://www.w3.org/2000/svg" viewBox="0 0 48 48">
  <path d="M16.5 3A1.50015 1.50015 0 0 0 16.5 6L17 6L17 38C17 41.86 20.141 45 24 45C27.859 45 31 41.86 31 38L31 6L31.5 6A1.50015 1.50015 0 0 0 31.5 3L16.5 3zM20 6L28 6L28 12L20 12L20 6zM22.5 17C23.328 17 24 17.672 24 18.5C24 19.328 23.328 20 22.5 20C21.672 20 21 19.328 21 18.5C21 17.672 21.672 17 22.5 17zM25.5 24C26.328 24 27 24.672 27 25.5C27 26.328 26.328 27 25.5 27C24.672 27 24 26.328 24 25.5C24 24.672 24.672 24 25.5 24zM22.5 34C23.328 34 24 34.672 24 35.5C24 36.328 23.328 37 22.5 37C21.672 37 21 36.328 21 35.5C21 34.672 21.672 34 22.5 34z"/>
</svg>
