<svg xmlns="http://www.w3.org/2000/svg" viewBox="0 0 48 48">
  <path d="M10.54,9.35c-2.43,.26-3.6,.93-4.5,2.55-1.17,2.12-1.72,5.09-1.72,9.24,0,2.6,.11,3.95,.51,6.38,.82,4.94,2.37,8.33,4.36,9.59,1.67,1.06,4.36,1.58,8.07,1.58,2.37,0,2.39,0,2.87-.75,.6-.93,2.31-4.33,3.16-6.28,1.9-4.31,2.52-5.77,2.49-5.81-.02-.02-.43,.19-.9,.45-3.34,1.9-7.48,3.57-10.45,4.22-1.56,.34-2.26,.34-3.03-.02-2.06-.96-4.3-3.71-4.2-5.17,.05-.93-.62-.81,10.12-1.68,5.24-.43,9.64-.8,9.76-.82,.14-.03,.41-.4,.79-1.06,1.7-3.07,3.55-5.27,5.55-6.57l.7-.46-.9-.41c-5.06-2.32-11.42-4.12-16.95-4.8-1.66-.2-4.59-.28-5.7-.17Zm10.37,7.96c3.37,1.56,6.15,2.86,6.18,2.89,.09,.09-.37,.98-.63,1.23-.25,.23-.39,.25-3.53,.36-3.26,.11-6.3,.02-7.31-.21-.84-.2-1.43-1.23-1.74-3.04-.37-2.12-.03-4.06,.71-4.06,.11,0,2.95,1.28,6.32,2.82Z M35.11,16.06c-1.53,1.66-2.44,3.47-4.72,9.31-2.03,5.2-3.89,9.29-5.31,11.66-.38,.62-.5,.9-.38,.9,.31,0,2.61-.56,4.1-.99,4.39-1.26,8.69-3.37,11.35-5.54,2.68-2.19,4.36-5.09,4.15-7.19-.16-1.77-1.45-3.65-3.82-5.57-1.28-1.05-4.45-3.06-4.82-3.06-.07,0-.32,.22-.56,.48Z"/>
</svg>
