<svg xmlns="http://www.w3.org/2000/svg" viewBox="0 0 48 48">
  <path d="M36.5,6h-25C8.468,6,6,8.467,6,11.5v25c0,3.033,2.468,5.5,5.5,5.5h25c3.032,0,5.5-2.467,5.5-5.5v-25C42,8.467,39.532,6,36.5,6z M22,15c0-1.105,0.895-2,2-2h11c1.105,0,2,0.895,2,2v2c0,1.105-0.895,2-2,2H24c-1.105,0-2-0.895-2-2V15z M22,25c0-1.105,0.895-2,2-2h11c1.105,0,2,0.895,2,2v2c0,1.105-0.895,2-2,2H24c-1.105,0-2-0.895-2-2V25z M12.5,14h5c0.828,0,1.5,0.671,1.5,1.5S18.328,17,17.5,17h-5c-0.828,0-1.5-0.671-1.5-1.5S11.672,14,12.5,14z M12.5,27c-0.828,0-1.5-0.671-1.5-1.5s0.672-1.5,1.5-1.5h5c0.828,0,1.5,0.671,1.5,1.5S18.328,27,17.5,27H12.5z M35.5,36h-17c-0.828,0-1.5-0.671-1.5-1.5s0.672-1.5,1.5-1.5h17c0.828,0,1.5,0.671,1.5,1.5S36.328,36,35.5,36z"/>
</svg>
