<svg xmlns="http://www.w3.org/2000/svg" viewBox="0 0 48 48">

<path d="M 35.25 3 C 34.56 3 34 3.56 34 4.25 C 34 4.94 34.56 5.5 35.25 5.5 L 38.380859 5.5 L 34.21875 11.044922 C 33.95675 11.427922 33.927531 11.922031 34.144531 12.332031 C 34.359531 12.742031 34.786 13 35.25 13 L 40.75 13 C 41.44 13 42 12.44 42 11.75 C 42 11.06 41.44 10.5 40.75 10.5 L 37.619141 10.5 L 41.78125 4.9550781 C 42.04325 4.5720781 42.072469 4.0779688 41.855469 3.6679688 C 41.640469 3.2579688 41.214 3 40.75 3 L 35.25 3 z M 23.25 9 C 22.559 9 22 9.56 22 10.25 C 22 10.94 22.56 11.5 23.25 11.5 L 27.380859 11.5 L 22.21875 19.044922 C 21.95675 19.427922 21.927531 19.922031 22.144531 20.332031 C 22.359531 20.742031 22.786 21 23.25 21 L 29.75 21 C 30.44 21 31 20.44 31 19.75 C 31 19.06 30.44 18.5 29.75 18.5 L 25.619141 18.5 L 30.78125 10.955078 C 31.04325 10.572078 31.072469 10.077969 30.855469 9.6679688 C 30.640469 9.2579688 30.214 9 29.75 9 L 23.25 9 z M 8.5 24 C 6.019 24 4 26.019 4 28.5 L 4 39.5 C 4 40.028301 4.1073293 40.528629 4.2753906 41 L 2.5 41 A 1.50015 1.50015 0 1 0 2.5 44 L 8.5 44 L 27.5 44 L 45.5 44 A 1.50015 1.50015 0 1 0 45.5 41 L 39.865234 41 C 42.32804 39.634631 44 37.009699 44 34 C 44 29.589 40.411 26 36 26 C 35.175 26 34.379859 26.126375 33.630859 26.359375 C 33.865859 27.030375 34 27.749 34 28.5 L 34 39.5 C 34 40.019844 33.916589 40.516128 33.798828 41 L 31.724609 41 C 31.892671 40.528629 32 40.028301 32 39.5 L 32 28.5 C 32 26.019 29.981 24 27.5 24 L 8.5 24 z M 18 32 C 19.105 32 20 32.896 20 34 C 20 35.104 19.105 36 18 36 C 16.895 36 16 35.104 16 34 C 16 32.896 16.895 32 18 32 z"></path>
</svg>
