<svg xmlns="http://www.w3.org/2000/svg" viewBox="0 0 48 48">
  <path d="M24 4C12.97 4 4 12.97 4 24C4 35.03 12.97 44 24 44C35.03 44 44 35.03 44 24C44 19.93 42.779687 16.140469 40.679688 12.980469L37.779297 15.880859C39.189297 18.260859 40 21.04 40 24C40 32.82 32.82 40 24 40C15.18 40 8 32.82 8 24C8 15.18 15.18 8 24 8C26.96 8 29.739141 8.8107031 32.119141 10.220703L35.019531 7.3203125C31.859531 5.2203125 28.07 4 24 4zM40.960938 4.9804688A2.0002 2.0002 0 0 0 39.585938 5.5859375L22.585938 22.585938A2.0002 2.0002 0 1 0 25.414062 25.414062L42.414062 8.4140625A2.0002 2.0002 0 0 0 40.960938 4.9804688zM24 10C16.28 10 10 16.28 10 24C10 31.72 16.28 38 24 38C31.72 38 38 31.72 38 24C38 21.59 37.390312 19.319844 36.320312 17.339844L33.310547 20.349609C33.760547 21.479609 34 22.71 34 24C34 29.51 29.51 34 24 34C18.49 34 14 29.51 14 24C14 18.49 18.49 14 24 14C25.29 14 26.520391 14.239453 27.650391 14.689453L30.660156 11.679688C28.680156 10.609687 26.41 10 24 10zM24 16C19.59 16 16 19.59 16 24C16 28.41 19.59 32 24 32C28.41 32 32 28.41 32 24C32 23.28 31.900469 22.589688 31.730469 21.929688L26.830078 26.830078C26.070078 27.580078 25.07 28 24 28C22.93 28 21.929922 27.580078 21.169922 26.830078C19.609922 25.270078 19.609922 22.729922 21.169922 21.169922L26.070312 16.269531C25.410312 16.099531 24.72 16 24 16z"/>
</svg>
