<svg xmlns="http://www.w3.org/2000/svg" viewBox="0 0 48 48">
  <path d="M21.5 1.5 A 8 8 0 0 0 21.5 17.5 A 8 8 0 0 0 21.5 1.5 z M 15.847656 20 C 13.856656 20 12.017875 21.079359 11.046875 22.818359 C 11.019875 22.868359 10.993656 22.919703 10.972656 22.970703 L 10.134766 24.970703 C 12.429766 25.131703 14.584344 26.035047 16.402344 27.623047 C 16.490344 27.701047 16.831328 27.780766 17.236328 27.634766 C 18.699328 27.103766 20.130156 26.625 21.535156 26.625 C 25.678156 26.625 28.722047 29.477 29.748047 34 L 38.849609 34 L 31.949219 22.644531 C 30.959219 21.013531 29.159 20 27.25 20 L 15.847656 20 z M 9.3964844 26.9375 C 4.2504844 26.9375 0.0625 31.68925 0.0625 37.53125 C 0.0625 43.37325 4.2504844 48.126953 9.3964844 48.126953 C 11.477484 48.126953 13.445891 47.367594 15.087891 45.933594 L 15.087891 45.931641 C 15.779891 45.327641 16.892922 45.175781 17.919922 45.550781 C 19.079922 45.971781 20.35025 46.212891 21.40625 46.212891 C 25.03325 46.212891 27.579922 43.368953 28.044922 39.001953 L 40.117188 39.001953 C 40.353187 39.587953 40.925703 40.001953 41.595703 40.001953 L 46.402344 40.001953 C 47.285344 40.000953 48 39.286297 48 38.404297 L 48 36.595703 C 48 35.714703 47.286297 35 46.404297 35 L 41.595703 35 C 40.925703 35 40.353187 35.414 40.117188 36 L 39.767578 36 L 30.052734 36 L 28.046875 36 C 27.598875 31.474 25.146156 28.625 21.535156 28.625 C 20.457156 28.625 19.210922 29.044672 17.919922 29.513672 C 16.890922 29.885672 15.779891 29.737859 15.087891 29.130859 C 13.444891 27.695859 11.477484 26.9375 9.3964844 26.9375 z M 7 35 L 9 35 L 9 41 L 7 41 L 7 35 z M 17.441406 35.109375 C 18.785406 35.109375 19.875 36.198969 19.875 37.542969 C 19.875 38.886969 18.785406 39.976562 17.441406 39.976562 C 16.097406 39.976562 15.007812 38.886969 15.007812 37.542969 C 15.007812 36.198969 16.097406 35.109375 17.441406 35.109375 z"/>
</svg>
