<svg xmlns="http://www.w3.org/2000/svg" viewBox="0 0 48 48">
  <path d="M43.367 22c-1.026 0-2.152.675-4.546 1.917-1.983 1.03-3.817 2.009-4.982 2.723C33.94 27.078 34 27.532 34 28c0 3.309-2.692 6-6 6h-7.5c-.828 0-1.5-.671-1.5-1.5 0-.829.672-1.5 1.5-1.5H28c1.654 0 3-1.346 3-3 0-.897-.404-1.694-1.03-2.245C29.259 25.285 28.415 25 27.5 25h-4.393H22.5c-.029 0-.056-.007-.085-.009-2.636-.041-3.902-.313-5.015-.558C16.388 24.21 15.432 24 13.827 24c-7.332 0-11.518 9.001-11.692 9.384-.226.496-.165 1.074.158 1.512l7 9.494c.285.387.734.605 1.204.605.095 0 .189-.009.284-.027.566-.108 1.024-.536 1.171-1.093C12.031 43.58 12.795 41 15.5 41c1.952 0 3.971.252 5.924.495C23.413 41.744 25.471 42 27.5 42c2.763 0 4.752-2.119 10.5-8 7.302-7.471 8-8.124 8-9.605C46 23.113 44.875 22 43.367 22M35.535 13.533l-7.438 7.986c-.284.305-.682.478-1.098.478s-.813-.173-1.098-.478l-7.475-8.025C17.521 12.589 17 11.333 17 9.997s.521-2.592 1.465-3.536c1.949-1.947 5.121-1.948 7.07.001L27 7.927l1.465-1.465c1.949-1.949 5.121-1.948 7.07-.001 0 .001 0 .001 0 .001C36.479 7.406 37 8.661 37 9.997S36.479 12.589 35.535 13.533z"/>
</svg>
