<svg xmlns="http://www.w3.org/2000/svg" viewBox="0 0 48 48">
  <path d="M33.635,7.5c-3.306,0-6.413,1.363-8.637,3.721C22.774,8.863,19.666,7.5,16.362,7.5C9.82,7.5,4.498,12.803,4.498,19.322c0,10.322,9.315,16.534,15.479,20.644c1.63,1.087,3.037,2.025,4.062,2.876c0.277,0.23,0.618,0.346,0.958,0.346s0.681-0.115,0.958-0.346c1.025-0.851,2.433-1.79,4.062-2.876c6.164-4.11,15.479-10.321,15.479-20.644C45.498,12.803,40.176,7.5,33.635,7.5z M23.78,18.498c0.387-0.258,0.886-0.211,1.218,0.083c0.332-0.294,0.83-0.341,1.218-0.083c0.46,0.306,0.584,0.927,0.277,1.387l-0.663,0.995c-0.186,0.278-0.498,0.445-0.832,0.445s-0.646-0.167-0.832-0.445l-0.663-0.995C23.196,19.425,23.32,18.804,23.78,18.498z M12.011,24.935C11.874,25,11.729,25.03,11.588,25.03c-0.37,0-0.726-0.208-0.895-0.565c-0.322-0.68-0.572-1.364-0.743-2.034c-0.135-0.529,0.186-1.068,0.715-1.202c0.525-0.136,1.067,0.185,1.203,0.715c0.139,0.546,0.345,1.109,0.612,1.674C12.715,24.111,12.505,24.701,12.011,24.935z M11.901,18.603c-0.139,0.414-0.524,0.676-0.938,0.676c-0.104,0-0.209-0.016-0.313-0.051c-0.519-0.173-0.798-0.733-0.625-1.251c0.243-0.727,0.602-1.407,1.065-2.024c0.327-0.436,0.949-0.524,1.385-0.196c0.437,0.329,0.524,0.949,0.195,1.385C12.335,17.587,12.076,18.079,11.901,18.603z M15.762,29.524c-0.191,0.187-0.44,0.279-0.688,0.279c-0.258,0-0.516-0.101-0.71-0.3c-0.501-0.516-0.964-1.03-1.376-1.528c-0.349-0.421-0.29-1.044,0.131-1.393c0.423-0.349,1.046-0.289,1.393,0.131c0.38,0.458,0.808,0.934,1.272,1.412C16.164,28.517,16.154,29.144,15.762,29.524z M15.358,15.245c-0.1,0.031-0.199,0.046-0.298,0.046c-0.421,0-0.811-0.27-0.943-0.691c-0.164-0.521,0.125-1.077,0.646-1.241c0.724-0.229,1.479-0.345,2.242-0.348c0.001,0,0.002,0,0.003,0c0.545,0,0.987,0.441,0.989,0.986c0.002,0.546-0.44,0.991-0.986,0.992C16.447,14.991,15.892,15.077,15.358,15.245z M20.336,33.31c-0.194,0.256-0.489,0.391-0.788,0.391c-0.208,0-0.419-0.066-0.598-0.202c-0.532-0.404-1.062-0.823-1.583-1.253c-0.422-0.348-0.481-0.971-0.135-1.393c0.347-0.421,0.971-0.482,1.393-0.134c0.502,0.414,1.012,0.815,1.522,1.204C20.582,32.254,20.667,32.875,20.336,33.31z M20.165,15.965c-0.448-0.312-0.56-0.928-0.248-1.376c0.312-0.449,0.927-0.562,1.377-0.248c0.631,0.438,1.185,0.968,1.646,1.576c0.33,0.435,0.245,1.056-0.189,1.386c-0.179,0.136-0.39,0.202-0.598,0.202c-0.299,0-0.594-0.135-0.789-0.391C21.028,16.671,20.625,16.285,20.165,15.965z M27.783,35.836c-0.574,0.391-1.131,0.76-1.657,1.108c-0.004,0.003-0.009,0.003-0.013,0.006c-0.182,0.124-0.369,0.25-0.544,0.372c-0.172,0.119-0.371,0.178-0.57,0.178c-0.2,0-0.399-0.06-0.571-0.179c-0.174-0.121-0.36-0.246-0.541-0.369c-0.005-0.003-0.011-0.004-0.017-0.008c-0.526-0.348-1.083-0.717-1.657-1.108c-0.452-0.307-0.569-0.922-0.263-1.374c0.308-0.452,0.924-0.568,1.374-0.262c0.383,0.26,0.742,0.497,1.106,0.738c0.047,0.022,0.097,0.029,0.141,0.059c0.145,0.098,0.287,0.194,0.428,0.29c0.141-0.096,0.283-0.192,0.428-0.29c0.043-0.029,0.093-0.036,0.14-0.058c0.364-0.241,0.723-0.479,1.107-0.739c0.451-0.307,1.066-0.19,1.374,0.262C28.353,34.914,28.235,35.529,27.783,35.836z M28.631,17.115c-0.195,0.255-0.49,0.39-0.788,0.39c-0.209,0-0.42-0.066-0.599-0.203c-0.435-0.331-0.519-0.952-0.188-1.386c0.464-0.607,1.018-1.137,1.646-1.574c0.448-0.313,1.064-0.202,1.377,0.248c0.312,0.448,0.201,1.065-0.248,1.376C29.373,16.285,28.969,16.672,28.631,17.115z M32.628,32.246c-0.521,0.43-1.051,0.849-1.583,1.253c-0.179,0.136-0.39,0.202-0.598,0.202c-0.299,0-0.594-0.135-0.788-0.391c-0.331-0.435-0.246-1.056,0.188-1.386c0.511-0.389,1.021-0.791,1.522-1.204c0.422-0.349,1.046-0.287,1.393,0.134C33.109,31.275,33.05,31.898,32.628,32.246z M31.999,13.997c0.002-0.545,0.444-0.986,0.989-0.986c0.001,0,0.002,0,0.003,0c0.764,0.002,1.519,0.119,2.242,0.348c0.521,0.165,0.81,0.72,0.646,1.241c-0.133,0.422-0.523,0.691-0.943,0.691c-0.099,0-0.198-0.015-0.298-0.046c-0.533-0.168-1.089-0.254-1.652-0.256C32.439,14.988,31.997,14.543,31.999,13.997z M37.01,27.974c-0.412,0.498-0.875,1.012-1.376,1.528c-0.194,0.2-0.452,0.3-0.71,0.3c-0.248,0-0.497-0.093-0.688-0.279c-0.393-0.38-0.402-1.007-0.021-1.399c0.465-0.479,0.893-0.954,1.272-1.412c0.347-0.42,0.97-0.48,1.393-0.131C37.3,26.93,37.358,27.553,37.01,27.974z M37.521,15.756c0.437-0.329,1.058-0.24,1.385,0.196c0.464,0.617,0.822,1.297,1.065,2.024c0.173,0.518-0.106,1.079-0.625,1.251c-0.104,0.035-0.21,0.051-0.313,0.051c-0.414,0-0.8-0.262-0.938-0.676c-0.175-0.524-0.434-1.016-0.769-1.461C36.997,16.705,37.085,16.085,37.521,15.756z M40.046,22.431c-0.171,0.67-0.421,1.354-0.743,2.034c-0.169,0.357-0.524,0.565-0.895,0.565c-0.142,0-0.286-0.031-0.423-0.096c-0.494-0.234-0.704-0.824-0.47-1.317c0.268-0.564,0.474-1.127,0.612-1.674c0.136-0.53,0.675-0.847,1.203-0.715C39.86,21.363,40.181,21.901,40.046,22.431z"/>
</svg>
