<svg xmlns="http://www.w3.org/2000/svg" viewBox="0 0 48 48">
  <path d="M23.5,30c-0.348,0-0.695-0.12-0.977-0.361l-7-6c-0.629-0.539-0.701-1.486-0.162-2.115s1.485-0.703,2.115-0.162l5.992,5.136 L41.712,9.84C39.437,7.644,36.326,7,33.5,7c-3.672,0-7.146,1.642-9.5,4.394C21.646,8.642,18.172,7,14.5,7 C9.432,7,3.44,9.048,3.039,18.5H3c0,0.235,0.004,0.475,0.011,0.716C3.01,19.314,3,19.4,3,19.5c0,1.131,0.036,1.438,0.249,2.489 c0-0.001,0.012-0.001,0.022-0.002c0.369,2.244,1.193,4.673,2.879,7.243c5.519,8.665,16.653,13.4,17.281,13.657 C23.613,42.963,23.807,43,24,43s0.387-0.037,0.569-0.112C25.403,42.546,45,34.335,45,19.5c0-3.094-0.569-5.443-1.496-7.234 L24.512,29.607C24.226,29.869,23.863,30,23.5,30z"/>
</svg>
