<svg xmlns="http://www.w3.org/2000/svg" viewBox="0 0 48 48">
  <path d="M11.5 10C9.57 10 8 11.57 8 13.5L8 28.5C8 30.43 9.57 32 11.5 32L29.130859 32C29.052859 31.51 29 31.012 29 30.5C29 25.253 33.253 21 38.5 21C39.012 21 39.51 21.052859 40 21.130859L40 13.5C40 11.57 38.43 10 36.5 10L11.5 10zM38.574219 23C38.096344 22.9955 37.606328 23.036 37.111328 23.125C34.126328 23.661 31.705625 26.05125 31.140625 29.03125C30.860625 30.50925 31.026766 31.925594 31.509766 33.183594L23.945312 40.732422C22.723312 41.951422 22.658828 44.013453 23.923828 45.189453C24.504828 45.729453 25.246281 46 25.988281 46C26.764281 46 27.540813 45.704281 28.132812 45.113281L35.783203 37.476562C37.047203 37.969563 38.471937 38.141328 39.960938 37.861328C42.946937 37.299328 45.341953 34.873813 45.876953 31.882812C46.055953 30.878812 46.035656 29.903281 45.847656 28.988281C45.639656 27.973281 44.372672 27.605891 43.638672 28.337891L40.587891 31.380859C40.173891 31.793859 39.631891 32 39.087891 32C38.605891 32 38.122469 31.837719 37.730469 31.511719C36.753469 30.699719 36.797266 29.170437 37.697266 28.273438L40.623047 25.355469C41.359047 24.621469 40.989703 23.347531 39.970703 23.144531C39.518203 23.054531 39.052094 23.0045 38.574219 23zM5.5 33C4.671 33 4 33.671 4 34.5C4 35.329 4.671 36 5.5 36L25.855469 36L28.861328 33L5.5 33z"/>
</svg>
