<svg xmlns="http://www.w3.org/2000/svg" viewBox="0 0 48 48">
  <path d="M10.5 6C7.467 6 5 8.467 5 11.5L5 36.5C5 39.533 7.467 42 10.5 42L37.5 42C40.533 42 43 39.533 43 36.5L43 24.222656A1.50015 1.50015 0 0 0 43 23.742188L43 11.5C43 8.467 40.533 6 37.5 6L10.5 6zM23 9L37.5 9C38.878 9 40 10.122 40 11.5L40 22.484375L34.125 22.496094L36.060547 20.560547A1.50015 1.50015 0 0 0 34.970703 17.986328A1.50015 1.50015 0 0 0 33.939453 18.439453L29.439453 22.939453A1.50015 1.50015 0 0 0 29.439453 25.060547L33.939453 29.560547A1.50015 1.50015 0 1 0 36.060547 27.439453L34.117188 25.496094L40 25.484375L40 36.5C40 37.878 38.878 39 37.5 39L23 39L23 9zM10.5 12L17.5 12C18.329 12 19 12.671 19 13.5C19 14.329 18.329 15 17.5 15L10.5 15C9.671 15 9 14.329 9 13.5C9 12.671 9.671 12 10.5 12zM10.5 17L17.5 17C18.329 17 19 17.671 19 18.5C19 19.329 18.329 20 17.5 20L10.5 20C9.671 20 9 19.329 9 18.5C9 17.671 9.671 17 10.5 17zM10.5 22L17.5 22C18.329 22 19 22.671 19 23.5C19 24.329 18.329 25 17.5 25L10.5 25C9.671 25 9 24.329 9 23.5C9 22.671 9.671 22 10.5 22z"/>
</svg>
