<svg xmlns="http://www.w3.org/2000/svg" viewBox="0 0 48 48">
  <path d="M 10 6 A 2.0002 2.0002 0 1 0 10 10 L 10 11 C 10 16.91962 13.780706 21.840035 19 23.876953 L 19 24.123047 C 13.780618 26.159014 10 31.079618 10 37 L 10 38 A 2.0002 2.0002 0 1 0 10 42 L 12 42 L 36 42 L 38 42 A 2.0002 2.0002 0 1 0 38 38 L 38 37 C 38 31.079618 34.219152 26.15981 29 24.123047 L 29 23.876953 C 34.219524 21.840832 38 16.91962 38 11 L 38 10 A 2.0002 2.0002 0 1 0 38 6 L 36 6 L 12 6 L 10 6 z M 14 10 L 34 10 L 34 11 C 34 15.676016 30.807506 19.559946 26.5 20.669922 A 2.0002 2.0002 0 0 0 25 22.605469 L 25 25.392578 A 2.0002 2.0002 0 0 0 26.5 27.330078 C 30.808035 28.441023 34 32.322821 34 37 L 34 38 L 31.064453 38 C 30.03395 35.088681 27.264274 33 24 33 C 20.735726 33 17.96605 35.088681 16.935547 38 L 14 38 L 14 37 C 14 32.322821 17.192259 28.440114 21.5 27.330078 A 2.0002 2.0002 0 0 0 23 25.394531 L 23 22.607422 A 2.0002 2.0002 0 0 0 21.5 20.669922 C 17.192199 19.559037 14 15.676016 14 11 L 14 10 z M 20 16 C 20 18.209 21.791 20 24 20 C 26.209 20 28 18.209 28 16 L 20 16 z"/>
</svg>
