<svg xmlns="http://www.w3.org/2000/svg" viewBox="0 0 48 48">
  <path d="M20.5 4C18.57 4 17 5.57 17 7.5C17 9.43 18.57 11 20.5 11L27.5 11C29.43 11 31 9.43 31 7.5C31 5.57 29.43 4 27.5 4L20.5 4zM12.5 7C10.019 7 8 9.019 8 11.5L8 38.5C8 40.981 10.019 43 12.5 43L35.5 43C37.981 43 40 40.981 40 38.5L40 11.5C40 9.019 37.981 7 35.5 7L32.974609 7C32.989609 7.165 33 7.331 33 7.5C33 10.532 30.532 13 27.5 13L20.5 13C17.468 13 15 10.532 15 7.5C15 7.331 15.010391 7.165 15.025391 7L12.5 7zM24 16C24.828 16 25.5 16.672 25.5 17.5L25.5 19L27 19C27.828 19 28.5 19.672 28.5 20.5C28.5 21.328 27.828 22 27 22L25.5 22L25.5 23.5C25.5 24.328 24.828 25 24 25C23.172 25 22.5 24.328 22.5 23.5L22.5 22L21 22C20.172 22 19.5 21.328 19.5 20.5C19.5 19.672 20.172 19 21 19L22.5 19L22.5 17.5C22.5 16.672 23.172 16 24 16zM17.5 27L30.5 27C31.328 27 32 27.672 32 28.5C32 29.328 31.328 30 30.5 30L17.5 30C16.672 30 16 29.328 16 28.5C16 27.672 16.672 27 17.5 27zM17.5 32L30.5 32C31.328 32 32 32.672 32 33.5C32 34.328 31.328 35 30.5 35L17.5 35C16.672 35 16 34.328 16 33.5C16 32.672 16.672 32 17.5 32z"/>
</svg>
