<svg xmlns="http://www.w3.org/2000/svg" viewBox="0 0 48 48">
  <path d="M8.5 5C7.672 5 7 5.671 7 6.5L7 8L5.5 8C4.672 8 4 8.672 4 9.5L4 40.5C4 41.328 4.672 42 5.5 42L42.5 42C43.328 42 44 41.328 44 40.5L44 9.5C44 8.672 43.328 8 42.5 8L41 8L41 6.5C41 5.671 40.328 5 39.5 5L30 5C27.545 5 25.369 6.1915312 24 8.0195312C22.631 6.1915312 20.455 5 18 5L8.5 5zM10 8L18 8C20.481 8 22.5 10.019 22.5 12.5L22.5 34.5C22.5 35.329 23.172 36 24 36C24.828 36 25.5 35.329 25.5 34.5L25.5 12.5C25.5 10.019 27.519 8 30 8L38 8L38 36L30 36C27.574 36 25.384 37.17525 24 39.03125C22.616 37.17525 20.426 36 18 36L10 36L10 8zM31.5 14A2 2 0 0 0 31.5 18A2 2 0 0 0 31.5 14zM31.476562 19.978516A1.50015 1.50015 0 0 0 30 21.5L30 29.5A1.50015 1.50015 0 1 0 33 29.5L33 21.5A1.50015 1.50015 0 0 0 31.476562 19.978516z"/>
</svg>
