<svg xmlns="http://www.w3.org/2000/svg" viewBox="0 0 48 48">
  <path d="M24.478516 4A1.50015 1.50015 0 0 0 23.439453 4.4394531L19.439453 8.4394531A1.50015 1.50015 0 1 0 21.560547 10.560547L23 9.1210938L23 14.5A1.50015 1.50015 0 1 0 26 14.5L26 9.1210938L27.439453 10.560547A1.50015 1.50015 0 1 0 29.560547 8.4394531L25.560547 4.4394531A1.50015 1.50015 0 0 0 24.478516 4zM37.478516 10A1.50015 1.50015 0 0 0 36.439453 10.439453L32.439453 14.439453A1.50015 1.50015 0 1 0 34.560547 16.560547L36 15.121094L36 20.5A1.50015 1.50015 0 1 0 39 20.5L39 15.121094L40.439453 16.560547A1.50015 1.50015 0 1 0 42.560547 14.439453L38.560547 10.439453A1.50015 1.50015 0 0 0 37.478516 10zM11.478516 16A1.50015 1.50015 0 0 0 10.439453 16.439453L6.4394531 20.439453A1.50015 1.50015 0 1 0 8.5605469 22.560547L10 21.121094L10 26.5A1.50015 1.50015 0 1 0 13 26.5L13 21.121094L14.439453 22.560547A1.50015 1.50015 0 1 0 16.560547 20.439453L12.560547 16.439453A1.50015 1.50015 0 0 0 11.478516 16zM24.5 18C22.032499 18 20 20.032499 20 22.5L20 39.5C20 41.967501 22.032499 44 24.5 44C26.967501 44 29 41.967501 29 39.5L29 22.5C29 20.032499 26.967501 18 24.5 18zM37.5 24C35.032499 24 33 26.032499 33 28.5L33 39.5C33 41.967501 35.032499 44 37.5 44C39.967501 44 42 41.967501 42 39.5L42 28.5C42 26.032499 39.967501 24 37.5 24zM11.5 30C9.0324991 30 7 32.032499 7 34.5L7 39.5C7 41.967501 9.0324991 44 11.5 44C13.967501 44 16 41.967501 16 39.5L16 34.5C16 32.032499 13.967501 30 11.5 30z"/>
</svg>
