<svg xmlns="http://www.w3.org/2000/svg"  viewBox="0 0 50 50" width="50px" height="50px"><path d="M 26.462891 3.5 C 26.186891 3.5 26 3.724 26 4 L 26 9 L 30.640625 9 C 30.892625 9 31.133359 9.094625 31.318359 9.265625 L 35.355469 13 L 40 13 L 40 4 C 40 3.724 39.739891 3.5 39.462891 3.5 L 26.462891 3.5 z M 24 11 L 24 29 L 33.351562 45.035156 L 34.085938 44.71875 C 38.486937 42.82575 41.55 38.701 42 34 L 36.462891 34 C 35.909891 34 35.462891 33.553 35.462891 33 C 35.462891 32.447 35.909891 32 36.462891 32 L 42 32 L 42 28 L 36.462891 28 C 35.909891 28 35.462891 27.553 35.462891 27 C 35.462891 26.447 35.909891 26 36.462891 26 L 42 26 L 42 22 L 36.462891 22 C 35.909891 22 35.462891 21.553 35.462891 21 C 35.462891 20.447 35.909891 20 36.462891 20 L 42 20 L 42 15 L 34.962891 15 C 34.710891 15 34.468203 14.905375 34.283203 14.734375 L 30.248047 11 L 24 11 z M 14 31 C 13.448 31 13 31.448 13 32 L 13 33 L 8 33 C 7.448 33 7 33.448 7 34 L 7 42 C 7 42.552 7.448 43 8 43 L 13 43 L 13 44 C 13 44.552 13.448 45 14 45 L 31.25 45 L 23 31 L 14 31 z"/></svg>