<svg xmlns="http://www.w3.org/2000/svg" viewBox="0 0 48 48">
  <path d="M24 4C23.251914 4 22.511525 4.041781 21.78125 4.1230469A2.0002 2.0002 0 1 0 22.222656 8.0976562C22.804381 8.0329217 23.398086 8 24 8C32.860089 8 40 15.139911 40 24C40 32.860089 32.860089 40 24 40C23.398086 40 22.804381 39.967084 22.222656 39.902344A2.0002 2.0002 0 0 0 22.023438 39.886719A2.0002 2.0002 0 0 0 21.78125 43.876953C22.457177 43.95217 23.142645 43.990349 23.833984 43.996094A2.0002 2.0002 0 0 0 24 44C35.021911 44 44 35.021911 44 24C44 13.031129 35.107338 4.0897404 24.158203 4.0039062A2.0002 2.0002 0 0 0 24 4zM15.332031 6.3242188L14.212891 6.5703125L13.671875 6.8710938L13.539062 6.953125L12.373047 7.7265625L12.248047 7.8164062L11.148438 8.6757812L11.03125 8.7753906L10.509766 9.2539062L9.859375 10.775391L10.578125 12.267578L12.175781 12.705078L13.208984 12.205078L13.669922 11.783203L14.666016 11.005859L15.679688 10.333984L16.158203 10.064453L17.142578 8.7324219L16.785156 7.1171875L15.332031 6.3242188zM8.2441406 14.607422L6.5996094 14.804688L5.8320312 15.65625L5.6308594 16.083984L5.5683594 16.228516L5.0625 17.554688L5.0117188 17.707031L4.6113281 19.080078L4.5722656 19.236328L4.4121094 20.017578L4.7773438 21.632812L6.2363281 22.417969L7.7851562 21.835938L8.3300781 20.826172L8.4746094 20.119141L8.828125 18.908203L9.28125 17.720703L9.4472656 17.371094L9.4726562 15.714844L8.2441406 14.607422zM31.109375 16.980469A2.0002 2.0002 0 0 0 29.550781 17.623047L21.398438 26.203125L17.345703 22.519531A2.0006761 2.0006761 0 1 0 14.654297 25.480469L20.154297 30.480469A2.0002 2.0002 0 0 0 22.949219 30.376953L32.449219 20.376953A2.0002 2.0002 0 0 0 31.109375 16.980469zM5.7558594 25.677734L4.5253906 26.785156L4.3886719 27.923828L4.40625 28.025391L4.4335938 28.158203L4.7207031 29.333984L4.7578125 29.462891L5.1191406 30.607422L5.1640625 30.732422L5.5976562 31.841797L5.6503906 31.964844L5.828125 32.341797L7.0898438 33.414062L8.7265625 33.167969L9.6171875 31.773438L9.4472656 30.638672L9.3007812 30.328125L8.90625 29.320312L8.5957031 28.335938L8.3359375 27.277344L8.3300781 27.242188L8.3261719 27.236328L8.3203125 27.212891L8.3125 27.214844L7.3984375 25.875L5.7558594 25.677734zM11.632812 35.287109L10.212891 36.138672L9.9199219 37.767578L10.507812 38.751953L10.949219 39.154297L11.048828 39.238281L11.962891 39.970703L12.066406 40.048828L13.027344 40.722656L13.136719 40.792969L14.142578 41.404297L15.787109 41.601562L17.015625 40.492188L16.988281 38.835938L16.21875 37.986328L15.279297 37.416016L14.439453 36.830078L13.609375 36.166016L13.207031 35.798828L11.632812 35.287109z"/>
</svg>
