<svg xmlns="http://www.w3.org/2000/svg" viewBox="0 0 48 48">
  <path d="M33 0C32.988 0 32.978797 0.0068125 32.966797 0.0078125C32.851797 0.0118125 32.738859 0.03121875 32.630859 0.07421875C32.610859 0.08221875 32.594219 0.094515625 32.574219 0.10351562C32.528219 0.12551562 32.481453 0.142875 32.439453 0.171875C32.397453 0.199875 32.363172 0.23553125 32.326172 0.26953125C32.311172 0.28353125 32.29525 0.29554688 32.28125 0.31054688C32.20325 0.39154688 32.142703 0.4849375 32.095703 0.5859375C32.085703 0.6079375 32.077359 0.62934375 32.068359 0.65234375C32.028359 0.76234375 32 0.878 32 1L32 4L32 8.4042969C31.413 8.1532969 30.738 8 30 8C27.757 8 26 9.318 26 11C26 12.682 27.757 14 30 14C32.243 14 34 12.682 34 11L34 5.4765625L37.628906 6.9277344C37.749906 6.9767344 37.875 7 38 7C38.197 7 38.392547 6.942125 38.560547 6.828125C38.834547 6.642125 39 6.332 39 6L39 4.3535156C39 3.1195156 38.259281 2.0273594 37.113281 1.5683594L33.371094 0.0703125C33.263094 0.0273125 33.150109 0.0128125 33.037109 0.0078125C33.024109 0.0078125 33.014 1.4456029e-18 33 0zM21.537109 17C20.960109 17 20.444453 17.321844 20.189453 17.839844C19.935453 18.357844 19.997609 18.961969 20.349609 19.417969L23.423828 23.390625C25.085828 25.539625 26 28.219547 26 30.935547L26 44.5C26 45.327 26.673 46 27.5 46L31.5 46C32.327 46 33 45.327 33 44.5L33 38.142578C33 37.047578 33.787969 36.111766 34.792969 36.009766C35.366969 35.955766 35.917797 36.133578 36.341797 36.517578C36.760797 36.896578 37 37.437 37 38L37 44.5C37 45.327 37.673 46 38.5 46L41.5 46C42.327 46 43 45.327 43 44.5L43 38.263672C43 34.432672 40.393734 31.044984 36.802734 30.208984C35.535734 29.912984 34.266531 29.929906 33.019531 30.253906C33.159531 27.773906 34.053172 25.358625 35.576172 23.390625L38.648438 19.417969C39.001438 18.961969 39.062594 18.356844 38.808594 17.839844C38.554594 17.322844 38.039891 17 37.462891 17L21.537109 17zM14.138672 21.683594C13.068672 21.683594 12.0645 22.054516 11.3125 22.728516C10.658214 23.315695 10.242328 24.092605 10.080078 25.001953A1.50015 1.50015 0 0 0 10 25L7.5 25A1.50015 1.50015 0 1 0 7.5 28L10 28L10 30L7.5 30A1.50015 1.50015 0 1 0 7.5 33L10 33L10 35L7.5 35A1.50015 1.50015 0 1 0 7.5 38L10 38L10 38.5L10 44.5C10 45.327 10.673 46 11.5 46L14.5 46C15.327 46 16 45.327 16 44.5L16 41L15 41C14.448 41 14 40.553 14 40C14 39.447 14.448 39 15 39L16 39L16.974609 39C17.387609 39 17.787266 38.827344 18.072266 38.527344C18.353266 38.231344 18.496562 37.847313 18.476562 37.445312C18.316562 34.375312 17.372969 31.513688 15.667969 28.929688C17.068969 28.305688 18 26.936391 18 25.400391C18 22.961391 16.057672 21.683594 14.138672 21.683594z"/>
</svg>
