<svg xmlns="http://www.w3.org/2000/svg"  viewBox="0 0 48 48" width="48px" height="48px"><path d="M 23.96875 3.9726562 A 2.0002 2.0002 0 0 0 22 6.0019531 L 22.017578 26.183594 L 20.412109 24.583984 A 2.0002 2.0002 0 1 0 17.587891 27.416016 L 22.607422 32.416016 A 2.0002 2.0002 0 0 0 25.435547 32.412109 L 30.416016 27.412109 A 2.0002 2.0002 0 1 0 27.583984 24.587891 L 26.017578 26.160156 L 26 5.9980469 A 2.0002 2.0002 0 0 0 23.96875 3.9726562 z M 17.097656 15.984375 A 2.0002 2.0002 0 0 0 16.019531 16.308594 C 11.811604 18.964653 9.0195314 23.670821 9.0195312 29 C 9.0195312 37.26078 15.758751 44 24.019531 44 C 32.280311 44 39.019531 37.26078 39.019531 29 C 39.019531 23.695007 36.251509 19.008505 32.076172 16.345703 A 2.0002 2.0002 0 1 0 29.923828 19.716797 C 32.986491 21.669995 35.019531 25.082993 35.019531 29 C 35.019531 35.09922 30.118751 40 24.019531 40 C 17.920311 40 13.019531 35.09922 13.019531 29 C 13.019531 25.065179 15.070177 21.639347 18.15625 19.691406 A 2.0002 2.0002 0 0 0 17.097656 15.984375 z"/></svg>