<?xml version="1.0" encoding="UTF-8"?>
<!--Generator: Apple Native CoreSVG 326-->
<!DOCTYPE svg
PUBLIC "-//W3C//DTD SVG 1.1//EN"
       "http://www.w3.org/Graphics/SVG/1.1/DTD/svg11.dtd">
<svg version="1.1" xmlns="http://www.w3.org/2000/svg" xmlns:xlink="http://www.w3.org/1999/xlink" viewBox="0 0 59.3438 62.3672">
 <g>
  <rect height="62.3672" opacity="0" width="59.3438" x="0" y="0"/>
  <path d="M7.35938 49.6875L51.6328 49.6875C56.5078 49.6875 58.9922 47.25 58.9922 42.4219L58.9922 19.8984C58.9922 15.0938 56.5078 12.6562 51.6328 12.6562L7.35938 12.6562C2.4375 12.6562 0 15.0703 0 19.8984L0 42.4219C0 47.25 2.4375 49.6875 7.35938 49.6875ZM8.88281 25.5469C8.22656 25.5469 7.82812 25.125 7.82812 24.4688L7.82812 22.2422C7.82812 21.5859 8.22656 21.1641 8.88281 21.1641L11.1094 21.1641C11.7891 21.1641 12.2109 21.5859 12.2109 22.2422L12.2109 24.4688C12.2109 25.125 11.7891 25.5469 11.1094 25.5469ZM16.6641 25.5469C15.9844 25.5469 15.5859 25.125 15.5859 24.4688L15.5859 22.2422C15.5859 21.5859 15.9844 21.1641 16.6641 21.1641L18.8906 21.1641C19.5469 21.1641 19.9688 21.5859 19.9688 22.2422L19.9688 24.4688C19.9688 25.125 19.5469 25.5469 18.8906 25.5469ZM24.4453 25.5469C23.7891 25.5469 23.3672 25.125 23.3672 24.4688L23.3672 22.2422C23.3672 21.5859 23.7891 21.1641 24.4453 21.1641L26.6484 21.1641C27.3281 21.1641 27.75 21.5859 27.75 22.2422L27.75 24.4688C27.75 25.125 27.3281 25.5469 26.6484 25.5469ZM32.2266 25.5469C31.5703 25.5469 31.1484 25.125 31.1484 24.4688L31.1484 22.2422C31.1484 21.5859 31.5703 21.1641 32.2266 21.1641L34.4531 21.1641C35.1094 21.1641 35.5312 21.5859 35.5312 22.2422L35.5312 24.4688C35.5312 25.125 35.1094 25.5469 34.4531 25.5469ZM40.0078 25.5469C39.3281 25.5469 38.9062 25.125 38.9062 24.4688L38.9062 22.2422C38.9062 21.5859 39.3281 21.1641 40.0078 21.1641L42.2344 21.1641C42.8906 21.1641 43.2891 21.5859 43.2891 22.2422L43.2891 24.4688C43.2891 25.125 42.8906 25.5469 42.2344 25.5469ZM47.7891 25.5469C47.1094 25.5469 46.6875 25.125 46.6875 24.4688L46.6875 22.2422C46.6875 21.5859 47.1094 21.1641 47.7891 21.1641L49.9922 21.1641C50.6719 21.1641 51.0703 21.5859 51.0703 22.2422L51.0703 24.4688C51.0703 25.125 50.6719 25.5469 49.9922 25.5469ZM8.88281 33.3281C8.22656 33.3281 7.82812 32.9062 7.82812 32.25L7.82812 30.0234C7.82812 29.3672 8.22656 28.9453 8.88281 28.9453L11.1094 28.9453C11.7891 28.9453 12.2109 29.3672 12.2109 30.0234L12.2109 32.25C12.2109 32.9062 11.7891 33.3281 11.1094 33.3281ZM16.6641 33.3281C15.9844 33.3281 15.5859 32.9062 15.5859 32.25L15.5859 30.0234C15.5859 29.3672 15.9844 28.9453 16.6641 28.9453L18.8906 28.9453C19.5469 28.9453 19.9688 29.3672 19.9688 30.0234L19.9688 32.25C19.9688 32.9062 19.5469 33.3281 18.8906 33.3281ZM24.4453 33.3281C23.7891 33.3281 23.3672 32.9062 23.3672 32.25L23.3672 30.0234C23.3672 29.3672 23.7891 28.9453 24.4453 28.9453L26.6484 28.9453C27.3281 28.9453 27.75 29.3672 27.75 30.0234L27.75 32.25C27.75 32.9062 27.3281 33.3281 26.6484 33.3281ZM32.2266 33.3281C31.5703 33.3281 31.1484 32.9062 31.1484 32.25L31.1484 30.0234C31.1484 29.3672 31.5703 28.9453 32.2266 28.9453L34.4531 28.9453C35.1094 28.9453 35.5312 29.3672 35.5312 30.0234L35.5312 32.25C35.5312 32.9062 35.1094 33.3281 34.4531 33.3281ZM40.0078 33.3281C39.3281 33.3281 38.9062 32.9062 38.9062 32.25L38.9062 30.0234C38.9062 29.3672 39.3281 28.9453 40.0078 28.9453L42.2344 28.9453C42.8906 28.9453 43.2891 29.3672 43.2891 30.0234L43.2891 32.25C43.2891 32.9062 42.8906 33.3281 42.2344 33.3281ZM47.7891 33.3281C47.1094 33.3281 46.6875 32.9062 46.6875 32.25L46.6875 30.0234C46.6875 29.3672 47.1094 28.9453 47.7891 28.9453L49.9922 28.9453C50.6719 28.9453 51.0703 29.3672 51.0703 30.0234L51.0703 32.25C51.0703 32.9062 50.6719 33.3281 49.9922 33.3281ZM8.88281 41.1094C8.22656 41.1094 7.82812 40.6875 7.82812 40.0312L7.82812 37.8047C7.82812 37.1484 8.22656 36.7266 8.88281 36.7266L11.1094 36.7266C11.7891 36.7266 12.2109 37.1484 12.2109 37.8047L12.2109 40.0312C12.2109 40.6875 11.7891 41.1094 11.1094 41.1094ZM16.9219 41.1094C16.0781 41.1094 15.5859 40.6172 15.5859 39.7734L15.5859 38.0391C15.5859 37.2188 16.0781 36.7266 16.9219 36.7266L41.9766 36.7266C42.7969 36.7266 43.2891 37.2188 43.2891 38.0391L43.2891 39.7734C43.2891 40.6172 42.7969 41.1094 41.9766 41.1094ZM47.7891 41.1094C47.1094 41.1094 46.6875 40.6875 46.6875 40.0312L46.6875 37.8047C46.6875 37.1484 47.1094 36.7266 47.7891 36.7266L49.9922 36.7266C50.6719 36.7266 51.0703 37.1484 51.0703 37.8047L51.0703 40.0312C51.0703 40.6875 50.6719 41.1094 49.9922 41.1094Z" fill="black" fill-opacity="0.85"/>
  <path d="M29.4844 62.3672C30.3984 62.3672 31.5703 61.875 32.5078 61.5469L44.6953 57.0703C45.6094 56.7422 45.9609 55.9219 45.9609 55.3828C45.9609 54.2578 45.1641 53.2969 43.9219 53.2969C43.3359 53.2969 42.4922 53.625 41.9531 53.8359L28.0547 59.0156L30.9609 59.0156L17.0391 53.8359C16.5 53.625 15.7031 53.2969 15.0938 53.2969C13.9219 53.2969 13.0547 54.2109 13.0547 55.3828C13.0547 55.9219 13.3828 56.7422 14.3203 57.0703L26.4844 61.5469C27.4688 61.8984 28.5938 62.3672 29.4844 62.3672Z" fill="black" fill-opacity="0.85"/>
 </g>
</svg>
