<svg xmlns="http://www.w3.org/2000/svg" viewBox="0 0 48 48">
  <path d="M13 1.5C6.925 1.5 2 6.425 2 12.5C2 18.575 6.925 23.5 13 23.5C19.075 23.5 24 18.575 24 12.5C24 6.425 19.075 1.5 13 1.5zM12 5.5C12.552 5.5 13 5.948 13 6.5L13 12.5L18 12.5C18.552 12.5 19 12.948 19 13.5C19 14.052 18.552 14.5 18 14.5L12 14.5C11.448 14.5 11 14.052 11 13.5L11 6.5C11 5.948 11.448 5.5 12 5.5zM24.650391 8C25.190391 9.398 25.5 10.911 25.5 12.5C25.5 19.403 19.904 25 13 25C9.462 25 6.274 23.523156 4 21.160156L4 37L3.5 37C2.672 37 2 37.671 2 38.5C2 39.329 2.672 40 3.5 40L44.5 40C45.328 40 46 39.329 46 38.5C46 37.671 45.328 37 44.5 37L44 37L44 13.5C44 10.467 41.532 8 38.5 8L24.650391 8zM30.5 34L35.5 34C36.328 34 37 34.671 37 35.5C37 36.329 36.328 37 35.5 37L30.5 37C29.672 37 29 36.329 29 35.5C29 34.671 29.672 34 30.5 34z"/>
</svg>
