<svg xmlns="http://www.w3.org/2000/svg" viewBox="0 0 48 48">
  <path d="M21.476562 2.9785156 A 1.50015 1.50015 0 0 0 20 4.5 L 20 5.0703125 C 15.302053 5.4780856 12.054102 7.7527114 10.068359 10.007812 C 7.877209 12.496187 7.0703125 15.046875 7.0703125 15.046875 A 1.50015 1.50015 0 0 0 8.5 17 L 20 17 L 20 22.5 A 1.50015 1.50015 0 1 0 23 22.5 L 23 17 L 34.5 17 A 1.50015 1.50015 0 0 0 35.929688 15.046875 C 35.929688 15.046875 35.122791 12.496186 32.931641 10.007812 C 30.945898 7.7527114 27.697947 5.4780856 23 5.0703125 L 23 4.5 A 1.50015 1.50015 0 0 0 21.476562 2.9785156 z M 38 22 A 3 3 0 0 0 38 28 A 3 3 0 0 0 38 22 z M 16.056641 23 A 2.0002 2.0002 0 0 0 14.400391 23.800781 L 9 31 L 6 31 A 2.0002 2.0002 0 1 0 6 35 L 9.5253906 35 A 2.0002 2.0002 0 0 0 10.400391 35 L 21.330078 35 C 21.35031 35 21.370401 34.998201 21.390625 34.998047 A 3.5 3.5 0 0 0 21.5 35 A 3.5 3.5 0 0 0 21.921875 34.970703 C 22.748743 34.909148 23.563011 34.726329 24.333984 34.414062 L 31.150391 31.654297 A 2.0002 2.0002 0 0 0 32.193359 30.730469 A 3.5 3.5 0 0 0 29.5 25 A 3.5 3.5 0 0 0 28.566406 25.130859 L 28.564453 25.126953 L 28.53125 25.138672 A 3.5 3.5 0 0 0 28.001953 25.339844 L 21 28 L 17.835938 24.113281 L 17.601562 23.800781 A 2.0002 2.0002 0 0 0 16.056641 23 z M 15.998047 28.335938 L 17.992188 31 L 14 31 L 15.998047 28.335938 z M 42.455078 29.992188 A 1.50015 1.50015 0 0 0 41.917969 30.117188 L 23.195312 38 L 9.7460938 38 A 1.50015 1.50015 0 0 0 9.4765625 37.978516 A 1.50015 1.50015 0 0 0 9.2578125 38 L 5.5 38 A 1.50015 1.50015 0 1 0 5.5 41 L 8 41 L 8 43.5 A 1.50015 1.50015 0 1 0 11 43.5 L 11 41 L 23.339844 41 A 1.50015 1.50015 0 0 0 23.619141 41 L 37 41 L 37 43.5 A 1.50015 1.50015 0 1 0 40 43.5 L 40 41 L 42.5 41 A 1.50015 1.50015 0 1 0 42.5 38 L 38.746094 38 A 1.50015 1.50015 0 0 0 38.476562 37.978516 A 1.50015 1.50015 0 0 0 38.257812 38 L 30.929688 38 L 43.082031 32.882812 A 1.50015 1.50015 0 0 0 42.455078 29.992188 z"/>
</svg>
