<svg xmlns="http://www.w3.org/2000/svg" viewBox="0 0 48 48">
<path d="M 40 4 A 3 3 0 0 0 38.5 9.5957031 L 38.5 14 L 5.5 14 A 1.50015 1.50015 0 1 0 5.5 17 L 7.4570312 17 L 8.8144531 20.103516 C 9.8494531 22.470516 12.186531 24 14.769531 24 L 33.230469 24 C 35.813469 24 38.150547 22.471469 39.185547 20.105469 L 40.542969 17 L 42.5 17 A 1.50015 1.50015 0 1 0 42.5 14 L 41.5 14 L 41.5 9.59375 A 3 3 0 0 0 40 4 z M 14 25.943359 L 14 31.765625 C 15.122 32.666625 15.993953 33.864328 16.501953 35.236328 C 17.630953 32.185328 20.561 30 24 30 C 26.964 30 29.551594 31.625344 30.933594 34.027344 C 31.634594 32.606344 32.693 31.392578 34 30.517578 L 34 25.943359 C 33.744 25.966359 33.490469 26 33.230469 26 L 14.769531 26 C 14.509531 26 14.256 25.967359 14 25.943359 z M 9 32 A 6 6 0 0 0 9 44 A 6 6 0 0 0 9 32 z M 24 32 A 6 6 0 0 0 24 44 A 6 6 0 0 0 24 32 z M 39 32 A 6 6 0 0 0 39 44 A 6 6 0 0 0 39 32 z"></path>
</svg>