<svg xmlns="http://www.w3.org/2000/svg" viewBox="0 0 48 48">
  <path d="M34.919922 5.4296875 C 32.954707 5.4296875 30.989736 6.1743261 29.501953 7.6621094 L 24.40625 12.757812 C 21.931571 15.232492 21.637762 18.971243 23.279297 21.890625 L 21.890625 23.279297 C 18.971116 21.637136 15.230807 21.931303 12.755859 24.40625 L 7.6601562 29.501953 C 4.6845898 32.47752 4.6845898 37.364277 7.6601562 40.339844 C 10.636337 43.314679 15.522694 43.315197 18.498047 40.339844 L 23.59375 35.244141 C 26.068697 32.769193 26.362864 29.028884 24.720703 26.109375 L 26.109375 24.720703 C 29.028937 26.361869 32.767685 26.068251 35.242188 23.59375 L 40.337891 18.498047 C 43.313457 15.52248 43.313457 10.637676 40.337891 7.6621094 C 38.850107 6.1743261 36.885137 5.4296875 34.919922 5.4296875 z M 34.919922 9.40625 C 35.853207 9.40625 36.786549 9.767018 37.509766 10.490234 C 38.956199 11.936668 38.956199 14.223488 37.509766 15.669922 L 32.414062 20.765625 C 31.504563 21.675125 30.273179 21.947057 29.117188 21.712891 L 31.785156 19.044922 A 2.0011673 2.0011673 0 1 0 28.955078 16.214844 L 26.287109 18.882812 C 26.053048 17.726809 26.325009 16.495302 27.234375 15.585938 L 32.330078 10.490234 C 33.053295 9.767018 33.986637 9.40625 34.919922 9.40625 z M 18.175781 26.150391 C 18.415361 26.150391 18.644834 26.241402 18.880859 26.289062 L 16.214844 28.955078 A 2.0011673 2.0011673 0 1 0 19.044922 31.785156 L 21.710938 29.119141 C 21.94425 30.274608 21.674498 31.505192 20.765625 32.414062 L 15.667969 37.511719 C 14.221322 38.958365 11.936101 38.956978 10.488281 37.509766 C 9.0430521 36.063267 9.0422494 33.778063 10.488281 32.332031 L 15.585938 27.234375 C 16.309154 26.511158 17.242496 26.150391 18.175781 26.150391 z"/>
</svg>
