<svg xmlns="http://www.w3.org/2000/svg" viewBox="0 0 48 48">
  <path d="M24 1C18.495178 1 14 5.4951777 14 11L14 18.5L14.042969 18.5C10.366894 21.434776 8 25.944099 8 31C8 39.818787 15.181206 47 24 47C32.818794 47 40 39.818787 40 31C40 25.944099 37.633106 21.434776 33.957031 18.5L34 18.5L34 11C34 5.4951777 29.504822 1 24 1zM24 4C27.883178 4 31 7.1168223 31 11L31 16.636719C28.881922 15.599587 26.511904 15 24 15C21.488096 15 19.118078 15.599587 17 16.636719L17 11C17 7.1168223 20.116822 4 24 4zM24 24C26.761 24 29 26.239 29 29C29 31.049 27.764 32.806125 26 33.578125L26 37C26 38.105 25.105 39 24 39C22.895 39 22 38.105 22 37L22 33.578125C20.236 32.806125 19 31.049 19 29C19 26.239 21.239 24 24 24z"/>
</svg>
