<svg xmlns="http://www.w3.org/2000/svg" viewBox="0 0 48 48">
  <path d="M35.773438 5.0429688 C 35.085137 4.9959238 34.371766 5.2492188 33.853516 5.8867188 C 30.562516 9.9347187 28 16.989078 28 25.580078 L 28 26.970703 C 28 28.197703 28.747719 29.300859 29.886719 29.755859 L 33 31.001953 L 33 40.363281 C 33 41.668281 33.939281 42.855328 35.238281 42.986328 C 36.736281 43.136328 38 41.974813 38 40.507812 L 38 7.4042969 C 38 6.0349219 36.920605 5.121377 35.773438 5.0429688 z M 9.4765625 5.9785156 A 1.50015 1.50015 0 0 0 8 7.5 L 8 14.5 L 8 17.5 A 1.50015 1.50015 0 0 0 8.0078125 17.671875 C 8.0772931 20.734459 9.9782271 23.340879 12.662109 24.439453 L 12 39 L 12 39.5 C 12 41.433 13.567 43 15.5 43 C 17.433 43 19 41.433 19 39.5 L 19 39 L 18.337891 24.439453 C 21.022918 23.34041 22.924245 20.732246 22.992188 17.667969 A 1.50015 1.50015 0 0 0 23 17.5 L 23 14.5 L 23 7.5 A 1.50015 1.50015 0 0 0 21.476562 5.9785156 A 1.50015 1.50015 0 0 0 20 7.5 L 20 14.5 C 20 15.328 19.328 16 18.5 16 C 17.672 16 17 15.328 17 14.5 L 17 7.5 A 1.50015 1.50015 0 0 0 15.476562 5.9785156 A 1.50015 1.50015 0 0 0 14 7.5 L 14 14.5 C 14 15.328 13.328 16 12.5 16 C 11.672 16 11 15.328 11 14.5 L 11 7.5 A 1.50015 1.50015 0 0 0 9.4765625 5.9785156 z"/>
</svg>
