<svg xmlns="http://www.w3.org/2000/svg" viewBox="0 0 48 48">
  <path d="M10 8C6.86 8 4.2795313 10.42 4.0195312 13.5L24 24.289062L43.980469 13.5C43.720469 10.42 41.14 8 38 8L10 8zM4 16.890625L4 22L6.5 22C7.33 22 8 22.67 8 23.5C8 24.33 7.33 25 6.5 25L3.5 25C2.67 25 2 25.67 2 26.5C2 27.33 2.67 28 3.5 28L11.5 28C12.33 28 13 28.67 13 29.5C13 30.33 12.33 31 11.5 31L3.5 31C2.67 31 2 31.67 2 32.5C2 33.33 2.67 34 3.5 34L16.5 34C17.33 34 18 34.67 18 35.5C18 36.33 17.33 37 16.5 37L3.5 37C2.67 37 2 37.67 2 38.5C2 39.33 2.67 40 3.5 40L38 40C41.31 40 44 37.31 44 34L44 16.890625L24.710938 27.320312C24.490938 27.440312 24.25 27.5 24 27.5C23.75 27.5 23.509062 27.440313 23.289062 27.320312L4 16.890625z"/>
</svg>
