<svg xmlns="http://www.w3.org/2000/svg" viewBox="0 0 48 48">
  <path d="M42.823,24.921c-2.697-2.221-7.09-1.414-7.135-1.406c-0.537,0.107-1.066-0.251-1.17-0.793c-0.104-0.542,0.249-1.065,0.79-1.17c0.217-0.042,5.345-0.999,8.776,1.817c0.422,0.347,0.791,0.74,1.123,1.166l0.789-12.587c0.032-0.514-0.201-1.008-0.618-1.31c-0.418-0.301-0.96-0.367-1.438-0.176l-1.959,0.787V7.369c0-0.534-0.284-1.027-0.745-1.296c-0.46-0.27-1.03-0.272-1.495-0.009c-6.837,3.877-10.045,8.68-12.908,13.412C26.11,18.565,25.108,18,24,18c-1.121,0-2.132,0.581-2.859,1.511c-2.868-4.743-6.075-9.561-12.929-13.447C7.748,5.8,7.178,5.803,6.718,6.073C6.256,6.342,5.973,6.835,5.973,7.369v3.879l-1.958-0.786c-0.478-0.191-1.021-0.125-1.438,0.176c-0.417,0.302-0.651,0.796-0.619,1.31l0.792,12.636c0.341-0.446,0.725-0.855,1.164-1.215c3.432-2.817,8.559-1.859,8.775-1.817c0.542,0.105,0.895,0.629,0.79,1.17c-0.104,0.542-0.627,0.9-1.17,0.793c-0.044-0.008-4.437-0.816-7.133,1.405c-1.169,0.963-1.863,2.397-2.089,4.26c0.61,6.229,4.688,12.578,10.016,12.578c3.043,0,5.189-1.18,7.082-2.221c1.376-0.757,2.565-1.411,3.813-1.411c1.249,0,2.438,0.654,3.813,1.411c1.894,1.041,4.04,2.221,7.083,2.221c5.345,0,9.42-6.387,10.009-12.635C44.672,27.289,43.98,25.874,42.823,24.921z M11.288,16.968c-2.013,0-4.226,0.536-5.861,2.35l-0.325-5.186l1.812,0.728c0.463,0.186,0.986,0.13,1.399-0.149c0.413-0.279,0.66-0.745,0.66-1.243v-3.395c3.532,2.427,5.815,5.16,7.753,8.057C14.815,17.438,12.895,16.968,11.288,16.968z M18.719,31.671C18.544,31.88,18.286,32,18.013,32c-1.916,0-6.109,0-8.024-0.039c-0.26,0-0.508-0.115-0.675-0.315c-0.167-0.199-0.238-0.463-0.193-0.719c0.502-2.177,2.496-3.803,4.88-3.803c2.384,0,4.378,1.626,4.919,3.795C18.968,31.187,18.894,31.462,18.719,31.671z M24,25c-0.552,0-1-0.896-1-2s0.448-2,1-2c0.552,0,1,0.896,1,2S24.552,25,24,25z M38.982,10.072v3.395c0,0.498,0.247,0.964,0.66,1.243c0.414,0.279,0.938,0.335,1.399,0.149l1.813-0.728l-0.318,5.073c-1.373-1.482-3.313-2.236-5.825-2.236c-1.62,0-3.56,0.467-5.486,1.169C33.164,15.236,35.448,12.502,38.982,10.072z M38.689,31.623C38.505,31.861,38.221,32,37.92,32c-1.909,0-5.861,0-7.8-0.016c-0.309,0-0.6-0.144-0.787-0.39c-0.187-0.246-0.248-0.565-0.166-0.862c0.573-2.078,2.518-3.608,4.831-3.608c2.333,0,4.293,1.557,4.862,3.659C38.936,31.075,38.873,31.385,38.689,31.623z"/>
</svg>
