<svg xmlns="http://www.w3.org/2000/svg" viewBox="0 0 48 48">
  <path d="M14.5 4C13.122 4 12 5.122 12 6.5L12 9.3398438C12 10.592844 12.675672 11.756906 13.763672 12.378906L22.5 17.371094L22.5 17.830078C22.177079 18.071249 21.899943 18.396431 21.712891 18.816406L21.738281 18.761719L18.794922 24.71875L12.126953 25.701172A1.50015 1.50015 0 0 0 12.052734 25.714844C11.279461 25.868709 10.420889 26.525341 10.160156 27.478516C9.8399136 28.458544 10.176436 29.410811 10.736328 29.970703A1.50015 1.50015 0 0 0 10.759766 29.994141L15.591797 34.615234L14.472656 41.117188L14.480469 41.080078C14.298003 41.997085 14.651177 43.026075 15.587891 43.564453C16.361555 44.059979 17.325709 44.052481 17.998047 43.783203A1.50015 1.50015 0 0 0 18.128906 43.722656L24.101562 40.630859L30.074219 43.722656A1.50015 1.50015 0 0 0 30.095703 43.734375C30.609554 43.989664 31.078375 43.96875 31.234375 43.96875C31.80129 43.96875 32.196245 43.782649 32.339844 43.734375A1.50015 1.50015 0 0 0 32.759766 43.513672C33.523608 42.942006 33.970213 42.061379 33.708984 41.009766L33.730469 41.117188L32.613281 34.613281L37.443359 29.992188A1.50015 1.50015 0 0 0 37.824219 29.398438C37.975887 28.95841 38.14986 28.205225 37.800781 27.333984C37.464878 26.495297 36.758101 25.922183 35.986328 25.730469A1.50015 1.50015 0 0 0 35.84375 25.701172L29.175781 24.71875L26.232422 18.761719L26.257812 18.816406C26.075963 18.408114 25.810841 18.088902 25.5 17.849609L25.5 17.371094L34.236328 12.378906C35.324328 11.756906 36 10.592844 36 9.3398438L36 6.5C36 5.122 34.878 4 33.5 4L14.5 4zM23.970703 21.019531A1.50015 1.50015 0 0 0 24.001953 21.021484L26.833984 26.753906A1.50015 1.50015 0 0 0 27.960938 27.572266L34.609375 28.552734L29.962891 32.998047A1.50015 1.50015 0 0 0 29.521484 34.335938L30.601562 40.617188L24.791016 37.609375A1.50015 1.50015 0 0 0 23.412109 37.609375L17.603516 40.617188L18.683594 34.337891A1.50015 1.50015 0 0 0 18.242188 33L13.5625 28.523438L20.009766 27.572266A1.50015 1.50015 0 0 0 21.136719 26.753906L23.970703 21.019531z"/>
</svg>
