<?xml version="1.0" encoding="iso-8859-1"?>
<!-- Generator: Adobe Illustrator 24.2.1, SVG Export Plug-In . SVG Version: 6.00 Build 0)  -->
<svg version="1.1" id="Layer_1" xmlns="http://www.w3.org/2000/svg" xmlns:xlink="http://www.w3.org/1999/xlink" x="0px" y="0px"
	 viewBox="0 0 48 48" style="enable-background:new 0 0 48 48;" xml:space="preserve">
<path d="M33.5,10c-0.171,0-3.5,0-3.5,0h-5V6.789c0.882-0.386,1.5-1.264,1.5-2.289C26.5,3.119,25.381,2,24,2s-2.5,1.119-2.5,2.5
	c0,1.025,0.618,1.903,1.5,2.289V10h-4.5c-3.584,0-6.5,2.916-6.5,6.5s2.916,6.5,6.5,6.5H21v-4h-2.5c-1.379,0-2.5-1.121-2.5-2.5
	s1.121-2.5,2.5-2.5H21h2h2h4h0.92c0.821,0.604,2.112,1,3.58,1c2.485,0,4.5-1.119,4.5-2.5C38,11.119,35.985,10,33.5,10z"/>
<g>
	<path d="M30,38h-5v-4h-2v2v2v4v2v1c0,0.553,0.447,1,1,1s1-0.447,1-1v-3h5c1.104,0,2-0.896,2-2S31.104,38,30,38z"/>
	<path d="M27.5,19H25v-3h-2v1v2v4v2v3c-3.859,0-7,3.141-7,7c0,3.164,2.113,5.842,5,6.705V37.22c-0.609-0.55-1-1.337-1-2.22
		c0-1.654,1.346-3,3-3h2h2.5c3.584,0,6.5-2.916,6.5-6.5S31.084,19,27.5,19z M27.5,28H25v-5h2.5c1.379,0,2.5,1.121,2.5,2.5
		S28.879,28,27.5,28z"/>
</g>
</svg>