<svg xmlns="http://www.w3.org/2000/svg" viewBox="0 0 48 48">
  <path d="M32.5 3C30.57 3 29 4.57 29 6.5L29 17.5C29 19.43 30.57 21 32.5 21L38.5 21C40.43 21 42 19.43 42 17.5L42 6.5C42 4.57 40.43 3 38.5 3L32.5 3zM12.5 7A4 4 0 0 0 12.5 15A4 4 0 0 0 12.5 7zM5.4765625 12.978516A1.50015 1.50015 0 0 0 4 14.5L4 43.5A1.50015 1.50015 0 1 0 7 43.5L7 42L41 42L41 43.5A1.50015 1.50015 0 1 0 44 43.5L44 40.5L44 37.5C44 35.567 42.433 34 40.5 34L7 34L7 14.5A1.50015 1.50015 0 0 0 5.4765625 12.978516zM35.5 15C36.328 15 37 15.672 37 16.5C37 17.328 36.328 18 35.5 18C34.672 18 34 17.328 34 16.5C34 15.672 34.672 15 35.5 15zM14.367188 16C14.083842 16.006088 13.798094 16.041922 13.511719 16.107422C10.883719 16.708422 9.4024688 19.415109 10.230469 21.912109L12.644531 28.115234C13.018531 29.244234 13.669094 30.221 14.496094 31L20 31L20 22.173828L18.833984 19.265625C18.186484 17.3135 16.350607 15.957385 14.367188 16zM23 23L23 31L40.394531 31C40.887531 30.035 41.113312 28.90975 40.945312 27.71875C40.558312 24.97075 38.074781 23 35.300781 23L23 23z"/>
</svg>
