<svg xmlns="http://www.w3.org/2000/svg" viewBox="0 0 48 48">
  <path d="M29.917969 4.7851562 C 27.023469 4.7851563 24.128781 5.8868437 21.925781 8.0898438 L 6.0898438 23.925781 C 1.6828437 28.331781 1.6828437 35.502156 6.0898438 39.910156 C 8.2928437 42.114156 11.188031 43.216797 14.082031 43.216797 C 16.978031 43.216797 19.871219 42.114156 22.074219 39.910156 L 24.888672 37.097656 C 24.323672 35.845656 24 34.461 24 33 C 24 30.213 25.148141 27.69 26.994141 25.875 L 17.689453 16.568359 L 24.046875 10.210938 C 27.284875 6.9749375 32.549109 6.9749375 35.787109 10.210938 C 37.355109 11.778937 38.220703 13.864031 38.220703 16.082031 C 38.220703 18.300031 37.356109 20.385125 35.787109 21.953125 L 34.871094 22.871094 C 34.819094 22.923094 34.780281 22.981109 34.738281 23.037109 C 35.923281 23.124109 37.050937 23.415859 38.085938 23.880859 C 40.104937 21.768859 41.220703 19.014031 41.220703 16.082031 C 41.220703 13.062031 40.044203 10.224844 37.908203 8.0898438 C 35.705203 5.8868438 32.812469 4.7851562 29.917969 4.7851562 z M 34 25 C 29.589 25 26 28.589 26 33 C 26 37.411 29.589 41 34 41 C 38.411 41 42 37.411 42 33 C 42 28.589 38.411 25 34 25 z M 36.5 29 C 36.88375 29 37.267547 29.146453 37.560547 29.439453 C 38.146547 30.025453 38.146547 30.974547 37.560547 31.560547 L 32.560547 36.560547 C 32.267547 36.854547 31.884 37 31.5 37 C 31.116 37 30.732453 36.853547 30.439453 36.560547 C 29.854453 35.974547 29.853453 35.025453 30.439453 34.439453 L 35.439453 29.439453 C 35.732453 29.146453 36.11625 29 36.5 29 z"/>
</svg>
