<svg xmlns="http://www.w3.org/2000/svg" viewBox="0 0 48 48">
  <path d="M 8.5 9 C 6.57 9 5 10.57 5 12.5 L 5 31.5 C 5 33.43 6.57 35 8.5 35 L 39.5 35 C 41.43 35 43 33.43 43 31.5 L 43 12.5 C 43 10.57 41.43 9 39.5 9 L 8.5 9 z M 23 15 L 25 15 C 25.55 15 26 15.45 26 16 L 26 20 L 30 20 C 30.55 20 31 20.45 31 21 L 31 23 C 31 23.55 30.55 24 30 24 L 26 24 L 26 28 C 26 28.55 25.55 29 25 29 L 23 29 C 22.45 29 22 28.55 22 28 L 22 24 L 18 24 C 17.45 24 17 23.55 17 23 L 17 21 C 17 20.45 17.45 20 18 20 L 22 20 L 22 16 C 22 15.45 22.45 15 23 15 z M 2.5 38 A 1.50015 1.50015 0 1 0 2.5 41 L 45.5 41 A 1.50015 1.50015 0 1 0 45.5 38 L 2.5 38 z"/>
</svg>
