<svg xmlns="http://www.w3.org/2000/svg" viewBox="0 0 48 48">
  <path d="M12 3A6 6 0 0 0 12 15A6 6 0 0 0 12 3zM26 3A6 6 0 0 0 26 15A6 6 0 0 0 26 3zM6.5 17C4.6 17 3 18.6 3 20.5L3 30C3 35 7 39 12 39C14.1 39 15.999609 38.299609 17.599609 37.099609C15.999609 35.099609 15 32.7 15 30L15 20.5C15 19.2 15.500781 18 16.300781 17L6.5 17zM20.5 17C18.6 17 17 18.6 17 20.5L17 30C17 33.7 19.200391 36.900781 22.400391 38.300781C22.200391 37.200781 22 36.1 22 35C22 27.8 27.8 22 35 22L35 20.5C35 18.6 33.4 17 31.5 17L20.5 17zM35 24C28.9 24 24 28.9 24 35C24 41.1 28.9 46 35 46C41.1 46 46 41.1 46 35C46 28.9 41.1 24 35 24zM34 28C34.6 28 35 28.4 35 29L35 35L40 35C40.6 35 41 35.4 41 36C41 36.6 40.6 37 40 37L34 37C33.4 37 33 36.6 33 36L33 29C33 28.4 33.4 28 34 28z"/>
</svg>
