<svg xmlns="http://www.w3.org/2000/svg" viewBox="0 0 48 48">
  <path d="M24 6A4 4 0 0 0 24 14A4 4 0 0 0 24 6zM8 8A4 4 0 0 0 8 16A4 4 0 0 0 8 8zM40 8A4 4 0 0 0 40 16A4 4 0 0 0 40 8zM24 17C20.687 17 18 19.687 18 23L18 26L15.5 26A1.50015 1.50015 0 1 0 15.5 29L32.5 29A1.50015 1.50015 0 1 0 32.5 26L30 26L30 23C30 19.687 27.313 17 24 17zM8 19C5.79 19 4 20.79 4 23L4 31C4 33.125 5.657 34.863188 7.75 34.992188C7.832 34.997188 14.5 35.5 14.5 35.5C14.5 35.5 15.004672 41.637125 15.013672 41.703125C15.112672 42.435125 15.741 43 16.5 43C17.328 43 18 42.328 18 41.5L18 33.5C18 32.801 17.520047 32.212875 16.873047 32.046875C16.847047 32.039875 12 31.005859 12 31.005859L12 23C12 20.79 10.21 19 8 19zM40 19C37.79 19 36 20.79 36 23L36 31.005859C36 31.005859 31.152953 32.039875 31.126953 32.046875C30.479953 32.212875 30 32.801 30 33.5L30 41.5C30 42.328 30.672 43 31.5 43C32.259 43 32.887328 42.435125 32.986328 41.703125C32.995328 41.637125 33.5 35.5 33.5 35.5C33.5 35.5 40.168 34.997188 40.25 34.992188C42.343 34.863188 44 33.125 44 31L44 23C44 20.79 42.21 19 40 19z"/>
</svg>
