<svg xmlns="http://www.w3.org/2000/svg" viewBox="0 0 48 48">
  <path d="M24.5 6A3.5 3.5 0 1 0 24.5 13A3.5 3.5 0 1 0 24.5 6zM21 15C20.916 15 20.835906 15.015391 20.753906 15.025391C20.161906 14.923391 19.541891 15.182516 19.212891 15.728516L14.710938 23.228516C14.387937 23.766516 14.434172 24.4475 14.826172 24.9375L16.478516 27L9.6074219 27C7.6774219 27 6.1074219 28.57 6.1074219 30.5L6.1074219 40.5C6.1074219 41.879 7.2284219 43 8.6074219 43C9.9864219 43 11.107422 41.879 11.107422 40.5L11.107422 39.5C11.107422 38.673 11.780422 38 12.607422 38L14.244141 38L13.191406 33.259766C12.929406 32.085766 13.281812 30.876391 14.132812 30.025391L17.095703 27.769531L17.990234 28.888672L15.439453 31.439453C15.077453 31.801453 14.923156 32.326172 15.035156 32.826172L17.035156 41.826172C17.190156 42.524172 17.810047 43 18.498047 43C18.605047 43 18.715219 42.988844 18.824219 42.964844C19.633219 42.784844 20.143844 41.984781 19.964844 41.175781L19.939453 41.060547L20 41L19.111328 33.888672L22 31L26 31L28.888672 33.888672L28 41L28.060547 41.060547L28.035156 41.175781C27.855156 41.984781 28.366781 42.784844 29.175781 42.964844C29.284781 42.988844 29.394953 43 29.501953 43C30.189953 43 30.809844 42.523219 30.964844 41.824219L32.964844 32.824219C33.075844 32.324219 32.922547 31.802453 32.560547 31.439453L30.484375 29.361328L31.769531 27.818359L33.974609 30.023438C34.825609 30.874437 35.178969 32.083813 34.917969 33.257812L33.863281 38L35.5 38C36.327 38 37 38.673 37 39.5L37 40.5C37 41.879 38.121 43 39.5 43C40.879 43 42 41.879 42 40.5L42 30.5C42 28.57 40.43 27 38.5 27L32.451172 27L34.152344 24.960938C34.560344 24.470938 34.613156 23.774516 34.285156 23.228516L29.785156 15.728516C29.457156 15.182516 28.837094 14.924391 28.246094 15.025391C28.165094 15.015391 28.085 15 28 15L21 15zM20 20.248047L20 26.599609L17.822266 23.876953L20 20.248047zM29 20.248047L31.166016 23.857422L29 26.457031L29 20.248047zM22.828125 33L21.216797 34.611328L21.640625 38L26.359375 38L26.783203 34.611328L25.171875 33L22.828125 33z"/>
</svg>
