<svg xmlns="http://www.w3.org/2000/svg"  viewBox="0 0 48 48" width="48px" height="48px"><path d="M 24 4 C 12.972066 4 4 12.972074 4 24 C 4 35.027926 12.972066 44 24 44 C 35.027934 44 44 35.027926 44 24 C 44 12.972074 35.027934 4 24 4 z M 15 21 C 16.657 21 18 22.343 18 24 C 18 25.657 16.657 27 15 27 C 13.343 27 12 25.657 12 24 C 12 22.343 13.343 21 15 21 z M 24 21 C 25.657 21 27 22.343 27 24 C 27 25.657 25.657 27 24 27 C 22.343 27 21 25.657 21 24 C 21 22.343 22.343 21 24 21 z M 33 21 C 34.657 21 36 22.343 36 24 C 36 25.657 34.657 27 33 27 C 31.343 27 30 25.657 30 24 C 30 22.343 31.343 21 33 21 z"/></svg>