<svg xmlns="http://www.w3.org/2000/svg" viewBox="0 0 48 48">
  <path d="M24.5 1.5 A 8 8 0 0 0 24.5 17.5 A 8 8 0 0 0 24.5 1.5 z M 41.476562 1.9785156 A 1.50015 1.50015 0 0 0 40 3.5 L 40 14.5 A 1.50015 1.50015 0 0 0 40.158203 15.191406 C 39.289181 15.616526 38.581907 16.332014 38.207031 17.230469 L 35.792969 23.03125 C 34.442969 22.41825 31.86775 21.332625 29.21875 20.640625 L 25 29.5 L 20.763672 20.603516 C 17.798672 21.312516 14.77225 22.468266 13.28125 23.072266 L 10.912109 17.386719 C 10.056109 15.334719 7.8154531 14.286 5.8144531 15 C 4.7674531 15.373 3.9440938 16.136438 3.4960938 17.148438 C 3.0540937 18.148438 3.0418906 19.300594 3.4628906 20.308594 L 7.6503906 30.359375 C 8.2363906 31.764375 9.7811875 32.506844 11.242188 32.089844 L 16.21875 30.669922 L 14.507812 43.871094 C 14.471813 44.156094 14.558047 44.442203 14.748047 44.658203 C 14.937047 44.875203 15.213 45 15.5 45 L 34.5 45 C 34.788 45 35.062953 44.876156 35.251953 44.660156 C 35.441953 44.444156 35.528187 44.156094 35.492188 43.871094 L 33.816406 30.949219 L 37.810547 32.089844 C 39.269547 32.509844 40.818297 31.767328 41.404297 30.361328 L 45.527344 20.464844 C 46.384344 18.411844 45.551766 16.083063 43.634766 15.164062 C 43.410602 15.056348 43.179343 14.980056 42.945312 14.916016 A 1.50015 1.50015 0 0 0 43 14.5 L 43 3.5 A 1.50015 1.50015 0 0 0 41.476562 1.9785156 z"/>
</svg>
