<svg xmlns="http://www.w3.org/2000/svg" viewBox="0 0 48 48">
  <path d="M6.5 9C4.57 9 3 10.57 3 12.5L3 36L16.960938 36C19.328937 36 22.555078 37.366312 23.955078 40.445312L23.955078 40.488281C23.958078 40.480281 23.962797 40.474797 23.966797 40.466797C23.969797 40.474797 23.975516 40.480281 23.978516 40.488281L23.978516 40.445312C25.378516 37.366312 28.651531 36 31.019531 36L44.978516 36L44.978516 12.5C44.978516 10.57 43.408516 9 41.478516 9L30.978516 9C28.278516 9 24.575 10.856219 24 14.699219L24 14.814453C23.418 10.981453 19.697 9 17 9L6.5 9zM25 19C25.014 19 25.024109 19.007813 25.037109 19.007812C25.150109 19.012812 25.263094 19.027312 25.371094 19.070312L29.113281 20.568359C30.259281 21.027359 31 22.119516 31 23.353516L31 25C31 25.332 30.834547 25.642125 30.560547 25.828125C30.392547 25.942125 30.197 26 30 26C29.875 26 29.749906 25.976734 29.628906 25.927734L26 24.476562L26 30C26 31.682 24.243 33 22 33C19.757 33 18 31.682 18 30C18 28.318 19.757 27 22 27C22.738 27 23.413 27.153297 24 27.404297L24 23L24 20C24 19.878 24.028359 19.762344 24.068359 19.652344C24.077359 19.629344 24.085703 19.607937 24.095703 19.585938C24.142703 19.484938 24.20325 19.391547 24.28125 19.310547C24.29525 19.295547 24.311172 19.283531 24.326172 19.269531C24.363172 19.235531 24.397453 19.199875 24.439453 19.171875C24.481453 19.142875 24.528219 19.125516 24.574219 19.103516C24.594219 19.094516 24.610859 19.082219 24.630859 19.074219C24.738859 19.031219 24.851797 19.011813 24.966797 19.007812C24.978797 19.006812 24.988 19 25 19zM3 38L3 38.5C3 40.43 4.57 42 6.5 42L22.609375 42C21.769375 39.6 19.500937 38 16.960938 38L3 38zM31.039062 38C28.499062 38 26.230625 39.6 25.390625 42L41.5 42C43.43 42 45 40.43 45 38.5L45 38L31.039062 38z"/>
</svg>
