<svg xmlns="http://www.w3.org/2000/svg" viewBox="0 0 48 48">
  <path d="M17 4C16.172 4 15.5 4.671 15.5 5.5L15.5 7L12.5 7C10.019 7 8 9.019 8 11.5L8 38.5C8 40.981 10.019 43 12.5 43L35.5 43C37.981 43 40 40.981 40 38.5L40 11.5C40 9.019 37.981 7 35.5 7L34.5 7L34.5 10.5C34.5 11.052 34.053 11.5 33.5 11.5C32.947 11.5 32.5 11.052 32.5 10.5L32.5 7L32.5 5.5C32.5 4.671 31.828 4 31 4C30.172 4 29.5 4.671 29.5 5.5L29.5 7L27.5 7L27.5 10.5C27.5 11.052 27.053 11.5 26.5 11.5C25.947 11.5 25.5 11.052 25.5 10.5L25.5 7L25.5 5.5C25.5 4.671 24.828 4 24 4C23.172 4 22.5 4.671 22.5 5.5L22.5 7L20.5 7L20.5 10.5C20.5 11.052 20.053 11.5 19.5 11.5C18.947 11.5 18.5 11.052 18.5 10.5L18.5 7L18.5 5.5C18.5 4.671 17.828 4 17 4z M16.5 17L31.5 17C32.328 17 33 17.671 33 18.5C33 19.329 32.328 20 31.5 20L16.5 20C15.672 20 15 19.329 15 18.5C15 17.671 15.672 17 16.5 17z M16.5 25L23.5 25C24.328 25 25 25.671 25 26.5C25 27.329 24.328 28 23.5 28L16.5 28C15.672 28 15 27.329 15 26.5C15 25.671 15.672 25 16.5 25z M16.5 33L27.5 33C28.328 33 29 33.671 29 34.5C29 35.329 28.328 36 27.5 36L16.5 36C15.672 36 15 35.329 15 34.5C15 33.671 15.672 33 16.5 33z"/>
</svg>
