<svg xmlns="http://www.w3.org/2000/svg" viewBox="0 0 48 48">
  <path d="M10.5 6C7.468 6 5 8.468 5 11.5L5 15.5L5 36C5 39.290032 7.7099679 42 11 42L37 42C40.290032 42 43 39.290032 43 36L43 15.5L43 11.5C43 8.468 40.532 6 37.5 6L10.5 6zM10.5 10C11.328 10 12 10.672 12 11.5C12 12.328 11.328 13 10.5 13C9.672 13 9 12.328 9 11.5C9 10.672 9.672 10 10.5 10zM15.5 10C16.328 10 17 10.672 17 11.5C17 12.328 16.328 13 15.5 13C14.672 13 14 12.328 14 11.5C14 10.672 14.672 10 15.5 10zM21.5 10L37.5 10C38.328 10 39 10.672 39 11.5C39 12.328 38.328 13.029297 37.5 13.029297L21.5 13.029297C20.672 13.029297 20 12.329 20 11.5C20 10.671 20.672 10 21.5 10zM9 17L39 17L39 36C39 37.127968 38.127968 38 37 38L11 38C9.8720321 38 9 37.127968 9 36L9 17zM11.25 22C10.56 22 10 22.56 10 23.25L10 28.75C10 29.44 10.56 30 11.25 30L15.5 30L15.5 32.75C15.5 33.44 16.06 34 16.75 34C17.44 34 18 33.44 18 32.75L18 28.75L18 23.25C18 22.56 17.44 22 16.75 22C16.06 22 15.5 22.56 15.5 23.25L15.5 27.5L12.5 27.5L12.5 23.25C12.5 22.56 11.94 22 11.25 22zM24 22C21.519 22 19.5 24.019 19.5 26.5L19.5 29.5C19.5 31.981 21.519 34 24 34C26.481 34 28.5 31.981 28.5 29.5L28.5 26.5C28.5 24.019 26.481 22 24 22zM31.25 22C30.56 22 30 22.56 30 23.25L30 28.75C30 29.44 30.56 30 31.25 30L35.5 30L35.5 32.75C35.5 33.44 36.06 34 36.75 34C37.44 34 38 33.44 38 32.75L38 23.25C38 22.56 37.44 22 36.75 22C36.06 22 35.5 22.56 35.5 23.25L35.5 27.5L32.5 27.5L32.5 23.25C32.5 22.56 31.94 22 31.25 22zM24 24.5C25.103 24.5 26 25.397 26 26.5L26 29.5C26 30.603 25.103 31.5 24 31.5C22.897 31.5 22 30.603 22 29.5L22 26.5C22 25.397 22.897 24.5 24 24.5z"/>
</svg>
