<svg xmlns="http://www.w3.org/2000/svg"  viewBox="0 0 48 48" width="48px" height="48px"><path d="M 11.5 6 C 8.468 6 6 8.467 6 11.5 L 6 36.5 C 6 39.533 8.468 42 11.5 42 L 36.5 42 C 39.532 42 42 39.533 42 36.5 L 42 11.5 C 42 8.467 39.532 6 36.5 6 L 11.5 6 z M 20.5 14 C 21.328 14 22 14.671 22 15.5 L 22 19 L 26 19 L 26 15.5 C 26 14.671 26.672 14 27.5 14 C 28.328 14 29 14.671 29 15.5 L 29 19 L 32.5 19 C 33.328 19 34 19.671 34 20.5 C 34 21.329 33.328 22 32.5 22 L 29 22 L 29 26 L 32.5 26 C 33.328 26 34 26.671 34 27.5 C 34 28.329 33.328 29 32.5 29 L 29 29 L 29 32.5 C 29 33.329 28.328 34 27.5 34 C 26.672 34 26 33.329 26 32.5 L 26 29 L 22 29 L 22 32.5 C 22 33.329 21.328 34 20.5 34 C 19.672 34 19 33.329 19 32.5 L 19 29 L 15.5 29 C 14.672 29 14 28.329 14 27.5 C 14 26.671 14.672 26 15.5 26 L 19 26 L 19 22 L 15.5 22 C 14.672 22 14 21.329 14 20.5 C 14 19.671 14.672 19 15.5 19 L 19 19 L 19 15.5 C 19 14.671 19.672 14 20.5 14 z M 22 22 L 22 26 L 26 26 L 26 22 L 22 22 z"/></svg>