<svg xmlns="http://www.w3.org/2000/svg"  viewBox="0 0 48 48" width="48px" height="48px"><path d="M 20.5 4 C 18.02 4 16 6.02 16 8.5 L 16 13 L 26 13 C 28.21 13 30 14.79 30 17 L 30 27 C 30 29.21 28.21 31 26 31 L 16 31 L 16 39.5 C 16 41.98 18.02 44 20.5 44 L 36.5 44 C 38.98 44 41 41.98 41 39.5 L 41 8.5 C 41 6.02 38.98 4 36.5 4 L 20.5 4 z M 4 16 C 3.45 16 3 16.45 3 17 L 3 27 C 3 27.55 3.45 28 4 28 L 26 28 C 26.55 28 27 27.55 27 27 L 27 17 C 27 16.45 26.55 16 26 16 L 4 16 z M 8 20 C 9.1 20 10 20.9 10 22 C 10 23.1 9.1 24 8 24 C 6.9 24 6 23.1 6 22 C 6 20.9 6.9 20 8 20 z M 15 20 C 16.1 20 17 20.9 17 22 C 17 23.1 16.1 24 15 24 C 13.9 24 13 23.1 13 22 C 13 20.9 13.9 20 15 20 z M 22 20 C 23.1 20 24 20.9 24 22 C 24 23.1 23.1 24 22 24 C 20.9 24 20 23.1 20 22 C 20 20.9 20.9 20 22 20 z M 25.5 36 L 31.5 36 C 32.33 36 33 36.67 33 37.5 C 33 38.33 32.33 39 31.5 39 L 25.5 39 C 24.67 39 24 38.33 24 37.5 C 24 36.67 24.67 36 25.5 36 z"/></svg>