<svg xmlns="http://www.w3.org/2000/svg" viewBox="0 0 48 48">
<path d="M 37.5 4 C 37 4 36.533859 4.2490625 36.255859 4.6640625 C 35.377859 5.9720625 30.999 12.651844 31 15.714844 C 31 17.527844 32.147359 19.381859 33.443359 20.630859 L 32.005859 38.224609 C 31.929859 39.744609 32.465672 41.189016 33.513672 42.291016 C 34.562672 43.393016 35.979 44 37.5 44 C 39.021 44 40.436375 43.393016 41.484375 42.291016 C 42.532375 41.188016 43.069234 39.743734 42.990234 38.177734 L 41.554688 20.599609 C 42.651688 19.483609 44 17.611844 44 15.714844 C 44 12.651844 39.623094 5.9720625 38.746094 4.6640625 C 38.467094 4.2490625 38 4 37.5 4 z M 23.5 5 C 11.294 5 4 13.897 4 22.5 C 4 27.107 7.435 31 11.5 31 C 13.134 31 14.770797 30.664187 16.216797 30.367188 C 17.136797 30.179187 18.005 30 18.5 30 C 20.367 30 20.776922 30.858484 21.419922 34.271484 C 22.074922 37.747484 23.064125 43 30.578125 43 C 30.867125 43 31.163891 42.973406 31.462891 42.941406 C 30.436891 41.553406 29.920766 39.876047 30.009766 38.123047 L 31.376953 21.357422 C 29.874953 19.638422 29 17.584844 29 15.714844 C 28.999 13.411844 30.735578 9.8935937 32.392578 7.0585938 C 29.697578 5.7535938 26.689 5 23.5 5 z M 22.5 10 C 23.881 10 25 11.119 25 12.5 C 25 13.881 23.881 15 22.5 15 C 21.119 15 20 13.881 20 12.5 C 20 11.119 21.119 10 22.5 10 z M 15.5 12 C 16.881 12 18 13.119 18 14.5 C 18 15.881 16.881 17 15.5 17 C 14.119 17 13 15.881 13 14.5 C 13 13.119 14.119 12 15.5 12 z M 11.5 18 C 12.881 18 14 19.119 14 20.5 C 14 21.881 12.881 23 11.5 23 C 10.119 23 9 21.881 9 20.5 C 9 19.119 10.119 18 11.5 18 z M 36.423828 21 L 38.576172 21 L 38.902344 25 L 36.095703 25 L 36.423828 21 z"></path>
</svg>