<svg viewBox="0 0 48 48" xmlns="http://www.w3.org/2000/svg">
<path d="M 9 4 A 4 4 0 0 0 9 12 A 4 4 0 0 0 9 4 z M 39.027344 4 A 4 4 0 0 0 39.027344 12 A 4 4 0 0 0 39.027344 4 z M 21.658203 6.4804688 A 2.0002 2.0002 0 0 0 20.101562 7.1269531 L 13.609375 14 L 10.5 14 L 10.517578 14.027344 C 10.346502 14.012387 10.174665 14 10 14 L 8 14 C 4.7099679 14 2 16.709968 2 20 L 2 31 A 2.0002 2.0002 0 0 0 4 33.027344 L 4 42 A 2.0002 2.0002 0 1 0 8 42 L 8 32 L 10 32 L 10 42 A 2.0002 2.0002 0 1 0 14 42 L 14 33.027344 A 2.0002 2.0002 0 0 0 16 31 L 16 20 L 16 17.292969 L 23.009766 9.8730469 A 2.0002 2.0002 0 0 0 21.658203 6.4804688 z M 26.507812 6.4804688 A 2.0002 2.0002 0 0 0 25.017578 9.8730469 L 32.027344 17.292969 L 32.027344 20 L 32.027344 31 A 2.0002 2.0002 0 0 0 34.027344 33.027344 L 34.027344 42 A 2.0002 2.0002 0 1 0 38.027344 42 L 38.027344 32 L 40.027344 32 L 40.027344 42 A 2.0002 2.0002 0 1 0 44.027344 42 L 44.027344 33.027344 A 2.0002 2.0002 0 0 0 46.027344 31 L 46.027344 20 C 46.027344 16.709968 43.317376 14 40.027344 14 L 38.027344 14 C 37.852679 14 37.680842 14.012387 37.509766 14.027344 L 37.527344 14 L 34.416016 14 L 27.925781 7.1269531 A 2.0002 2.0002 0 0 0 26.507812 6.4804688 z M 24 13 A 4 4 0 0 0 24 21 A 4 4 0 0 0 24 13 z M 23.099609 22 C 20.210704 22 18 24.561258 18 27.5 L 18 35.5 A 1.50015 1.50015 0 0 0 19.740234 37 L 20 37 L 20 42.5 A 1.50015 1.50015 0 1 0 23 42.5 L 23 37 L 25 37 L 25 42.5 A 1.50015 1.50015 0 1 0 28 42.5 L 28 37 L 28.253906 37 A 1.50015 1.50015 0 0 0 30 35.5 L 30 27.5 C 30 24.561258 27.789296 22 24.900391 22 L 23.099609 22 z"></path>
</svg>