<svg xmlns="http://www.w3.org/2000/svg" viewBox="0 0 48 48">
  <path d="M20 4C14.486 4 10 8.486 10 14C10 19.514 14.486 24 20 24C25.514 24 30 19.514 30 14C30 8.486 25.514 4 20 4zM34 18C30.691 18 28 20.691 28 24C28 27.309 30.691 30 34 30C37.309 30 40 27.309 40 24C40 20.691 37.309 18 34 18zM8.5 28C6.019 28 4 30.019 4 32.5L4 33.699219C4 39.475219 11.028 44 20 44C21.875 44 23.657406 43.792734 25.316406 43.427734C23.245406 41.886734 22 39.761797 22 37.341797L22 36.5C22 32.916 24.916 30 28.5 30L28.726562 30C28.076563 29.428 27.520031 28.753 27.082031 28L8.5 28zM28.5 32C26.019 32 24 34.019 24 36.5L24 37.341797C24 41.137797 28.299 44 34 44C39.701 44 44 41.137797 44 37.341797L44 36.5C44 34.019 41.981 32 39.5 32L28.5 32z"/>
</svg>
