<svg xmlns="http://www.w3.org/2000/svg" viewBox="0 0 48 48">
  <path d="M30.31 21H17.69c1.83-5.74 3.17-11.83 3.3-17.53C21.01 2.65 21.66 2 22.48 2h3.04c.82 0 1.47.65 1.49 1.47C27.14 9.17 28.48 15.26 30.31 21zM19.86 33H13.1c1.23-2.75 2.47-5.8 3.59-9h14.62c1.12 3.2 2.36 6.24 3.59 9h-6.76c-.56-1.39-1.31-3.32-1.93-5.29C26.08 27.29 25.7 27 25.26 27h-2.52c-.44 0-.82.29-.95.71C21.17 29.68 20.42 31.61 19.86 33zM40.76 46.25C40.49 46.72 40.01 47 39.47 47c-.01 0-.01 0-.01 0l-4.89-.01c-.52 0-1-.28-1.28-.73C31.46 43.23 28.06 40 24 40s-7.46 3.23-9.29 6.26c-.28.46-.76.73-1.28.73L8.54 47c-.54 0-1.03-.28-1.3-.75-.27-.46-.28-1.01-.02-1.48.98-1.75 2.66-4.84 4.51-8.77h24.54c1.85 3.93 3.52 7.03 4.5 8.77C41.04 45.23 41.03 45.79 40.76 46.25z"/>
</svg>
