<svg xmlns="http://www.w3.org/2000/svg" viewBox="0 0 48 48">
  <path d="M24 4C18.556727 4 13.611893 6.1873196 10 9.7285156L10 8A2.0002 2.0002 0 0 0 7.9707031 5.9726562A2.0002 2.0002 0 0 0 6 8L6 15A2.0002 2.0002 0 0 0 7.9199219 16.996094A2.0002 2.0002 0 0 0 8.8222656 17L15 17A2.0002 2.0002 0 1 0 15 13L12.388672 13C15.301199 9.9245705 19.415571 8 24 8C32.860089 8 40 15.139911 40 24C40 32.860089 32.860089 40 24 40C15.139911 40 8 32.860089 8 24A2.0002 2.0002 0 1 0 4 24C4 35.021911 12.978089 44 24 44C35.021911 44 44 35.021911 44 24C44 12.978089 35.021911 4 24 4z M23.970703 12.972656A2.0002 2.0002 0 0 0 22 15L22 26A2.0002 2.0002 0 0 0 24 28L31 28A2.0002 2.0002 0 1 0 31 24L26 24L26 15A2.0002 2.0002 0 0 0 23.970703 12.972656z"/>
</svg>
