<svg xmlns="http://www.w3.org/2000/svg" viewBox="0 0 48 48">
  <path d="M15 4A4 4 0 0 0 15 12A4 4 0 0 0 15 4zM33 10C28.589 10 25 13.589 25 18C25 20.959 26.619625 23.542781 29.015625 24.925781L29.015625 37C29.015625 37.277 29.124313 37.542281 29.320312 37.738281L32.275391 40.693359C32.683391 41.101359 33.344906 41.101359 33.753906 40.693359L36.708984 37.738281C37.116984 37.330281 37.116984 36.669719 36.708984 36.261719L35.230469 34.783203L36.708984 33.304688C37.116984 32.896687 37.116984 32.234172 36.708984 31.826172L35.230469 30.349609L36.708984 28.871094C37.116984 28.463094 37.116984 27.800578 36.708984 27.392578L35.041016 25.724609C38.4641 24.820989 41 21.704347 41 18C41 13.589 37.411 10 33 10zM14.5 14C11.480226 14 9 16.480226 9 19.5L9 31A1.50015 1.50015 0 0 0 10 32.433594L10 42.5A1.50015 1.50015 0 1 0 13 42.5L13 32L17 32L17 42.5A1.50015 1.50015 0 1 0 20 42.5L20 32.433594A1.50015 1.50015 0 0 0 21 31L21 19.5C21 16.480226 18.519774 14 15.5 14L14.5 14zM33 14C34.105 14 35 14.895 35 16C35 17.105 34.105 18 33 18C31.896 18 31 17.105 31 16C31 14.895 31.895 14 33 14z"/>
</svg>
