<svg xmlns="http://www.w3.org/2000/svg" viewBox="0 0 48 48">
  <path d="M24 4C23.672 4 23.344766 4.1063125 23.072266 4.3203125L8.859375 15.519531C7.054375 16.941531 6 19.113109 6 21.412109L6 37.5C6 40.538 8.462 43 11.5 43L36.5 43C39.538 43 42 40.538 42 37.5L42 21.410156C42 19.112156 40.947578 16.941531 39.142578 15.519531L24.929688 4.3203125C24.657187 4.1063125 24.328 4 24 4zM27.449219 18C29.035219 18 30.550844 18.617234 31.714844 19.740234C32.861844 20.869234 33.492 22.365891 33.5 23.962891C33.508 25.575891 32.881328 27.098094 31.736328 28.246094C31.517328 28.466094 28.235906 31.759047 26.253906 33.748047L24.769531 35.236328C23.564531 36.397328 22.101625 37 20.515625 37C18.906625 37 17.396672 36.373328 16.263672 35.236328C15.137672 34.129328 14.508 32.633109 14.5 31.037109C14.492 29.423109 15.117672 27.901906 16.263672 26.753906C16.347672 26.654906 17.161125 25.834203 19.703125 23.283203C21.154125 21.828203 22.959578 20.017359 23.142578 19.818359C23.162578 19.797359 23.19775 19.760234 23.21875 19.740234C24.38375 18.617234 25.886219 18 27.449219 18zM27.498047 21.025391C26.724297 21.017016 25.943172 21.294953 25.326172 21.876953C25.081172 22.135953 24.252234 22.971234 22.115234 25.115234L26.375 29.375C27.952 27.792 29.462375 26.277906 29.609375 26.128906C30.188375 25.548906 30.504 24.783563 30.5 23.976562C30.496 23.185562 30.184094 22.443625 29.621094 21.890625C29.037094 21.328125 28.271797 21.033766 27.498047 21.025391z"/>
</svg>
