<svg xmlns="http://www.w3.org/2000/svg" viewBox="0 0 48 48">
<path d="M 12.470703 6.296875 C 12.138703 6.301 11.808266 6.3886406 11.509766 6.5566406 C 10.379766 7.1936406 10.140484 8.7179219 11.021484 9.6699219 L 19.423828 18.75 L 11.732422 22.111328 L 6.9960938 19.332031 C 6.4110938 18.989031 5.6918906 18.967391 5.0878906 19.275391 C 4.0448906 19.805391 3.6826406 21.119375 4.3066406 22.109375 L 6.9863281 26.361328 C 8.4763281 28.725328 11.47125 29.645391 14.03125 28.525391 L 41.96875 16.298828 C 43.68375 15.548828 44.465797 13.548984 43.716797 11.833984 C 42.965797 10.118984 40.966953 9.3359375 39.251953 10.085938 L 28.748047 14.675781 L 13.4375 6.53125 C 13.135 6.37075 12.802703 6.29275 12.470703 6.296875 z M 7.5 38 A 1.50015 1.50015 0 1 0 7.5 41 L 40.5 41 A 1.50015 1.50015 0 1 0 40.5 38 L 7.5 38 z"></path>
</svg>