<svg xmlns="http://www.w3.org/2000/svg"  viewBox="0 0 48 48" width="48px" height="48px"><path d="M 11.5 6 C 8.4802259 6 6 8.4802259 6 11.5 L 6 36.5 C 6 39.519774 8.4802259 42 11.5 42 L 36.5 42 C 39.519774 42 42 39.519774 42 36.5 L 42 11.5 C 42 8.4802259 39.519774 6 36.5 6 L 11.5 6 z M 18.455078 16.154297 C 18.708328 16.146922 18.963266 16.204625 19.197266 16.328125 L 31.251953 22.673828 C 31.746953 22.933828 32.054688 23.442 32.054688 24 C 32.054687 24.558 31.746953 25.066172 31.251953 25.326172 L 19.197266 31.671875 C 18.977266 31.787875 18.737047 31.845703 18.498047 31.845703 C 18.231047 31.845703 17.964609 31.773906 17.724609 31.628906 C 17.270609 31.354906 17 30.87375 17 30.34375 L 17 17.65625 C 17 17.12625 17.270609 16.645094 17.724609 16.371094 C 17.951609 16.234094 18.201828 16.161672 18.455078 16.154297 z"/></svg>