<svg xmlns="http://www.w3.org/2000/svg" viewBox="0 0 48 48">
<path d="M 18.5 4 C 17.686424 4 16.970423 4.3968449 16.513672 5 L 15.197266 5 C 12.132758 5 9.4692182 7.1603781 8.8378906 10.160156 L 7.0664062 18.572266 C 7.0662759 18.572884 7.0665364 18.5736 7.0664062 18.574219 L 4.0761719 32.779297 C 3.8571719 33.815297 4.1152031 34.883078 4.7832031 35.705078 C 5.4502031 36.527078 6.4419531 37 7.5019531 37 L 40.498047 37 C 41.558047 37 42.548797 36.528078 43.216797 35.705078 C 43.884797 34.883078 44.142828 33.815297 43.923828 32.779297 L 40.933594 18.572266 C 40.497594 16.502266 38.645297 15 36.529297 15 L 12.927734 15 L 12.464844 17.205078 C 12.364844 17.676078 11.949328 18 11.486328 18 C 11.418328 18 11.348297 17.992516 11.279297 17.978516 C 10.739297 17.865516 10.392812 17.334922 10.507812 16.794922 L 10.873047 15.052734 L 11.773438 10.779297 C 12.11611 9.1510751 13.533773 8 15.197266 8 L 16.513672 8 C 16.970423 8.6031551 17.686424 9 18.5 9 L 31.5 9 C 32.879 9 34 7.879 34 6.5 C 34 5.121 32.879 4 31.5 4 L 18.5 4 z M 13.904297 21 L 34.095703 21 C 34.804703 21 35.4155 21.497406 35.5625 22.191406 L 37.037109 29.191406 C 37.130109 29.634406 37.019375 30.094312 36.734375 30.445312 C 36.449375 30.796312 36.020359 31 35.568359 31 L 12.431641 31 C 11.979641 31 11.550625 30.796312 11.265625 30.445312 C 10.981625 30.093312 10.869891 29.633406 10.962891 29.191406 L 12.4375 22.191406 C 12.5835 21.497406 13.195297 21 13.904297 21 z M 19 39 L 19 42.5 C 19 43.328 19.672 44 20.5 44 L 27.5 44 C 28.328 44 29 43.328 29 42.5 L 29 39 L 19 39 z"></path>
</svg>