<svg xmlns="http://www.w3.org/2000/svg" viewBox="0 0 48 48">
  <path d="M22.541016 4.0957031C22.277323 4.0910623 22.009427 4.1178181 21.740234 4.1777344L21.740234 4.1757812L8.5234375 7.1132812C6.4728994 7.5691225 5 9.4069339 5 11.507812L5 36.492188C5 38.593573 6.4735774 40.431028 8.5234375 40.886719L21.740234 43.824219L21.740234 43.822266C23.893773 44.301643 26 42.611755 26 40.40625L26 7.59375C26 5.663933 24.386864 4.1281887 22.541016 4.0957031zM29 8L29 9.5L29 11L29 16.429688C29.62 16.149687 30.29 16 31 16L31 21L36 21C36 23.74 33.74 26 31 26C30.29 26 29.62 25.850312 29 25.570312L29 32L36.5 32C37.33 32 38 32.67 38 33.5C38 34.33 37.33 35 36.5 35L29 35L29 38L29 39.5L29 41L38.5 41C40.967501 41 43 38.967501 43 36.5L43 12.5C43 10.032499 40.967501 8 38.5 8L29 8zM33 14C34.33 14 35.599062 14.530937 36.539062 15.460938C37.469062 16.400937 38 17.67 38 19L33 19L33 14zM12.5 17L16 17C18.757 17 21 19.243 21 22C21 24.757 18.757 27 16 27L14 27L14 30.5C14 31.329 13.328 32 12.5 32C11.672 32 11 31.329 11 30.5L11 18.5C11 17.671 11.672 17 12.5 17zM14 20L14 24L16 24C17.103 24 18 23.103 18 22C18 20.897 17.103 20 16 20L14 20z"/>
</svg>
