<svg xmlns="http://www.w3.org/2000/svg" viewBox="0 0 48 48">
  <path d="M16.5 5C14.032499 5 12 7.0324991 12 9.5L12 11L10.5 11C6.916 11 4 13.916 4 17.5L4 31.5C4 33.981 6.019 36 8.5 36L12 36L12 38.5C12 40.967501 14.032499 43 16.5 43L31.5 43C33.967501 43 36 40.967501 36 38.5L36 36L39.5 36C41.981 36 44 33.981 44 31.5L44 17.5C44 13.916 41.084 11 37.5 11L36 11L36 9.5C36 7.0324991 33.967501 5 31.5 5L16.5 5zM16.5 8L31.5 8C32.346499 8 33 8.6535009 33 9.5L33 11L15 11L15 9.5C15 8.6535009 15.653501 8 16.5 8zM16.5 28L31.5 28C32.346499 28 33 28.653501 33 29.5L33 38.5C33 39.346499 32.346499 40 31.5 40L16.5 40C15.653501 40 15 39.346499 15 38.5L15 29.5C15 28.653501 15.653501 28 16.5 28z"/>
</svg>
