<svg xmlns="http://www.w3.org/2000/svg" viewBox="0 0 48 48">
  <path d="M6.78125 1.78125 A 1.50015 1.50015 0 0 0 5.7363281 4.3574219 L 7.1503906 5.7714844 A 1.50015 1.50015 0 1 0 9.2714844 3.6503906 L 7.8574219 2.2363281 A 1.50015 1.50015 0 0 0 6.78125 1.78125 z M 36 2 C 35.156 2 34.337688 2.1076406 33.554688 2.3066406 C 33.163688 2.4056406 32.883937 2.7513438 32.835938 3.1523438 L 32.738281 3.9511719 C 32.682281 4.4201719 32.409 4.8362656 32 5.0722656 C 31.591 5.3082656 31.094156 5.3383438 30.660156 5.1523438 L 29.927734 4.8398438 C 29.556734 4.6818437 29.117937 4.7490625 28.835938 5.0390625 C 27.697937 6.2090625 26.839859 7.6535781 26.380859 9.2675781 C 26.270859 9.6565781 26.430906 10.073406 26.753906 10.316406 L 27.400391 10.800781 C 27.778391 11.083781 28 11.528 28 12 C 28 12.472 27.778391 12.916219 27.400391 13.199219 L 26.755859 13.683594 C 26.432859 13.925594 26.271813 14.343422 26.382812 14.732422 C 26.841812 16.346422 27.696938 17.790938 28.835938 18.960938 C 29.116937 19.249938 29.558688 19.319156 29.929688 19.160156 L 30.660156 18.847656 C 31.094156 18.661656 31.592 18.692734 32 18.927734 C 32.408 19.162734 32.682281 19.579828 32.738281 20.048828 L 32.835938 20.849609 C 32.883938 21.250609 33.163688 21.596312 33.554688 21.695312 C 34.338688 21.893313 35.156 22 36 22 C 36.844 22 37.662312 21.892359 38.445312 21.693359 C 38.836312 21.594359 39.116063 21.248656 39.164062 20.847656 L 39.259766 20.046875 C 39.315766 19.577875 39.590047 19.163734 39.998047 18.927734 C 40.406047 18.691734 40.903891 18.661656 41.337891 18.847656 L 42.070312 19.160156 C 42.441313 19.319156 42.880109 19.249937 43.162109 18.960938 C 44.300109 17.790937 45.158187 16.346422 45.617188 14.732422 C 45.727187 14.343422 45.567141 13.926594 45.244141 13.683594 L 44.599609 13.199219 C 44.221609 12.916219 44 12.472 44 12 C 44 11.528 44.221609 11.083781 44.599609 10.800781 L 45.244141 10.316406 C 45.567141 10.074406 45.728187 9.6565781 45.617188 9.2675781 C 45.158187 7.6535781 44.303062 6.2090625 43.164062 5.0390625 C 42.883063 4.7500625 42.441313 4.6808438 42.070312 4.8398438 L 41.339844 5.1523438 C 40.905844 5.3383437 40.409 5.3082656 40 5.0722656 C 39.591 4.8362656 39.317719 4.4201719 39.261719 3.9511719 L 39.164062 3.1503906 C 39.116062 2.7503906 38.836312 2.4036875 38.445312 2.3046875 C 37.661312 2.1066875 36.844 2 36 2 z M 24 4.0214844 C 16.283 4.0244844 10 10.282 10 18 C 10 21.864 11.605047 25.529297 14.373047 28.154297 C 15.427047 29.153297 16.099063 30.48925 16.414062 31.90625 L 16.880859 34 L 31.119141 34 L 31.585938 31.90625 C 31.900938 30.48925 32.573953 29.153297 33.626953 28.154297 C 34.894953 26.952297 35.903625 25.524797 36.640625 23.966797 C 36.427625 23.978797 36.216 24 36 24 C 29.373 24 24 18.627 24 12 C 24 9.07 25.052875 6.3886875 26.796875 4.3046875 C 25.892875 4.1206875 24.958 4.0214844 24 4.0214844 z M 36 9 C 37.657 9 39 10.343 39 12 C 39 13.657 37.657 15 36 15 C 34.343 15 33 13.657 33 12 C 33 10.343 34.343 9 36 9 z M 1.5 15 A 1.50015 1.50015 0 1 0 1.5 18 L 4.5 18 A 1.50015 1.50015 0 1 0 4.5 15 L 1.5 15 z M 39.773438 26.773438 A 1.50015 1.50015 0 0 0 38.728516 29.349609 L 40.142578 30.763672 A 1.50015 1.50015 0 1 0 42.263672 28.642578 L 40.849609 27.228516 A 1.50015 1.50015 0 0 0 39.773438 26.773438 z M 8.1816406 26.775391 A 1.50015 1.50015 0 0 0 7.1503906 27.228516 L 5.7363281 28.642578 A 1.50015 1.50015 0 1 0 7.8574219 30.763672 L 9.2714844 29.349609 A 1.50015 1.50015 0 0 0 8.1816406 26.775391 z M 17.546875 37 L 18.492188 41.259766 C 18.848187 42.861766 20.270156 44 21.910156 44 L 26.089844 44 C 27.729844 44 29.151813 42.861766 29.507812 41.259766 L 30.453125 37 L 17.546875 37 z"/>
</svg>
