<svg xmlns="http://www.w3.org/2000/svg" viewBox="0 0 48 48">
  <path d="M 7.5 4 C 5.019 4 3 6.019 3 8.5 L 3 32.025391 C 3.838 31.390391 4.87 31 6 31 L 8.5 31 C 9.879 31 11 29.879 11 28.5 L 11 10 L 11 6.5 C 11 5.121 9.879 4 8.5 4 L 7.5 4 z M 13 10 L 13 28.5 C 13 30.985 10.985 33 8.5 33 L 6 33 C 4.351 33 3.0019531 34.349047 3.0019531 35.998047 L 3.0019531 36.013672 C 3.0019531 37.651672 4.3385625 38.995047 5.9765625 38.998047 C 6.5075625 38.999047 7.0789219 39 7.6699219 39 L 35.5 39 C 37.985 39 40 36.985 40 34.5 L 40 14.5 C 40 12.015 37.985 10 35.5 10 L 13 10 z M 42 15.275391 L 42 34.5 C 42 38.084 39.084 41 35.5 41 L 8.2753906 41 C 8.8963906 42.742 10.547 44 12.5 44 L 35.5 44 C 40.738 44 45 39.738 45 34.5 L 45 19.5 C 45 17.547 43.742 15.897391 42 15.275391 z M 27.5 17 L 31.5 17 C 32.328 17 33 17.672 33 18.5 L 33 22.5 C 33 23.328 32.328 24 31.5 24 C 30.672 24 30 23.328 30 22.5 L 30 22.121094 L 26.560547 25.560547 C 26.267547 25.854547 25.884 26 25.5 26 C 25.116 26 24.732453 25.853547 24.439453 25.560547 L 21.5 22.621094 L 18.560547 25.560547 C 17.974547 26.146547 17.025453 26.146547 16.439453 25.560547 C 15.853453 24.974547 15.853453 24.025453 16.439453 23.439453 L 20.439453 19.439453 C 21.025453 18.853453 21.974547 18.853453 22.560547 19.439453 L 25.5 22.378906 L 27.878906 20 L 27.5 20 C 26.672 20 26 19.328 26 18.5 C 26 17.672 26.672 17 27.5 17 z M 17.5 29 L 31.5 29 C 32.328 29 33 29.672 33 30.5 C 33 31.328 32.328 32 31.5 32 L 17.5 32 C 16.672 32 16 31.328 16 30.5 C 16 29.672 16.672 29 17.5 29 z"/>
</svg>
