<svg xmlns="http://www.w3.org/2000/svg" viewBox="0 0 48 48">
  <path d="M24.048828 2A1.50015 1.50015 0 0 0 22.998047 2.3847656C22.998047 2.3847656 15.490168 9 6.5 9A1.50015 1.50015 0 0 0 5 10.5L5 22.759766C5 29.437814 8.0894135 40.426402 23.417969 46.882812A1.50015 1.50015 0 0 0 24.582031 46.882812C39.910586 40.426403 43 29.437814 43 22.759766L43 10.5A1.50015 1.50015 0 0 0 41.5 9C32.509832 9 25.001953 2.3847656 25.001953 2.3847656A1.50015 1.50015 0 0 0 24.048828 2zM31.498047 18C31.881797 18 32.265594 18.146453 32.558594 18.439453C33.144594 19.024453 33.144594 19.975547 32.558594 20.560547L22.558594 30.560547C22.267594 30.853547 21.884 31 21.5 31C21.116 31 20.732453 30.853547 20.439453 30.560547L15.439453 25.560547C14.853453 24.975547 14.853453 24.024453 15.439453 23.439453C16.025453 22.853453 16.974547 22.853453 17.560547 23.439453L21.498047 27.378906L30.4375 18.439453C30.7305 18.146453 31.114297 18 31.498047 18z"/>
</svg>
