<svg xmlns="http://www.w3.org/2000/svg" viewBox="0 0 48 48">
  <path d="M14.5 4C12.02 4 10 6.02 10 8.5L10 39.5C10 41.98 12.02 44 14.5 44L29.5 44C31.98 44 34 41.98 34 39.5L34 27L30.710938 27L25.660156 31.25L25.539062 31.349609C24.939062 31.769609 24.24 32 23.5 32C22.94 32 22.390391 31.869375 21.900391 31.609375C20.730391 31.009375 20 29.82 20 28.5L20 15C20 11.69 22.69 9 26 9L34 9L34 8.5C34 6.02 31.98 4 29.5 4L14.5 4z M25.5 11C23.585045 11 22 12.585045 22 14.5L22 24.5L22 28.5A1.50015 1.50015 0 0 0 24.460938 29.652344L30.042969 25L38.5 25C40.414955 25 42 23.414955 42 21.5L42 14.5C42 12.585045 40.414955 11 38.5 11L25.5 11zM19.5 36L24.5 36C25.329 36 26 36.672 26 37.5C26 38.328 25.329 39 24.5 39L19.5 39C18.671 39 18 38.328 18 37.5C18 36.672 18.671 36 19.5 36z"/>
</svg>
