<svg xmlns="http://www.w3.org/2000/svg" viewBox="0 0 48 48">
  <path d="M 21.498047 4 C 11.643047 4 2.9980469 11.927844 2.9980469 20.964844 L 2.9980469 28.035156 C 2.9980469 37.072156 11.643047 45 21.498047 45 C 31.353047 45 39.998047 37.072156 39.998047 28.035156 L 39.998047 28 L 39 28 L 30.998047 28 L 27.998047 28 C 27.998047 31.532 25.325047 34 21.498047 34 C 17.610047 34 14.998047 31.603156 14.998047 28.035156 L 14.998047 20.964844 C 14.998047 17.590844 17.336906 15.266437 20.878906 15.023438 C 20.919906 15.018437 20.956047 15 20.998047 15 L 28.769531 15 L 37 15 L 38.701172 15 C 35.943172 8.71 29.089047 4 21.498047 4 z M 23.498047 17 C 22.670047 17 21.998047 17.672 21.998047 18.5 L 21.998047 30.5 C 21.998047 31.328 22.670047 32 23.498047 32 C 24.326047 32 24.998047 31.328 24.998047 30.5 L 24.998047 18.5 C 24.998047 17.672 24.326047 17 23.498047 17 z M 28 17 L 28 20 L 31 20 L 31 17 L 28 17 z M 31 20 L 31 23 L 34 23 L 34 20 L 31 20 z M 34 20 L 37 20 L 37 17 L 34 17 L 34 20 z M 37 20 L 37 23 L 40 23 L 40 20 L 37 20 z M 40 20 L 41.998047 20 L 41.998047 23 L 40 23 L 40 26 L 41.998047 26 L 41.998047 30.5 C 41.998047 31.328 42.670047 32 43.498047 32 C 44.326047 32 44.998047 31.328 44.998047 30.5 L 44.998047 18.5 C 44.998047 17.672 44.326047 17 43.498047 17 C 43.322583 17 43.156543 17.036352 43 17.091797 L 43 17 L 40 17 L 40 20 z M 37 23 L 34 23 L 34 26 L 37 26 L 37 23 z M 31 23 L 28 23 L 28 26 L 31 26 L 31 23 z M 28 23 L 28 20 L 25 20 L 25 23 L 28 23 z"/>
</svg>
