<svg xmlns="http://www.w3.org/2000/svg"  viewBox="0 0 48 48" width="48px" height="48px"><path d="M 39.96875 6.0136719 C 21.358814 6.295737 6.295737 21.358814 6.0136719 39.96875 A 2.0002442 2.0002442 0 1 0 10.013672 40.03125 C 10.263607 23.541186 23.541186 10.263607 40.03125 10.013672 A 2.0002442 2.0002442 0 1 0 39.96875 6.0136719 z M 39.962891 12.013672 C 24.670728 12.297239 12.297239 24.670687 12.013672 39.962891 A 2.0002 2.0002 0 1 0 16.011719 40.037109 C 16.256152 26.855313 26.855313 16.256152 40.037109 16.011719 A 2.0002 2.0002 0 1 0 39.962891 12.013672 z M 39.951172 18.025391 C 27.983912 18.314684 18.314684 27.98387 18.025391 39.951172 A 2.000596 2.000596 0 0 0 22.025391 40.048828 C 22.264098 30.174126 30.17413 22.264098 40.048828 22.025391 A 2.000596 2.000596 0 0 0 39.951172 18.025391 z M 40.072266 24.023438 A 2.0002 2.0002 0 0 0 39.931641 24.025391 C 31.292449 24.32067 24.32067 31.292449 24.025391 39.931641 A 2.0002 2.0002 0 1 0 28.023438 40.068359 C 28.248158 33.493551 33.493551 28.248158 40.068359 28.023438 A 2.0002 2.0002 0 0 0 40.072266 24.023438 z"/></svg>