<svg xmlns="http://www.w3.org/2000/svg" viewBox="0 0 48 48">
  <path d="M40.5,25.5h3.44c-0.73,9.85-8.59,17.71-18.44,18.44V40.5c0-0.83-0.67-1.5-1.5-1.5c-0.83,0-1.5,0.67-1.5,1.5v3.44 C12.65,43.21,4.79,35.35,4.06,25.5H7.5C8.33,25.5,9,24.83,9,24c0-0.83-0.67-1.5-1.5-1.5H4.06C4.79,12.65,12.65,4.79,22.5,4.06V7.5 C22.5,8.33,23.17,9,24,9c0.83,0,1.5-0.67,1.5-1.5V4.06c4.89,0.36,9.3,2.49,12.58,5.74L24,23.88l-6.44-6.44 c-0.59-0.59-1.53-0.59-2.12,0c-0.59,0.59-0.59,1.53,0,2.12l7.5,7.5c0.29,0.29,0.68,0.44,1.06,0.44s0.77-0.15,1.06-0.44l14.99-14.99 c2.2,2.95,3.6,6.53,3.89,10.43H40.5c-0.83,0-1.5,0.67-1.5,1.5C39,24.83,39.67,25.5,40.5,25.5z"/>
</svg>
