<svg xmlns="http://www.w3.org/2000/svg" viewBox="0 0 48 48">
  <path d="M12.5 4 C 10.019 4 8 6.019 8 8.5 L 8 39.5 C 8 41.981 10.019 44 12.5 44 L 25.101562 44 C 25.035563 43.677 25 43.342 25 43 L 25 42 C 25 40.346 26.346 39 28 39 L 28 31.810547 L 26.675781 33.134766 C 26.604781 34.174766 25.748453 35 24.689453 35 C 23.630453 35 22.773125 34.174766 22.703125 33.134766 L 19.689453 30.121094 L 16.675781 33.134766 C 16.605781 34.174766 15.748453 35 14.689453 35 C 13.584453 35 12.689453 34.105 12.689453 33 C 12.689453 31.942 13.514688 31.083672 14.554688 31.013672 L 17.701172 27.865234 C 17.773172 26.824234 18.631453 26 19.689453 26 C 20.747453 26 21.605781 26.825234 21.675781 27.865234 L 24.689453 30.878906 L 28 27.568359 L 28 27 C 28 24.794 29.794 23 32 23 L 40 23 L 40 20 L 28.5 20 C 26.019 20 24 17.981 24 15.5 L 24 4 L 12.5 4 z M 27 4.8789062 L 27 15.5 C 27 16.327 27.673 17 28.5 17 L 39.121094 17 L 27 4.8789062 z M 32 25 C 30.895 25 30 25.895 30 27 L 30 38.978516 L 39 38.978516 C 40.661 38.978516 42.012 40.336 42 42 L 42 43.021484 C 41.996 43.566484 42.456 44 43 44 L 44 44 C 45.105 44 46 43.105 46 42 L 46 27 C 46 25.895 45.105 25 44 25 L 32 25 z M 28 41 C 27.448 41 27 41.448 27 42 L 27 43 C 27 44.657 28.343 46 30 46 L 43 46 C 41.343 46 40 44.657 40 43 L 40 42 C 40 41.448 39.552 41 39 41 L 28 41 z" />
</svg>
