<svg xmlns="http://www.w3.org/2000/svg" viewBox="0 0 48 48">
  <path d="M11.998047 4 A 4 4 0 0 0 11.998047 12 A 4 4 0 0 0 11.998047 4 z M 17.119141 4 C 17.983141 5.104 18.498047 6.493 18.498047 8 C 18.498047 9.805 17.760359 11.438187 16.568359 12.617188 C 18.957359 14.028187 20.499 16.619047 20.5 19.498047 L 20.5 26 L 32.5 26 C 33.329 26 34 26.672 34 27.5 C 34 28.328 33.329 29 32.5 29 L 20.5 29 L 20.5 33 L 28.5 33 C 29.329 33 30 33.672 30 34.5 C 30 35.328 29.329 36 28.5 36 L 19.498047 36 L 19.498047 44 L 37.5 44 C 39.985 44 42 41.985 42 39.5 L 42 20 L 30.5 20 C 28.015 20 26 17.985 26 15.5 L 26 4 L 17.119141 4 z M 29 4.8789062 L 29 15.5 C 29 16.327 29.673 17 30.5 17 L 41.121094 17 L 29 4.8789062 z M 10.119141 14.181641 C 7.7531406 14.795641 5.9980469 16.945 5.9980469 19.5 L 5.9980469 31 C 5.9980469 31.651684 6.4168456 32.201367 6.9980469 32.408203 L 6.9980469 42.5 A 1.50015 1.50015 0 1 0 9.9980469 42.5 L 9.9980469 32 L 13.998047 32 L 13.998047 42.5 A 1.50015 1.50015 0 1 0 16.998047 42.5 L 16.998047 32.408203 C 17.580441 32.202009 18 31.652536 18 31 L 18 19.5 C 17.999 16.945 16.244906 14.795641 13.878906 14.181641 L 12.498047 16.25 L 13.998047 23 L 11.998047 25 L 9.9980469 23 L 11.498047 16.25 L 10.119141 14.181641 z" />
</svg>
