<svg xmlns="http://www.w3.org/2000/svg" viewBox="0 0 48 48">
  <path d="M24 6C14.972684 6 7.4880476 12.703287 6.2128906 21.384766L4.4140625 19.585938A2.0002 2.0002 0 0 0 2.9785156 18.980469A2.0002 2.0002 0 0 0 1.5859375 22.414062L6.5859375 27.414062A2.0002 2.0002 0 0 0 9.4140625 27.414062L14.414062 22.414062A2.0002 2.0002 0 1 0 11.585938 19.585938L10.380859 20.791016C11.826078 14.594436 17.350706 10 24 10C31.756241 10 38 16.243759 38 24C38 31.756241 31.756241 38 24 38C19.173607 38 14.942675 35.571971 12.421875 31.873047A2.0002 2.0002 0 1 0 9.1171875 34.126953C12.356387 38.880029 17.828393 42 24 42C33.917759 42 42 33.917759 42 24C42 14.082241 33.917759 6 24 6zM24 19C21.243 19 19 21.243 19 24C19 26.757 21.243 29 24 29C26.757 29 29 26.757 29 24C29 21.243 26.757 19 24 19z"/>
</svg>
