<svg xmlns="http://www.w3.org/2000/svg" viewBox="0 0 48 48">
  <path d="M10.5 6C7.462 6 5 8.462 5 11.5L5 36.5C5 39.538 7.462 42 10.5 42L24.056641 42C23.280641 40.789 22.702328 39.441 22.361328 38L11 38C9.895 38 9 37.105 9 36L9 15L39 15L39 22.634766C40.466 23.108766 41.813 23.838578 43 24.767578L43 11.5C43 8.462 40.538 6 37.5 6L10.5 6zM10.5 9C11.328 9 12 9.672 12 10.5C12 11.328 11.328 12 10.5 12C9.672 12 9 11.328 9 10.5C9 9.775 9.5142656 9.17125 10.197266 9.03125C10.298266 9.01825 10.396 9 10.5 9zM15.5 9C16.328 9 17 9.672 17 10.5C17 11.328 16.328 12 15.5 12C14.672 12 14 11.328 14 10.5C14 9.672 14.672 9 15.5 9zM35 24C28.925 24 24 28.925 24 35C24 41.075 28.925 46 35 46C41.075 46 46 41.075 46 35C46 28.925 41.075 24 35 24zM35 28C35.48 28 35.908453 28.305766 36.064453 28.759766L37.177734 32L40.875 32C41.358 32 41.787406 32.308625 41.941406 32.765625C42.095406 33.223625 41.939687 33.729484 41.554688 34.021484L38.560547 36.292969L39.574219 39.539062C39.720219 40.005063 39.548391 40.510969 39.150391 40.792969C38.955391 40.930969 38.727 41 38.5 41C38.263 41 38.025172 40.925391 37.826172 40.775391L35 38.660156L32.173828 40.775391C31.783828 41.068391 31.248609 41.076922 30.849609 40.794922C30.451609 40.512922 30.279781 40.005063 30.425781 39.539062L31.439453 36.294922L28.445312 34.021484C28.060312 33.729484 27.904594 33.225578 28.058594 32.767578C28.213594 32.309578 28.642 32 29.125 32L32.822266 32L33.935547 28.759766C34.091547 28.305766 34.52 28 35 28z"/>
</svg>
