<svg xmlns="http://www.w3.org/2000/svg" viewBox="0 0 48 48">
  <path d="M15.5 5C13.57 5 12 6.57 12 8.5L12 13.931641L6.3027344 17.339844C5.7847344 17.649844 5.348 18.058297 5 18.529297L12 21.957031L12 21.960938L15 23.419922L15 11C16.66 11 18 9.66 18 8L30 8C30 9.66 31.34 11 33 11L33 23.419922L36 21.960938L36 21.955078L43 18.529297C42.652 18.058297 42.215266 17.649844 41.697266 17.339844L36 13.931641L36 8.5C36 6.57 34.43 5 32.5 5L15.5 5zM24 10A2 2 0 0 0 24 14A2 2 0 0 0 24 10zM24 18C20.18 18 17.069766 20.860625 17.009766 24.390625L17 24.400391L17.009766 24.410156L24 27.830078L30.990234 24.410156L31 24.400391L30.990234 24.390625C30.930234 20.860625 27.82 18 24 18zM4 21.439453L4 36.5C4 40.08 6.92 43 10.5 43L37.5 43C41.08 43 44 40.08 44 36.5L44 21.439453L24.660156 30.849609C24.450156 30.950609 24.22 31 24 31C23.78 31 23.549844 30.950609 23.339844 30.849609L4 21.439453z"/>
</svg>
