<svg xmlns="http://www.w3.org/2000/svg"  viewBox="0 0 48 48" width="48px" height="48px"><path d="M18.027 23c-.019 0-.036 0-.055 0-.012 0-.023 0-.035 0C12.45 22.952 8 18.484 8 13s4.45-9.952 9.938-10c.02-.001.041 0 .062 0 .021.001.041 0 .062 0C23.55 3.048 28 7.516 28 13s-4.45 9.952-9.938 10C18.05 23 18.039 23 18.027 23zM45.572 41.457l-9-15C36.03 25.553 35.054 25 34 25s-2.03.553-2.572 1.457l-9 15c-.556.927-.571 2.081-.039 3.021C22.922 45.418 23.919 46 25 46h18c1.081 0 2.078-.582 2.611-1.522C46.143 43.538 46.128 42.383 45.572 41.457zM33 30c0-.552.448-1 1-1s1 .448 1 1v8c0 .552-.448 1-1 1s-1-.448-1-1V30zM34 43.25c-.69 0-1.25-.56-1.25-1.25s.56-1.25 1.25-1.25 1.25.56 1.25 1.25S34.69 43.25 34 43.25zM20.821 40.427l8.033-13.388C28.734 27.026 28.618 27 28.495 27H6.722C4.67 27 3 28.785 3 30.979V32.5c0 3.281 1.696 6.132 4.776 8.027C10.367 42.122 13.82 43 17.5 43c.037 0 .072-.004.108-.004.037 0 .072.004.108.004.814 0 1.614-.05 2.399-.134C20.138 42.019 20.371 41.177 20.821 40.427z"/></svg>