<svg xmlns="http://www.w3.org/2000/svg" viewBox="0 0 48 48">
  <path d="M9.5 4C6.467 4 4 6.468 4 9.5L4 33.5C4 35.632 5.222 37.479578 7 38.392578L7 9.5C7 8.121 8.122 7 9.5 7L32.349609 7L29.34375 4.3710938C29.07075 4.1320937 28.720422 4 28.357422 4L9.5 4z M14.5 9C11.467 9 9 11.468 9 14.5L9 38.5C9 41.532 11.467 44 14.5 44L15 44L15 31.5C15 29.57 16.57 28 18.5 28L34.5 28C36.43 28 38 29.57 38 31.5L38 44L38.5 44C41.533 44 44 41.532 44 38.5L44 18.5C44 18.067 43.813281 17.656094 43.488281 17.371094L34.345703 9.3710938C34.242703 9.2810938 34.121 9.2220625 34 9.1640625L34 18.5C34 20.43 32.43 22 30.5 22L19.5 22C17.57 22 16 20.43 16 18.5L16 9L14.5 9z M19 9L19 18.5C19 18.775 19.224 19 19.5 19L30.5 19C30.776 19 31 18.775 31 18.5L31 9L19 9z M18.5 31C18.224 31 18 31.225 18 31.5L18 44L35 44L35 31.5C35 31.225 34.776 31 34.5 31L18.5 31z"/>
</svg>
