<svg xmlns="http://www.w3.org/2000/svg" viewBox="0 0 48 48">
  <path d="M11.5 6C8.467 6 6 8.467 6 11.5L6 36.5C6 39.533 8.467 42 11.5 42L12 42L12 27.5C12 25.57 13.57 24 15.5 24L32.5 24C34.43 24 36 25.57 36 27.5L36 42L36.5 42C39.533 42 42 39.533 42 36.5L42 15.5C42 15.072 41.816094 14.663906 41.496094 14.378906L32.496094 6.3789062C32.350094 6.2489063 32.181 6.1557969 32 6.0917969L32 14.5C32 16.43 30.43 18 28.5 18L16.5 18C14.57 18 13 16.43 13 14.5L13 6L11.5 6z M16 6L16 14.5C16 14.776 16.224 15 16.5 15L28.5 15C28.776 15 29 14.776 29 14.5L29 6L16 6z M15.5 27C15.224 27 15 27.224 15 27.5L15 42L33 42L33 27.5C33 27.224 32.776 27 32.5 27L15.5 27z"/>
</svg>
