<svg xmlns="http://www.w3.org/2000/svg" viewBox="0 0 48 48">
  <path d="M11.5 0C5.1664891 0 0 5.1664939 0 11.5C0 17.833506 5.1664891 23 11.5 23C17.833511 23 23 17.833506 23 11.5C23 5.1664939 17.833511 0 11.5 0zM11.5 3C16.212192 3 20 6.7878114 20 11.5C20 16.212189 16.212192 20 11.5 20C6.7878084 20 3 16.212189 3 11.5C3 6.7878114 6.7878084 3 11.5 3zM11.476562 4.9785156A1.50015 1.50015 0 0 0 10 6.5L10 11.5A1.50015 1.50015 0 0 0 10.439453 12.560547L12.439453 14.560547A1.50015 1.50015 0 1 0 14.560547 12.439453L13 10.878906L13 6.5A1.50015 1.50015 0 0 0 11.476562 4.9785156zM23.820312 6C24.572312 7.681 25 9.539 25 11.5C25 12.355 24.911766 13.189 24.759766 14L42 14L42 12.5C42 8.916 39.084 6 35.5 6L23.820312 6zM23.820312 17C21.713313 21.712 16.995 25 11.5 25C9.539 25 7.681 24.572312 6 23.820312L6 35.5C6 39.084 8.916 42 12.5 42L35.5 42C39.084 42 42 39.084 42 35.5L42 17L23.820312 17zM24 22C25.381 22 26.5 23.119 26.5 24.5C26.5 25.881 25.381 27 24 27C22.619 27 21.5 25.881 21.5 24.5C21.5 23.119 22.619 22 24 22zM32.5 22C33.881 22 35 23.119 35 24.5C35 25.881 33.881 27 32.5 27C31.119 27 30 25.881 30 24.5C30 23.119 31.119 22 32.5 22zM15.5 31C16.881 31 18 32.119 18 33.5C18 34.881 16.881 36 15.5 36C14.119 36 13 34.881 13 33.5C13 32.119 14.119 31 15.5 31zM24 31C25.381 31 26.5 32.119 26.5 33.5C26.5 34.881 25.381 36 24 36C22.619 36 21.5 34.881 21.5 33.5C21.5 32.119 22.619 31 24 31z"/>
</svg>
