<svg xmlns="http://www.w3.org/2000/svg" viewBox="0 0 48 48">
  <path d="M10 6C7.243 6 5 8.243 5 11C5 13.757 7.243 16 10 16C12.757 16 15 13.757 15 11C15 8.243 12.757 6 10 6zM20 9A2.0002 2.0002 0 1 0 20 13L41.5 13A2.0002 2.0002 0 1 0 41.5 9L20 9zM10 19C7.243 19 5 21.243 5 24C5 26.757 7.243 29 10 29C12.757 29 15 26.757 15 24C15 21.243 12.757 19 10 19zM20 22A2.0002 2.0002 0 1 0 20 26L41.5 26A2.0002 2.0002 0 1 0 41.5 22L20 22zM35 28C31.151772 28 28 31.151775 28 35C28 38.848225 31.151772 42 35 42C36.377137 42 37.591509 41.493569 38.677734 40.798828L43.439453 45.560547A1.50015 1.50015 0 1 0 45.560547 43.439453L40.798828 38.677734C41.493568 37.591508 42 36.377136 42 35C42 31.151775 38.848228 28 35 28zM35 31C37.226909 31 39 32.773093 39 35C39 37.226907 37.226909 39 35 39C32.773091 39 31 37.226907 31 35C31 32.773093 32.773091 31 35 31zM10 32C7.243 32 5 34.243 5 37C5 39.757 7.243 42 10 42C12.757 42 15 39.757 15 37C15 34.243 12.757 32 10 32zM20 35C18.896 35 18 35.896 18 37C18 38.104 18.896 39 20 39L26.947266 39C26.346266 37.794 26 36.439 26 35L20 35z"/>
</svg>
