<svg xmlns="http://www.w3.org/2000/svg" viewBox="0 0 48 48">
  <path d="M8.5 11C5.468 11 3 13.467 3 16.5L3 31.5C3 34.533 5.468 37 8.5 37L39.5 37C42.532 37 45 34.533 45 31.5L45 16.5C45 13.467 42.532 11 39.5 11L8.5 11zM30.5 16C34.084 16 37 18.916 37 22.5C37 23.749 36.639391 24.912297 36.025391 25.904297L39.560547 29.439453C40.146547 30.025453 40.145547 30.974547 39.560547 31.560547C39.267547 31.853547 38.884 32 38.5 32C38.116 32 37.732453 31.853547 37.439453 31.560547L33.904297 28.027344C32.912297 28.640344 31.749 29 30.5 29C26.916 29 24 26.084 24 22.5C24 18.916 26.916 16 30.5 16zM30.5 19A3.5 3.5 0 1 0 30.5 26A3.5 3.5 0 1 0 30.5 19z"/>
</svg>
