<svg xmlns="http://www.w3.org/2000/svg" viewBox="0 0 48 48">
  <path d="M12.5 5 C 10.019 5 8 7.019 8 9.5 L 8 38.5 C 8 40.981 10.019 43 12.5 43 L 29.669922 43 C 26.321922 41.382 24 37.961 24 34 C 24 28.486 28.486 24 34 24 C 36.252 24 38.326 24.758531 40 26.019531 L 40 9.5 C 40 7.019 37.981 5 35.5 5 L 12.5 5 z M 15.5 12 L 30.5 12 C 31.329 12 32 12.671 32 13.5 C 32 14.329 31.329 15 30.5 15 L 15.5 15 C 14.671 15 14 14.329 14 13.5 C 14 12.671 14.671 12 15.5 12 z M 15.5 19 L 30.5 19 C 31.329 19 32 19.671 32 20.5 C 32 21.329 31.329 22 30.5 22 L 15.5 22 C 14.671 22 14 21.329 14 20.5 C 14 19.671 14.671 19 15.5 19 z M 15.5 26 L 21.5 26 C 22.329 26 23 26.671 23 27.5 C 23 28.329 22.329 29 21.5 29 L 15.5 29 C 14.671 29 14 28.329 14 27.5 C 14 26.671 14.671 26 15.5 26 z M 34 26 C 29.589 26 26 29.589 26 34 C 26 38.411 29.589 42 34 42 C 35.665 42 37.210187 41.487281 38.492188 40.613281 L 43.439453 45.560547 C 43.732453 45.854547 44.116 46 44.5 46 C 44.884 46 45.267547 45.853547 45.560547 45.560547 C 46.145547 44.974547 46.145547 44.025453 45.560547 43.439453 L 40.615234 38.492188 C 41.488234 37.210187 42 35.665 42 34 C 42 29.589 38.411 26 34 26 z M 34 29 C 36.757 29 39 31.243 39 34 C 39 36.757 36.757 39 34 39 C 31.243 39 29 36.757 29 34 C 29 31.243 31.243 29 34 29 z M 15.5 33 L 22.050781 33 C 22.022781 33.331 22 33.662 22 34 C 22 34.683 22.071641 35.348 22.181641 36 L 15.5 36 C 14.671 36 14 35.329 14 34.5 C 14 33.671 14.671 33 15.5 33 z"/>
</svg>
