<svg xmlns="http://www.w3.org/2000/svg" viewBox="0 0 48 48">
  <path d="M12.5 6C9.467 6 7 8.467 7 11.5L7 14.5C7 16.077 7.6693281 17.496 8.7363281 18.5C7.6693281 19.504 7 20.923 7 22.5L7 25.5C7 27.077 7.6693281 28.496 8.7363281 29.5C7.6693281 30.504 7 31.923 7 33.5L7 36.5C7 39.533 9.467 42 12.5 42L28.240234 42C27.667234 41.125 27.169109 40.128 26.787109 39L12.5 39C11.122 39 10 37.878 10 36.5L10 36L26.113281 36C26.039281 35.366 26 34.699 26 34L26 28L12.5 28C11.122 28 10 26.878 10 25.5L10 25L28.783203 25C28.856203 24.995 28.926 24.978516 29 24.978516C29.003 24.978516 32.584563 24.864734 34.601562 22.177734C35.151563 21.440734 36.049 21 37 21C37.951 21 38.848391 21.440688 39.400391 22.179688C39.869391 22.804688 40.425 23.286062 41 23.664062L41 22.5C41 20.923 40.330672 19.504 39.263672 18.5C40.330672 17.496 41 16.077 41 14.5L41 11.5C41 8.467 38.533 6 35.5 6L12.5 6z M10 14L38 14L38 14.5C38 15.878 36.878 17 35.5 17L12.5 17C11.122 17 10 15.878 10 14.5L10 14zM37 23C36.69425 23 36.387719 23.126906 36.199219 23.378906C33.548219 26.912906 29.042 26.978516 29 26.978516C28.448 26.978516 28 27.426516 28 27.978516L28 34C28 43.669 36.670813 45.948703 36.757812 45.970703C36.837813 45.990703 36.918 46 37 46C37.082 46 37.162187 45.990703 37.242188 45.970703C37.329188 45.948703 46 43.669 46 34L46 27.978516C46 27.428516 45.553906 26.981516 45.003906 26.978516C44.958906 26.978516 40.451781 26.912906 37.800781 23.378906C37.612281 23.126906 37.30575 23 37 23z"/>
</svg>
