<svg xmlns="http://www.w3.org/2000/svg" viewBox="0 0 48 48">
  <path d="M23.976562 0.93359375 A 1.50015 1.50015 0 0 0 22.5 2.453125 L 22.5 4.953125 L 21 4.953125 C 20.393 4.953125 19.845281 5.3208594 19.613281 5.8808594 C 19.536281 6.0668594 19.5 6.260125 19.5 6.453125 C 19.5 6.844125 19.652453 7.228625 19.939453 7.515625 L 22.939453 10.515625 C 23.525453 11.101625 24.474547 11.101625 25.060547 10.515625 L 28.060547 7.515625 C 28.488547 7.087625 28.619719 6.4428594 28.386719 5.8808594 C 28.154719 5.3208594 27.607 4.953125 27 4.953125 L 25.5 4.953125 L 25.5 2.453125 A 1.50015 1.50015 0 0 0 23.976562 0.93359375 z M 13.476562 5.9785156 A 1.50015 1.50015 0 0 0 12 7.5 L 12 13 L 10.5 13 C 6.916 13 4 15.916 4 19.5 L 4 33.5 C 4 35.981 6.019 38 8.5 38 L 12 38 L 12 40.5 C 12 42.967501 14.032499 45 16.5 45 L 31.5 45 C 33.967501 45 36 42.967501 36 40.5 L 36 38 L 39.5 38 C 41.981 38 44 35.981 44 33.5 L 44 19.5 C 44 15.916 41.084 13 37.5 13 L 36 13 L 36 7.5 A 1.50015 1.50015 0 0 0 34.476562 5.9785156 A 1.50015 1.50015 0 0 0 33 7.5 L 33 13 L 15 13 L 15 7.5 A 1.50015 1.50015 0 0 0 13.476562 5.9785156 z M 16.5 30 L 31.5 30 C 32.346499 30 33 30.653501 33 31.5 L 33 40.5 C 33 41.346499 32.346499 42 31.5 42 L 16.5 42 C 15.653501 42 15 41.346499 15 40.5 L 15 31.5 C 15 30.653501 15.653501 30 16.5 30 z"/>
</svg>
