<svg xmlns="http://www.w3.org/2000/svg" viewBox="0 0 48 48">
  <path d="M12.5 5C6.71 5 2 9.71 2 15.5L2 28.5C2 30.79 3.2 32.810703 5 33.970703L5 15.5C5 11.36 8.36 8 12.5 8L36.970703 8C35.810703 6.2 33.79 5 31.5 5L12.5 5zM13.5 10C10.41 10 7.8201563 12.170547 7.1601562 15.060547L25 24.789062L42.839844 15.060547C42.179844 12.170547 39.59 10 36.5 10L13.5 10zM7 18.390625L7 33.5C7 37.08 9.92 40 13.5 40L23 40C22.36 38.46 22 36.77 22 35C22 32.32 22.809453 29.839531 24.189453 27.769531L7 18.390625zM43 18.390625L36.269531 22.070312C38.789531 22.310313 41.11 23.279766 43 24.759766L43 18.390625zM35 24C28.925 24 24 28.925 24 35C24 41.075 28.925 46 35 46C41.075 46 46 41.075 46 35C46 28.925 41.075 24 35 24zM36 29C36.25575 29 36.511531 29.097469 36.707031 29.292969L41.707031 34.292969C42.098031 34.683969 42.098031 35.316031 41.707031 35.707031L36.707031 40.707031C36.512031 40.902031 36.256 41 36 41C35.744 41 35.487969 40.902031 35.292969 40.707031C34.901969 40.316031 34.901969 39.683969 35.292969 39.292969L38.585938 36L28 36C27.447 36 27 35.552 27 35C27 34.448 27.447 34 28 34L38.585938 34L35.292969 30.707031C34.901969 30.316031 34.901969 29.683969 35.292969 29.292969C35.488469 29.097469 35.74425 29 36 29z"/>
</svg>
