<svg xmlns="http://www.w3.org/2000/svg"  viewBox="0 0 48 48" width="48px" height="48px"><path d="M 25 4 C 24.67625 4 24.352531 4.1049531 24.082031 4.3144531 L 10.908203 14.511719 C 9.0862031 15.922719 8 18.140359 8 20.443359 L 8 24.226562 L 11.835938 21.205078 C 12.449938 20.722078 13.218 20.455078 14 20.455078 C 14.782 20.455078 15.551016 20.720078 16.166016 21.205078 L 23.521484 27.001953 C 25.096484 28.240953 26 30.101422 26 32.107422 L 26 40.5 C 26 41.425 25.718281 42.284 25.238281 43 L 39.5 43 C 40.879 43 42 41.878 42 40.5 L 42 20.443359 C 42 18.140359 40.913797 15.922719 39.091797 14.511719 L 25.917969 4.3144531 C 25.647469 4.1049531 25.32375 4 25 4 z M 14 22.455078 C 13.672 22.455078 13.342813 22.562844 13.070312 22.777344 L 5.7167969 28.572266 C 4.6257969 29.430266 4 30.719422 4 32.107422 L 4 40.5 C 4 41.878 5.121 43 6.5 43 L 21.5 43 C 22.879 43 24 41.878 24 40.5 L 24 32.107422 C 24 30.719422 23.374203 29.429266 22.283203 28.572266 L 14.927734 22.777344 C 14.655234 22.562844 14.328 22.455078 14 22.455078 z"/></svg>