<svg xmlns="http://www.w3.org/2000/svg" viewBox="0 0 48 48">
  <path d="M14.5 42C9.813 42 6 38.187 6 33.5S9.813 25 14.5 25s8.5 3.813 8.5 8.5S19.187 42 14.5 42zM37.96 22h-8.92c-1.445 0-2.745-.754-3.478-2.016-.749-1.29-.754-2.832-.015-4.127l4.46-7.814C30.737 6.764 32.043 6 33.5 6s2.763.764 3.493 2.042l4.46 7.816c.739 1.294.733 2.837-.016 4.126C40.705 21.247 39.405 22 37.96 22zM36.5 41h-6c-2.481 0-4.5-2.019-4.5-4.5v-6c0-2.481 2.019-4.5 4.5-4.5h6c2.481 0 4.5 2.019 4.5 4.5v6C41 38.981 38.981 41 36.5 41z"/>
</svg>
