<svg xmlns="http://www.w3.org/2000/svg" viewBox="0 0 48 48">
  <path d="M23.970703 4.5A2.0002 2.0002 0 0 0 22.585938 5.0859375L16.585938 11.085938A2.0002 2.0002 0 1 0 19.414062 13.914062L22 11.328125L22 30A2.0002 2.0002 0 1 0 26 30L26 11.328125L28.585938 13.914062A2.0002 2.0002 0 1 0 31.414062 11.085938L25.414062 5.0859375A2.0002 2.0002 0 0 0 23.970703 4.5zM16 17C12.709968 17 10 19.709968 10 23L10 38C10 41.290032 12.709968 44 16 44L32 44C35.290032 44 38 41.290032 38 38L38 23C38 19.709968 35.290032 17 32 17L31 17A2.0002 2.0002 0 1 0 31 21L32 21C33.127968 21 34 21.872032 34 23L34 38C34 39.127968 33.127968 40 32 40L16 40C14.872032 40 14 39.127968 14 38L14 23C14 21.872032 14.872032 21 16 21L17 21A2.0002 2.0002 0 1 0 17 17L16 17z"/>
</svg>
