<svg xmlns="http://www.w3.org/2000/svg" viewBox="0 0 48 48">
  <path d="M12.5 6C8.916 6 6 8.916 6 12.5L6 14L42 14L42 12.5C42 8.916 39.084 6 35.5 6L12.5 6zM6 17L6 35.5C6 39.084 8.916 42 12.5 42L24.056641 42C22.760641 39.978 22 37.58 22 35C22 31.902 23.088484 29.060172 24.896484 26.826172C24.617484 26.934172 24.317 27 24 27C22.619 27 21.5 25.881 21.5 24.5C21.5 23.119 22.619 22 24 22C25.381 22 26.5 23.119 26.5 24.5C26.5 24.786 26.441516 25.055547 26.353516 25.310547C28.651516 23.257547 31.676 22 35 22C37.58 22 39.978 22.760641 42 24.056641L42 17L6 17zM15.5 22C16.881 22 18 23.119 18 24.5C18 25.881 16.881 27 15.5 27C14.119 27 13 25.881 13 24.5C13 23.119 14.119 22 15.5 22zM35 24C28.925 24 24 28.925 24 35C24 41.075 28.925 46 35 46C41.075 46 46 41.075 46 35C46 28.925 41.075 24 35 24zM35 30C40.182 30 42.756281 34.313094 42.863281 34.496094C43.044281 34.808094 43.044281 35.191906 42.863281 35.503906C42.756281 35.687906 40.182 40 35 40C29.818 40 27.243719 35.686906 27.136719 35.503906C26.955719 35.191906 26.955719 34.808094 27.136719 34.496094C27.243719 34.313094 29.818 30 35 30zM15.5 31C16.881 31 18 32.119 18 33.5C18 34.881 16.881 36 15.5 36C14.119 36 13 34.881 13 33.5C13 32.119 14.119 31 15.5 31zM35 32C33.343 32 32 33.343 32 35C32 36.657 33.343 38 35 38C36.657 38 38 36.657 38 35C38 33.343 36.657 32 35 32z"/>
</svg>
