<svg xmlns="http://www.w3.org/2000/svg" viewBox="0 0 48 48">
  <path d="M10.423828 6C7.3908281 6 4.9238281 8.467 4.9238281 11.5L4.9238281 36.5C4.9238281 39.533 7.3908281 42 10.423828 42L37.423828 42C40.456828 42 42.923828 39.533 42.923828 36.5L42.923828 11.5C42.923828 8.467 40.456828 6 37.423828 6L10.423828 6zM22.923828 9L37.423828 9C38.801828 9 39.923828 10.122 39.923828 11.5L39.923828 36.5C39.923828 37.878 38.801828 39 37.423828 39L22.923828 39L22.923828 25.484375L28.882812 25.496094L26.939453 27.439453A1.50015 1.50015 0 1 0 29.060547 29.560547L33.560547 25.060547A1.50015 1.50015 0 0 0 33.560547 22.939453L29.060547 18.439453A1.50015 1.50015 0 0 0 27.984375 17.984375A1.50015 1.50015 0 0 0 26.939453 20.560547L28.875 22.496094L22.923828 22.484375L22.923828 9zM10.423828 12L17.423828 12C18.252828 12 18.923828 12.671 18.923828 13.5C18.923828 14.329 18.252828 15 17.423828 15L10.423828 15C9.5948281 15 8.9238281 14.329 8.9238281 13.5C8.9238281 12.671 9.5948281 12 10.423828 12zM10.423828 17L17.423828 17C18.252828 17 18.923828 17.671 18.923828 18.5C18.923828 19.329 18.252828 20 17.423828 20L10.423828 20C9.5948281 20 8.9238281 19.329 8.9238281 18.5C8.9238281 17.671 9.5948281 17 10.423828 17zM10.423828 22L17.423828 22C18.252828 22 18.923828 22.671 18.923828 23.5C18.923828 24.329 18.252828 25 17.423828 25L10.423828 25C9.5948281 25 8.9238281 24.329 8.9238281 23.5C8.9238281 22.671 9.5948281 22 10.423828 22z"/>
</svg>
