<svg xmlns="http://www.w3.org/2000/svg" viewBox="0 0 48 48">
  <path d="M35.25 3C34.56 3 34 3.56 34 4.25C34 4.94 34.56 5.5 35.25 5.5L38.380859 5.5L34.21875 11.044922C33.95675 11.427922 33.927531 11.922031 34.144531 12.332031C34.359531 12.742031 34.786 13 35.25 13L40.75 13C41.44 13 42 12.44 42 11.75C42 11.06 41.44 10.5 40.75 10.5L37.619141 10.5L41.78125 4.9550781C42.04325 4.5720781 42.072469 4.0779688 41.855469 3.6679688C41.640469 3.2579688 41.214 3 40.75 3L35.25 3zM23.25 9C22.559 9 22 9.56 22 10.25C22 10.94 22.56 11.5 23.25 11.5L27.380859 11.5L22.21875 19.044922C21.95675 19.427922 21.927531 19.922031 22.144531 20.332031C22.359531 20.742031 22.786 21 23.25 21L29.75 21C30.44 21 31 20.44 31 19.75C31 19.06 30.44 18.5 29.75 18.5L25.619141 18.5L30.78125 10.955078C31.04325 10.572078 31.072469 10.077969 30.855469 9.6679688C30.640469 9.2579688 30.214 9 29.75 9L23.25 9zM8.5 24C6.019 24 4 26.019 4 28.5L4 39.5C4 40.028301 4.1073293 40.528629 4.2753906 41L2.5 41A1.50015 1.50015 0 0 0 2.5 44L8.5 44L27.5 44L45.5 44A1.50015 1.50015 0 0 0 45.5 41L39.865234 41C42.32804 39.634631 44 37.009699 44 34C44 29.589 40.411 26 36 26C35.175 26 34.379859 26.126375 33.630859 26.359375C33.865859 27.030375 34 27.749 34 28.5L34 39.5C34 40.019844 33.916589 40.516128 33.798828 41L31.724609 41C31.892671 40.528629 32 40.028301 32 39.5L32 28.5C32 26.019 29.981 24 27.5 24L8.5 24zM18 32C19.105 32 20 32.896 20 34C20 35.104 19.105 36 18 36C16.895 36 16 35.104 16 34C16 32.896 16.895 32 18 32z"/>
</svg>
