<svg xmlns="http://www.w3.org/2000/svg" viewBox="0 0 48 48">
  <path d="M6 17v18.5c0 3.584 2.916 6.5 6.5 6.5h23c3.584 0 6.5-2.916 6.5-6.5V17H6zM15.5 36c-1.381 0-2.5-1.119-2.5-2.5 0-1.381 1.119-2.5 2.5-2.5s2.5 1.119 2.5 2.5C18 34.881 16.881 36 15.5 36zM15.5 27c-1.381 0-2.5-1.119-2.5-2.5 0-1.381 1.119-2.5 2.5-2.5s2.5 1.119 2.5 2.5C18 25.881 16.881 27 15.5 27zM24 36c-1.381 0-2.5-1.119-2.5-2.5 0-1.381 1.119-2.5 2.5-2.5s2.5 1.119 2.5 2.5C26.5 34.881 25.381 36 24 36zM24 27c-1.381 0-2.5-1.119-2.5-2.5 0-1.381 1.119-2.5 2.5-2.5s2.5 1.119 2.5 2.5C26.5 25.881 25.381 27 24 27zM35.561 25.439c.586.586.586 1.535 0 2.121C35.268 27.854 34.884 28 34.5 28s-.768-.146-1.061-.439L32.5 26.621l-.939.939C31.268 27.854 30.884 28 30.5 28s-.768-.146-1.061-.439c-.586-.586-.586-1.535 0-2.121l.939-.939-.939-.939c-.586-.586-.586-1.535 0-2.121s1.535-.586 2.121 0l.939.939.939-.939c.586-.586 1.535-.586 2.121 0s.586 1.535 0 2.121L34.621 24.5 35.561 25.439zM42 14v-1.5C42 8.916 39.084 6 35.5 6h-23C8.916 6 6 8.916 6 12.5V14H42z"/>
</svg>
