<svg xmlns="http://www.w3.org/2000/svg" viewBox="0 0 48 48">
  <path d="M42 14v-1.5C42 8.916 39.084 6 35.5 6h-23C8.916 6 6 8.916 6 12.5V14H42zM6 17v18.5c0 3.584 2.916 6.5 6.5 6.5h23c3.584 0 6.5-2.916 6.5-6.5V17H6zM11 28.5c0-.828.672-1.5 1.5-1.5s1.5.672 1.5 1.5S13.328 30 12.5 30 11 29.328 11 28.5zM14.5 37c-.828 0-1.5-.672-1.5-1.5s.672-1.5 1.5-1.5 1.5.672 1.5 1.5S15.328 37 14.5 37zM16 22.5c0-.828.672-1.5 1.5-1.5s1.5.672 1.5 1.5S18.328 24 17.5 24 16 23.328 16 22.5zM30.828 29.778l-2.326 2.267.55 3.201c.097.562-.135 1.132-.597 1.468C28.193 36.903 27.884 37 27.573 37c-.239 0-.479-.057-.698-.172L24 35.315l-2.875 1.513c-.505.265-1.117.221-1.58-.114-.462-.336-.693-.905-.597-1.468l.55-3.201-2.326-2.267c-.409-.398-.556-.994-.38-1.537.177-.544.645-.939 1.211-1.021l3.215-.468 1.438-2.912c.252-.512.773-.836 1.345-.836s1.093.324 1.345.836l1.438 2.912 3.215.468c.565.082 1.034.478 1.211 1.021C31.384 28.784 31.237 29.38 30.828 29.778zM30.5 24c-.828 0-1.5-.672-1.5-1.5s.672-1.5 1.5-1.5 1.5.672 1.5 1.5S31.328 24 30.5 24zM33.5 37c-.828 0-1.5-.672-1.5-1.5s.672-1.5 1.5-1.5 1.5.672 1.5 1.5S34.328 37 33.5 37zM35.5 30c-.828 0-1.5-.672-1.5-1.5s.672-1.5 1.5-1.5 1.5.672 1.5 1.5S36.328 30 35.5 30z"/>
</svg>
