<svg xmlns="http://www.w3.org/2000/svg"  viewBox="0 0 48 48" width="48px" height="48px"><path d="M 11.46875 6 A 2.0002 2.0002 0 0 0 9.6464844 7.2480469 L 4.8828125 18.974609 A 2.0002 2.0002 0 0 0 4.6542969 19.539062 L 3.1464844 23.248047 A 2.0002383 2.0002383 0 0 0 6.8535156 24.751953 L 7.9707031 22 L 15.029297 22 L 16.146484 24.751953 A 2.0002387 2.0002387 0 0 0 19.853516 23.248047 L 18.351562 19.550781 A 2.0002 2.0002 0 0 0 18.115234 18.96875 L 13.353516 7.2480469 A 2.0002 2.0002 0 0 0 11.46875 6 z M 24 6 A 2.0002 2.0002 0 0 0 22 8 L 22 15.175781 A 2.0002 2.0002 0 0 0 22 15.824219 L 22 24 A 2.0002 2.0002 0 0 0 24 26 L 30.75 26 C 34.178096 26 37 23.178096 37 19.75 C 37 17.876806 36.114643 16.23955 34.791016 15.089844 C 35.498084 14.13452 36 13.017243 36 11.75 C 36 8.5980407 33.401959 6 30.25 6 L 24 6 z M 26 10 L 30.25 10 C 31.240041 10 32 10.759959 32 11.75 C 32 12.740041 31.240041 13.5 30.25 13.5 L 26 13.5 L 26 10 z M 11.5 13.314453 L 13.404297 18 L 9.5957031 18 L 11.5 13.314453 z M 26 17.5 L 30.222656 17.5 L 30.25 17.5 L 30.75 17.5 C 32.015908 17.5 33 18.484096 33 19.75 C 33 21.015904 32.015904 22 30.75 22 L 26 22 L 26 17.5 z M 44.09375 24.480469 A 2.0002 2.0002 0 0 0 42.539062 25.132812 L 29.451172 39.123047 L 22.414062 32.085938 A 2.0002 2.0002 0 1 0 19.585938 34.914062 L 28.085938 43.414062 A 2.0002 2.0002 0 0 0 30.960938 43.367188 L 45.460938 27.867188 A 2.0002 2.0002 0 0 0 44.09375 24.480469 z"/></svg>