<svg xmlns="http://www.w3.org/2000/svg" viewBox="0 0 48 48">
  <path d="M13 7 A 6 6 0 0 0 13 19 A 6 6 0 0 0 13 7 z M 35 7 A 6 6 0 0 0 35 19 A 6 6 0 0 0 35 7 z M 24 15.5 C 20.64 15.5 17.866689 18.062451 17.533203 21.335938 C 17.510971 21.55417 17.5 21.776 17.5 22 C 17.5 25.36 20.062451 28.133311 23.335938 28.466797 C 23.55417 28.489029 23.776 28.5 24 28.5 C 27.584 28.5 30.5 25.584 30.5 22 C 30.5 18.416 27.584 15.5 24 15.5 z M 24 19.5 C 25.379 19.5 26.5 20.621 26.5 22 C 26.5 23.379 25.379 24.5 24 24.5 C 22.621 24.5 21.5 23.379 21.5 22 C 21.5 21.827625 21.517436 21.658721 21.550781 21.496094 C 21.784201 20.357705 22.793375 19.5 24 19.5 z M 7.5 21 C 5.57 21 4 22.57 4 24.5 L 4 27 C 4 30.297 7.7982188 32.887234 12.699219 32.990234 C 13.371219 30.412234 15.714 28.5 18.5 28.5 L 18.533203 28.5 C 16.681203 26.939 15.5 24.606 15.5 22 C 15.5 21.661 15.525453 21.329 15.564453 21 L 7.5 21 z M 32.435547 21 C 32.474547 21.329 32.5 21.661 32.5 22 C 32.5 24.606 31.318797 26.939 29.466797 28.5 L 29.5 28.5 C 32.286 28.5 34.628781 30.412234 35.300781 32.990234 C 40.201781 32.887234 44 30.297 44 27 L 44 24.5 C 44 22.57 42.43 21 40.5 21 L 32.435547 21 z M 18.5 30.5 C 16.294 30.5 14.5 32.294 14.5 34.5 L 14.5 37 C 14.5 40.645 18.673 43.5 24 43.5 C 29.327 43.5 33.5 40.645 33.5 37 L 33.5 34.5 C 33.5 32.294 31.706 30.5 29.5 30.5 L 18.5 30.5 z M 18.5 34.5 L 29.5 34.5 L 29.5 37 C 29.5 37.995 27.307 39.5 24 39.5 C 20.693 39.5 18.5 37.995 18.5 37 L 18.5 34.5 z"/>
</svg>
