<svg xmlns="http://www.w3.org/2000/svg" viewBox="0 0 48 48">
  <path d="M 10.574219 3.8867188 C 8.9375865 3.9244956 7.90625 4.1621094 7.90625 4.1621094 A 1.0001 1.0001 0 0 0 7.25 5.6113281 L 8.6738281 8.2578125 C 7.1900211 8.5469757 5.5372906 9.1046511 3.6894531 10.082031 C 3.5994531 10.129031 3.5301094 10.167969 3.5371094 10.167969 C 3.1071094 10.332969 2.776625 10.685 2.640625 11.125 C 2.504625 11.565 2.5788437 12.042875 2.8398438 12.421875 C 4.1998438 14.394875 5.8038594 16.321203 8.2558594 17.533203 C 9.1288594 17.532203 10.053313 17.475219 11.070312 17.324219 C 11.389313 17.278219 11.709594 17.387187 11.933594 17.617188 C 12.157594 17.847188 12.257172 18.171281 12.201172 18.488281 C 11.659172 21.565281 11.667188 24.019734 12.242188 26.052734 C 13.337188 24.871734 14.922203 23.826672 17.033203 22.888672 C 17.379203 22.733672 17.785125 22.78825 18.078125 23.03125 C 18.370125 23.27325 18.500062 23.66125 18.414062 24.03125 C 17.869062 26.35625 17.589797 28.174578 17.841797 29.767578 C 19.357797 28.162578 21.101656 27.317672 23.222656 27.138672 C 23.549656 27.112672 23.868172 27.243094 24.076172 27.496094 C 24.285172 27.748094 24.357531 28.087344 24.269531 28.402344 C 23.973531 29.464344 23.942688 30.562609 24.179688 31.724609 C 25.379687 30.418609 26.897516 29.471125 28.478516 29.078125 C 29.138516 28.913125 29.615578 29.283641 29.892578 30.181641 C 30.059578 30.723641 30.393672 31.770469 31.388672 33.355469 L 34.306641 35.236328 C 34.711641 35.497328 35.215109 35.548047 35.662109 35.373047 C 38.331109 34.333047 40.336344 32.1145 41.027344 29.4375 C 41.217344 28.6985 40.822375 27.934109 40.109375 27.662109 C 39.273579 27.343682 38.513197 27.01065 37.787109 26.673828 L 38.28125 26.011719 A 1.0001 1.0001 0 0 0 37.515625 24.402344 A 1.0001 1.0001 0 0 0 36.679688 24.814453 L 35.974609 25.757812 C 33.045134 24.144078 31.248375 22.445242 30.53125 21.035156 C 31.871555 20.824424 34.145776 20.816761 36.484375 21.498047 L 35.955078 22.205078 A 1.0005885 1.0005885 0 1 0 37.558594 23.402344 L 38.429688 22.236328 C 39.015869 22.518429 39.591117 22.85078 40.140625 23.25 L 39.28125 24.398438 A 1.0001 1.0001 0 1 0 40.882812 25.595703 L 41.943359 24.177734 C 42.247628 24.159844 42.549321 24.064891 42.800781 23.861328 C 44.884781 22.171328 45.402359 20.017156 45.818359 18.285156 C 46.057359 17.292156 46.263312 16.434781 46.695312 15.925781 C 47.061312 15.495781 47.156406 14.899859 46.941406 14.380859 C 45.523406 10.938859 40.151109 10.296469 34.912109 10.105469 C 34.516109 8.9974687 33.683672 7.7504844 32.138672 7.1464844 C 31.002254 6.7017052 26.331762 6.0252557 21.179688 6.9492188 C 18.080385 4.8471943 14.879632 4.1113058 12.396484 3.9316406 C 11.732033 3.883565 11.119763 3.8741265 10.574219 3.8867188 z M 11.492188 5.8945312 C 13.210854 5.8582657 15.679297 6.1429739 18.425781 7.5996094 C 17.312481 7.9295891 16.20016 8.3379636 15.121094 8.8613281 C 13.997722 8.3503208 12.559909 7.9888622 10.818359 8.0214844 L 9.7539062 6.0410156 C 10.177192 5.9801056 10.768842 5.9097945 11.492188 5.8945312 z M 25.537109 11.005859 C 26.539109 11.003859 28.778734 11.009672 30.052734 11.013672 C 30.568734 11.015672 30.986328 11.435172 30.986328 11.951172 C 30.985328 12.435172 30.986328 13.012594 30.986328 13.433594 C 30.986328 13.768594 30.722672 14.044594 30.388672 14.058594 C 29.295672 14.023594 26.940453 13.701594 25.314453 11.433594 C 25.255453 11.351594 25.249875 11.242344 25.296875 11.152344 C 25.343875 11.062344 25.435109 11.005859 25.537109 11.005859 z M 6.1835938 19.400391 C 4.3585937 21.133391 2.6842031 23.041438 1.2832031 25.023438 C 0.98320312 25.448438 0.92490625 25.998563 1.1289062 26.476562 C 1.3329062 26.955562 1.7692031 27.292094 2.2832031 27.371094 C 3.1662031 27.505094 3.9476094 27.679516 4.5996094 27.853516 C 3.2676094 29.282516 1.6126875 31.406469 1.0546875 33.605469 C 0.9176875 34.142469 1.0890469 34.709984 1.4980469 35.083984 C 1.9070469 35.457984 2.4887656 35.573672 3.0097656 35.388672 C 4.5557656 34.839672 5.6950312 34.606922 6.9570312 34.419922 C 6.4020313 35.803922 6.0361563 37.136109 5.9101562 38.787109 C 5.8731563 39.273109 6.0751719 39.748594 6.4511719 40.058594 C 6.8271719 40.368594 7.3317344 40.474656 7.8027344 40.347656 L 8.4003906 40.1875 C 9.6843906 39.8425 11.060297 39.472063 12.404297 38.789062 C 12.432297 40.931063 13.095203 42.900125 14.283203 43.703125 C 14.702203 43.987125 15.238125 44.04075 15.703125 43.84375 C 17.043125 43.28175 18.477891 42.256578 19.712891 41.017578 C 20.810891 43.077578 22.728906 44.955672 26.503906 45.513672 C 26.577906 45.524672 26.651609 45.529297 26.724609 45.529297 C 27.206609 45.529297 27.666219 45.296531 27.949219 44.894531 C 28.275219 44.432531 28.314828 43.824219 28.048828 43.324219 C 27.575828 42.435219 27.321547 41.251688 27.185547 40.054688 C 28.076547 40.442687 28.946297 40.672313 29.529297 40.695312 C 29.995297 40.708312 30.418797 40.525547 30.716797 40.185547 C 31.015797 39.845547 31.144359 39.389359 31.068359 38.943359 C 30.926359 38.121359 30.823438 37.088281 30.773438 35.988281 C 29.128438 33.775281 28.464438 32.212109 28.148438 31.287109 C 26.772437 31.859109 25.510922 32.978344 24.669922 34.402344 C 24.476922 34.728344 24.122375 34.917625 23.734375 34.890625 C 23.355375 34.862625 23.026813 34.623484 22.882812 34.271484 C 22.192812 32.581484 21.917453 30.939 22.064453 29.375 C 20.594453 29.813 19.389625 30.792641 18.265625 32.431641 C 18.061625 32.728641 17.712422 32.895281 17.357422 32.863281 C 16.999422 32.833281 16.684203 32.612156 16.533203 32.285156 C 15.605203 30.281156 15.590109 28.174953 16.037109 25.626953 C 14.469109 26.532953 13.424281 27.51175 12.863281 28.59375 C 12.690281 28.92775 12.356797 29.110812 11.966797 29.132812 C 11.590797 29.129812 11.246125 28.914172 11.078125 28.576172 C 9.866125 26.130172 9.5243906 23.211844 10.025391 19.464844 C 8.6203906 19.594844 7.3555938 19.562391 6.1835938 19.400391 z"/>
</svg>
