<svg xmlns="http://www.w3.org/2000/svg" viewBox="0 0 48 48">
  <path d="M21.5 3A1.50015 1.50015 0 0 0 21.5 6L22.5 6L22.5 8.0761719C13.275741 8.8425751 6 16.581264 6 26C6 35.925 14.075 44 24 44C33.925 44 42 35.925 42 26C42 21.576424 40.389452 17.526099 37.732422 14.388672L39.556641 12.564453A1.50015 1.50015 0 0 0 38.466797 9.9902344A1.50015 1.50015 0 0 0 37.435547 10.443359L35.611328 12.267578C32.832969 9.914637 29.336427 8.3949238 25.5 8.0761719L25.5 6L26.5 6A1.50015 1.50015 0 0 0 26.5 3L21.5 3zM30.5 18C30.88375 18 31.267547 18.146453 31.560547 18.439453C32.146547 19.024453 32.145547 19.974547 31.560547 20.560547L26.888672 25.232422C26.953672 25.478422 27 25.733 27 26C27 27.657 25.657 29 24 29C22.343 29 21 27.657 21 26C21 24.343 22.343 23 24 23C24.267 23 24.521578 23.045328 24.767578 23.111328L29.439453 18.439453C29.732453 18.146453 30.11625 18 30.5 18z"/>
</svg>
