<svg xmlns="http://www.w3.org/2000/svg" viewBox="0 0 48 48">
  <path d="M17 2C11.486 2 7 6.486 7 12C7 17.514 11.486 22 17 22C22.514 22 27 17.514 27 12C27 6.486 22.514 2 17 2zM35 24C28.925 24 24 28.925 24 35C24 41.075 28.925 46 35 46C41.075 46 46 41.075 46 35C46 28.925 41.075 24 35 24zM6.2226562 26C4.1696563 26 2.5 27.784516 2.5 29.978516L2.5 31.5C2.5 34.781 4.1953906 37.632344 7.2753906 39.527344C9.8663906 41.122344 13.32 42 17 42C19.19 42 21.431516 41.675766 23.478516 41.009766C22.538516 39.210766 22 37.17 22 35C22 31.504 23.386813 28.336 25.632812 26L6.2226562 26zM30 29C30.25575 29 30.511531 29.097469 30.707031 29.292969L35 33.585938L39.292969 29.292969C39.683969 28.901969 40.316031 28.901969 40.707031 29.292969C41.098031 29.683969 41.098031 30.316031 40.707031 30.707031L36.414062 35L40.707031 39.292969C41.098031 39.683969 41.098031 40.316031 40.707031 40.707031C40.512031 40.902031 40.256 41 40 41C39.744 41 39.487969 40.902031 39.292969 40.707031L35 36.414062L30.707031 40.707031C30.512031 40.902031 30.256 41 30 41C29.744 41 29.487969 40.902031 29.292969 40.707031C28.901969 40.316031 28.901969 39.683969 29.292969 39.292969L33.585938 35L29.292969 30.707031C28.901969 30.316031 28.901969 29.683969 29.292969 29.292969C29.488469 29.097469 29.74425 29 30 29z"/>
</svg>
