<svg id="a" data-name="Layer 1" fill="currentColor" xmlns="http://www.w3.org/2000/svg" viewBox="0 0 37.21 37.21">
                                <defs>
                                    <style>
                                                                               .b {
                                                                                 stroke-width: 0;
                                                                               }
                                                                             </style>
                                </defs>
                                <path class="b" d="m8.48,25.52c-.19,0-.37-.08-.5-.23-.12-.15-.17-.34-.14-.53.37-1.6,1.83-2.79,3.58-2.79.23,0,.45.02.67.06l6.75-6.75s-.05,0-.08,0c-.82,0-1.56.43-2.1,1.11-2.1-3.48-4.46-7.02-9.49-9.87-.34-.19-.76-.19-1.1,0-.34.2-.55.56-.55.95v2.85l-1.44-.58c-.35-.14-.75-.09-1.06.13-.31.22-.48.58-.45.96l.58,9.27c.25-.33.53-.63.85-.89,2.52-2.07,6.28-1.36,6.44-1.33.4.08.66.46.58.86-.08.4-.46.66-.86.58-.03,0-3.26-.6-5.23,1.03-.86.71-1.37,1.76-1.53,3.13.19,1.91.82,3.84,1.78,5.44l3.4-3.4s-.08,0-.12,0Zm.95-11c-1.48,0-3.1.39-4.3,1.72l-.24-3.81,1.33.53c.34.14.72.1,1.03-.11.3-.2.48-.55.48-.91v-2.49c2.59,1.78,4.27,3.79,5.69,5.91-1.4-.51-2.81-.85-3.99-.85Z"/>
                                <path class="b" d="m29.76,10.55v1.4c0,.37.18.71.48.91.3.2.69.25,1.03.11l1.33-.53-.23,3.72c-1.01-1.09-2.43-1.64-4.27-1.64-.83,0-1.77.17-2.75.45l-17.08,17.08c.77.43,1.62.67,2.5.67,2.23,0,3.81-.87,5.2-1.63,1.01-.56,1.88-1.04,2.8-1.04s1.79.48,2.8,1.04c1.39.76,2.96,1.63,5.2,1.63,3.92,0,6.91-4.69,7.34-9.27-.17-1.35-.68-2.38-1.53-3.08-1.98-1.63-5.2-1.04-5.24-1.03-.39.08-.78-.18-.86-.58-.08-.4.18-.78.58-.86.16-.03,3.92-.73,6.44,1.33.31.25.58.54.82.86l.58-9.24c.02-.38-.15-.74-.45-.96-.31-.22-.7-.27-1.06-.13l-1.44.58v-1.97l-2.2,2.2Zm-.09,14.11c.06.21,0,.44-.13.62-.14.17-.34.28-.56.28-1.4,0-4.3,0-5.72-.01-.23,0-.44-.11-.58-.29-.14-.18-.18-.41-.12-.63.42-1.52,1.85-2.65,3.54-2.65s3.15,1.14,3.57,2.68Z"/>
                                <path class="b" d="m20.84,16.36c2.1-3.47,4.45-7,9.47-9.84.34-.19.76-.19,1.1,0,.34.2.55.56.55.95v.87l4.59-4.59c.87-.84.89-2.23.04-3.09-.43-.44-1.02-.68-1.63-.66-.57.02-1.11.25-1.5.66l-14.62,14.61c.78.03,1.49.43,2,1.08Z"/>
                                <path class="b" d="m24.07,15.37c.43-.16.85-.29,1.28-.41l4.41-4.41v-1.09c-2.59,1.78-4.27,3.79-5.69,5.92Z"/>
                                <path class="b" d="m5.2,28.92l-4.53,4.53c-.87.84-.9,2.22-.06,3.09.84.87,2.22.9,3.09.06.02-.02.04-.04.06-.06l4.5-4.5c-1.21-.66-2.25-1.77-3.06-3.12Z"/>
                                <path class="b" d="m14.37,25.55c.2,0,.39-.09.52-.24s.18-.36.15-.55c-.35-1.38-1.5-2.47-2.94-2.73l-3.49,3.49c1.45.03,4.4.03,5.77.03Z"/>
                                <ellipse class="b" cx="18.76" cy="18.94" rx=".73" ry="1.47"/>
                            </svg>