<svg xmlns="http://www.w3.org/2000/svg" viewBox="0 0 48 48">
  <path d="M16 4 A 4 4 0 0 0 16 12 A 4 4 0 0 0 16 4 z M 36.5 12 A 3.5 3.5 0 1 0 36.5 19 A 3.5 3.5 0 1 0 36.5 12 z M 8.5097656 13.978516 A 1.50015 1.50015 0 0 0 7.0351562 15.173828 L 5.0351562 24.173828 A 1.5007183 1.5007183 0 1 0 7.9648438 24.826172 L 9.9648438 15.826172 A 1.50015 1.50015 0 0 0 8.5097656 13.978516 z M 15.388672 14 C 13.433672 14 11.765359 15.413797 11.443359 17.341797 L 9.4316406 26.533203 C 9.1446406 27.841203 9 29.175672 9 30.513672 L 9 32 L 9 35.576172 L 5.2226562 41.712891 A 1.5003825 1.5003825 0 1 0 7.7773438 43.287109 L 11.777344 36.787109 A 1.50015 1.50015 0 0 0 12 36 L 12 32 L 14.828125 32 L 17.544922 42.863281 A 1.50015 1.50015 0 1 0 20.455078 42.136719 L 17.455078 30.138672 L 17.826172 28.294922 L 16.167969 25.804688 C 15.860969 25.345688 15.985313 24.723969 16.445312 24.417969 C 16.899722 24.113712 17.508584 24.236229 17.818359 24.681641 L 20.251953 28.332031 A 1.50015 1.50015 0 1 0 22.748047 26.667969 L 20 22.544922 L 20 17.492188 C 20.051102 17.185908 20.039209 16.889673 20 16.599609 L 20 16.5 A 1.50015 1.50015 0 0 0 19.617188 15.482422 C 19.099378 14.606536 18.154601 14 17.041016 14 L 15.388672 14 z M 28.287109 20.978516 A 1.50015 1.50015 0 0 0 26.814453 22.173828 L 25.035156 30.173828 A 1.5007185 1.5007185 0 1 0 27.964844 30.826172 L 29.742188 22.826172 A 1.50015 1.50015 0 0 0 28.287109 20.978516 z M 35.347656 21 C 33.392656 21 31.722391 22.413797 31.400391 24.341797 L 30.429688 29.533203 C 30.199608 30.585455 30.066724 31.654064 30.021484 32.728516 A 1.50015 1.50015 0 0 0 30 33 L 30 33.513672 L 30 35 L 30 37.429688 L 26.378906 41.503906 A 1.50015 1.50015 0 1 0 28.621094 43.496094 L 32.621094 38.996094 A 1.50015 1.50015 0 0 0 33 38 L 33 35 L 35.25 35 L 37.560547 42.919922 C 37.751547 43.574922 38.349047 44 38.998047 44 C 39.138047 44 39.279922 43.980453 39.419922 43.939453 C 40.214922 43.707453 40.672406 42.874125 40.441406 42.078125 L 38.193359 34.376953 L 38.402344 33.203125 L 36.449219 30.599609 C 36.117219 30.157609 36.208391 29.530219 36.650391 29.199219 C 37.090391 28.866219 37.716828 28.958391 38.048828 29.400391 L 38.882812 30.509766 L 38.882812 30.511719 L 40.300781 32.400391 A 1.50015 1.50015 0 1 0 42.699219 30.599609 L 40 27 L 40 24.5 A 1.50015 1.50015 0 0 0 39.972656 24.195312 C 40.08603 22.489238 38.749956 21 36.998047 21 L 35.347656 21 z"/>
</svg>
