<svg xmlns="http://www.w3.org/2000/svg" viewBox="0 0 48 48">
  <path d="M24 2.9960938 C 23.133875 2.9960938 22.267781 3.117375 21.425781 3.359375 L 5.0859375 8.0566406 C 4.4439375 8.2406406 4 8.8290469 4 9.4980469 C 4 10.167047 4.4429375 10.754453 5.0859375 10.939453 L 21.425781 15.636719 C 22.267781 15.878719 23.134 16 24 16 C 24.866 16 25.731219 15.879719 26.574219 15.636719 L 42.914062 10.939453 C 43.556062 10.755453 44 10.167047 44 9.4980469 C 44 8.8290469 43.556109 8.2406406 42.912109 8.0566406 L 26.572266 3.359375 C 25.730766 3.117375 24.866125 2.9960938 24 2.9960938 z M 10 15.433594 L 10 16.970703 A 1.50015 1.50015 0 0 0 9.6796875 17.517578 C 9.3641352 18.448401 9 19.85408 9 21.5 L 9 23.269531 C 7.8629026 24.174656 7 25.430284 7 27 C 7 29.361739 8.7044726 31.27003 10.919922 31.78125 C 11.816449 35.336333 13.30684 38.503248 15.40625 40.828125 C 17.708437 43.377556 20.706886 45 24 45 C 27.293114 45 30.291563 43.377556 32.59375 40.828125 C 34.69316 38.503248 36.183551 35.336333 37.080078 31.78125 C 39.295527 31.27003 41 29.361739 41 27 C 41 25.430284 40.137097 24.174656 39 23.269531 L 39 21.5 C 39 19.85408 38.636241 18.448378 38.320312 17.517578 A 1.5005606 1.5005606 0 0 0 38 16.982422 L 38 15.433594 L 27.126953 18.558594 C 26.108953 18.851594 25.057 19 24 19 C 22.943 19 21.891047 18.851594 20.873047 18.558594 L 10 15.433594 z M 12.140625 20.011719 C 16.166914 21.989776 20.200443 23 24.15625 23 L 24.240234 23 C 28.149786 22.985728 32.053403 21.987887 35.865234 20.042969 C 35.943095 20.49986 36 20.988508 36 21.5 L 36 23.878906 A 1.50015 1.50015 0 0 0 36.855469 25.234375 C 37.54264 25.561015 38 26.202806 38 27 C 38 28.122343 37.122343 29 36 29 C 36.264714 29 36.24617 28.994141 35.939453 28.994141 A 1.50015 1.50015 0 0 0 34.470703 30.185547 C 33.727184 33.728666 32.236501 36.746337 30.367188 38.816406 C 28.497877 40.886516 26.317886 42 24 42 C 21.682114 42 19.502126 40.886475 17.632812 38.816406 C 15.763499 36.746337 14.272816 33.728666 13.529297 30.185547 A 1.50015 1.50015 0 0 0 12.060547 28.994141 C 11.753833 28.994141 11.735286 29 12 29 C 10.877657 29 10 28.122343 10 27 C 10 26.202806 10.45736 25.561015 11.144531 25.234375 A 1.50015 1.50015 0 0 0 12 23.878906 L 12 21.5 C 12 20.976814 12.059811 20.476915 12.140625 20.011719 z M 19 25 A 2 2 0 0 0 19 29 A 2 2 0 0 0 19 25 z M 29 25 A 2 2 0 0 0 29 29 A 2 2 0 0 0 29 25 z"/>
</svg>
