<svg xmlns="http://www.w3.org/2000/svg" viewBox="0 0 48 48">

<path d="M 13 1.5 C 6.925 1.5 2 6.425 2 12.5 C 2 18.575 6.925 23.5 13 23.5 C 19.075 23.5 24 18.575 24 12.5 C 24 6.425 19.075 1.5 13 1.5 z M 12 5.5 C 12.552 5.5 13 5.948 13 6.5 L 13 12.5 L 18 12.5 C 18.552 12.5 19 12.948 19 13.5 C 19 14.052 18.552 14.5 18 14.5 L 12 14.5 C 11.448 14.5 11 14.052 11 13.5 L 11 6.5 C 11 5.948 11.448 5.5 12 5.5 z M 24.650391 8 C 25.190391 9.398 25.5 10.911 25.5 12.5 C 25.5 19.403 19.904 25 13 25 C 9.462 25 6.274 23.523156 4 21.160156 L 4 37 L 3.5 37 C 2.672 37 2 37.671 2 38.5 C 2 39.329 2.672 40 3.5 40 L 44.5 40 C 45.328 40 46 39.329 46 38.5 C 46 37.671 45.328 37 44.5 37 L 44 37 L 44 13.5 C 44 10.467 41.532 8 38.5 8 L 24.650391 8 z M 30.5 34 L 35.5 34 C 36.328 34 37 34.671 37 35.5 C 37 36.329 36.328 37 35.5 37 L 30.5 37 C 29.672 37 29 36.329 29 35.5 C 29 34.671 29.672 34 30.5 34 z"></path>
</svg>