<svg xmlns="http://www.w3.org/2000/svg" viewBox="0 0 48 48">
  <path d="M35.5,4h-23C10.019,4,8,6.019,8,8.5v31c0,2.481,2.019,4.5,4.5,4.5h23c2.481,0,4.5-2.019,4.5-4.5v-31C40,6.019,37.981,4,35.5,4z M19.5,36h-5c-0.828,0-1.5-0.672-1.5-1.5s0.672-1.5,1.5-1.5h5c0.828,0,1.5,0.672,1.5,1.5S20.328,36,19.5,36z M19.5,29h-5c-0.828,0-1.5-0.672-1.5-1.5s0.672-1.5,1.5-1.5h5c0.828,0,1.5,0.672,1.5,1.5S20.328,29,19.5,29z M19.5,22h-5c-0.828,0-1.5-0.672-1.5-1.5s0.672-1.5,1.5-1.5h5c0.828,0,1.5,0.672,1.5,1.5S20.328,22,19.5,22z M19.5,15h-5c-0.828,0-1.5-0.672-1.5-1.5s0.672-1.5,1.5-1.5h5c0.828,0,1.5,0.672,1.5,1.5S20.328,15,19.5,15z M28,34.5c0,0.828-0.672,1.5-1.5,1.5S25,35.328,25,34.5v-21c0-0.828,0.672-1.5,1.5-1.5s1.5,0.672,1.5,1.5V34.5z M33.5,36c-0.828,0-1.5-0.672-1.5-1.5s0.672-1.5,1.5-1.5s1.5,0.672,1.5,1.5S34.328,36,33.5,36z M33.5,29c-0.828,0-1.5-0.672-1.5-1.5s0.672-1.5,1.5-1.5s1.5,0.672,1.5,1.5S34.328,29,33.5,29z M33.5,22c-0.828,0-1.5-0.672-1.5-1.5s0.672-1.5,1.5-1.5s1.5,0.672,1.5,1.5S34.328,22,33.5,22z M33.5,15c-0.828,0-1.5-0.672-1.5-1.5s0.672-1.5,1.5-1.5s1.5,0.672,1.5,1.5S34.328,15,33.5,15z"/>
</svg>
