<svg xmlns="http://www.w3.org/2000/svg" viewBox="0 0 48 48">
  <path d="M23 4C17.486 4 13 8.486 13 14C13 19.514 17.486 24 23 24C28.514 24 33 19.514 33 14C33 8.486 28.514 4 23 4zM36 24C35.413 24 34.838344 24.049531 34.277344 24.144531L33.931641 25.576172C33.394641 27.801172 31.105156 29.123609 28.910156 28.474609L27.705078 28.117188C26.981078 29.050187 26.401 30.110813 26 31.257812L26.894531 32.117188C28.529531 33.691187 28.529531 36.308813 26.894531 37.882812L26 38.744141C26.401 39.891141 26.980078 40.948812 27.705078 41.882812L28.910156 41.527344C31.105156 40.878344 33.394641 42.200781 33.931641 44.425781L34.277344 45.857422C34.838344 45.951422 35.414 46 36 46C36.587 46 37.161656 45.950469 37.722656 45.855469L38.068359 44.423828C38.605359 42.198828 40.894844 40.876391 43.089844 41.525391L44.294922 41.882812C45.018922 40.949813 45.599 39.889187 46 38.742188L45.105469 37.882812C43.470469 36.309812 43.470469 33.690188 45.105469 32.117188L46 31.257812C45.599 30.110813 45.019922 29.051187 44.294922 28.117188L43.089844 28.474609C40.894844 29.123609 38.605359 27.801172 38.068359 25.576172L37.722656 24.144531C37.161656 24.049531 36.587 24 36 24zM12.5 28C10.019 28 8 30.019 8 32.5L8 33.699219C8 39.475219 15.028 44 24 44C24.859 44 25.693719 43.945234 26.511719 43.865234C24.339719 41.542234 23 38.431 23 35C23 32.42 23.760641 30.022 25.056641 28L12.5 28zM36 32C37.657 32 39 33.343 39 35C39 36.657 37.657 38 36 38C34.343 38 33 36.657 33 35C33 33.343 34.343 32 36 32z"/>
</svg>
