<svg xmlns="http://www.w3.org/2000/svg" viewBox="0 0 48 48">
  <path d="M14.5 4A1.5 1.5 0 0 0 14.5 7A1.5 1.5 0 0 0 14.5 4zM24 4C20.154904 4.00127 17 7.1441893 17 10.992188C17 12.988774 17.847577 14.804027 19.193359 16.076172C19.201459 16.083872 19.226434 16.115502 19.240234 16.177734L19.242188 16.1875L20.326172 20.791016C20.610715 22.073733 21.764456 23 23.078125 23L24.921875 23C26.235544 23 27.387869 22.072371 27.673828 20.792969L28.757812 16.1875L28.759766 16.177734C28.773716 16.114864 28.800627 16.081955 28.804688 16.078125L28.806641 16.078125C30.154362 14.805296 31 12.987406 31 10.992188C31 7.1441893 27.845096 4.0012661 24 4zM33.5 4A1.5 1.5 0 0 0 33.5 7A1.5 1.5 0 0 0 33.5 4zM24 7C26.228904 7.0007339 28 8.7661847 28 10.992188C28 12.144967 27.520281 13.165348 26.746094 13.896484C26.260151 14.354659 25.964082 14.932209 25.832031 15.527344L25.25 18L22.75 18L22.167969 15.527344C22.035778 14.931582 21.737738 14.354747 21.255859 13.898438L21.255859 13.896484L21.253906 13.896484C20.479736 13.164676 20 12.145599 20 10.992188C20 8.7661847 21.771096 7.0007339 24 7zM12.5 9A1.5 1.5 0 0 0 12.5 12A1.5 1.5 0 0 0 12.5 9zM35.5 9A1.5 1.5 0 0 0 35.5 12A1.5 1.5 0 0 0 35.5 9zM14.5 14A1.5 1.5 0 0 0 14.5 17A1.5 1.5 0 0 0 14.5 14zM33.5 14A1.5 1.5 0 0 0 33.5 17A1.5 1.5 0 0 0 33.5 14zM15 22A5 5 0 0 0 15 32A5 5 0 0 0 15 22zM33 22A5 5 0 0 0 33 32A5 5 0 0 0 33 22zM10.5 35C8.57 35 7 36.57 7 38.5L7 39C7 41.851 10.439 44 15 44C19.561 44 23 41.851 23 39L23 38.5C23 36.57 21.43 35 19.5 35L10.5 35zM28.5 35C26.57 35 25 36.57 25 38.5L25 39C25 41.851 28.439 44 33 44C37.561 44 41 41.851 41 39L41 38.5C41 36.57 39.43 35 37.5 35L28.5 35z"/>
</svg>
