<svg xmlns="http://www.w3.org/2000/svg" viewBox="0 0 50 50">
  <path d="M27.5 5C24.08 5 21.269531 7.64 21.019531 11L24 11C26.76 11 29 13.24 29 16L29 17.820312C31.87 17.150312 34 14.57 34 11.5C34 7.91 31.09 5 27.5 5zM42.5 9A4.5 4.5 0 0 0 42.5 18A4.5 4.5 0 0 0 42.5 9zM6 13C4.346 13 3 14.346 3 16L3 34C3 35.654 4.346 37 6 37L24 37C25.654 37 27 35.654 27 34L27 16C27 14.346 25.654 13 24 13L6 13zM10 19L20 19L20 21L16 21L16 31L14 31L14 21L10 21L10 19zM29 21L29 34C29 36.76 26.76 39 24 39L18.199219 39C18.599219 40.96 19.569688 42.710313 20.929688 44.070312C22.739688 45.880312 25.24 47 28 47C33.52 47 38 42.52 38 37L38 21L29 21zM40 21L40 37C40 37.82 39.919531 38.620625 39.769531 39.390625C40.599531 39.780625 41.52 40 42.5 40C46.09 40 49 37.09 49 33.5L49 21L40 21z"/>
</svg>
