<svg xmlns="http://www.w3.org/2000/svg" viewBox="0 0 48 48">
  <path d="M16.5 5A1.50015 1.50015 0 0 0 16.5 8L17 8L17 19.798828C17 20.71391 16.720059 21.607717 16.199219 22.359375L6.7988281 35.9375A1.50015 1.50015 0 0 0 6.7988281 35.939453C5.6324893 37.625282 5.7489967 39.960298 7.1777344 41.535156C8.1104251 42.564215 9.4152256 43 10.65625 43L37.34375 43C38.584774 43 39.889575 42.564215 40.822266 41.535156C42.251003 39.960298 42.367511 37.625329 41.201172 35.939453A1.50015 1.50015 0 0 0 41.201172 35.9375L31.800781 22.359375C31.279941 21.607717 31 20.71391 31 19.798828L31 8L31.5 8A1.50015 1.50015 0 0 0 31.5 5L29.5 5L18.5 5L16.5 5zM20 8L28 8L28 16L20 16L20 8zM21 26C22.105 26 23 26.895 23 28C23 29.105 22.105 30 21 30C19.895 30 19 29.105 19 28C19 26.895 19.895 26 21 26zM29.5 32C30.881 32 32 33.119 32 34.5C32 35.881 30.881 37 29.5 37C28.119 37 27 35.881 27 34.5C27 33.119 28.119 32 29.5 32z"/>
</svg>
