<?xml version="1.0" encoding="utf-8"?>
<!-- Generator: Adobe Illustrator 28.3.0, SVG Export Plug-In . SVG Version: 6.00 Build 0)  -->
<svg version="1.1" id="Layer_1" xmlns="http://www.w3.org/2000/svg" xmlns:xlink="http://www.w3.org/1999/xlink" x="0px" y="0px"
	 viewBox="0 0 48 48" style="enable-background:new 0 0 48 48;" xml:space="preserve">
<path d="M31.1,6.6c-0.6,0-1.2,0.3-1.6,0.7l-7.9,7.9l-3.1-3.1c-0.9-1-2.4-1-3.4-0.1c-1,0.9-1,2.4-0.1,3.4c0,0,0,0,0.1,0.1l4.8,4.8
	c0.9,0.9,2.4,0.9,3.4,0l9.6-9.6c0.9-0.9,1-2.4,0-3.4C32.5,6.9,31.8,6.6,31.1,6.6z M28.8,24.6c-0.6,0-1.2,0.3-1.7,0.7l-4.3,4.3
	l-4.3-4.3c-0.5-0.5-1.1-0.7-1.7-0.7c-1.3,0-2.4,1.1-2.4,2.4c0,0.6,0.3,1.3,0.7,1.7l4.3,4.3l-4.3,4.3c-1,0.9-1,2.4-0.1,3.4
	c0.9,1,2.4,1,3.4,0.1c0,0,0,0,0.1-0.1l4.3-4.3l4.3,4.3c0.9,1,2.4,1,3.4,0.1c1-0.9,1-2.4,0.1-3.4c0,0,0,0-0.1-0.1L26.2,33l4.3-4.3
	c1-0.9,1-2.4,0.1-3.4C30.1,24.8,29.4,24.5,28.8,24.6z"/>
</svg>
