<svg xmlns="http://www.w3.org/2000/svg" viewBox="0 0 48 48">
  <path d="M10 4A4 4 0 0 0 10 12A4 4 0 0 0 10 4zM36 4A4 4 0 0 0 36 12A4 4 0 0 0 36 4zM22.585938 8.2050781C22.456219 8.2116094 22.325422 8.2444375 22.201172 8.3046875L19.951172 9.3925781C19.454172 9.6335781 19.245328 10.231516 19.486328 10.728516L20.792969 13.427734L17.564453 17.375L13.253906 14.701172A2.0002 2.0002 0 0 0 12.648438 14.443359C11.986942 14.159311 11.26112 14 10.5 14L9.5 14C6.4802259 14 4 16.480226 4 19.5L4 26A1.50015 1.50015 0 0 0 4.0117188 26.193359A1.50015 1.50015 0 0 0 5.5 28L25.5 28A1.50015 1.50015 0 1 0 25.5 25L16 25L16 21.113281L16.945312 21.699219A2.0002 2.0002 0 0 0 19.548828 21.265625L24.048828 15.765625A2.0002 2.0002 0 0 0 24.449219 14.994141L25.25 14.605469C25.747 14.365469 25.954844 13.767531 25.714844 13.269531L23.537109 8.7695312C23.356359 8.3967813 22.975094 8.1854844 22.585938 8.2050781zM35.5 14C32.480226 14 30 16.480226 30 19.5L30 29A1.50015 1.50015 0 0 0 31 30.433594L31 42A2.0002 2.0002 0 1 0 35 42L35.916016 31L36.083984 31L37 42A2.0002 2.0002 0 1 0 41 42L41 30.433594A1.50015 1.50015 0 0 0 42 29L42 19.5C42 16.480226 39.519774 14 36.5 14L35.5 14z"/>
</svg>
