<svg xmlns="http://www.w3.org/2000/svg"  viewBox="0 0 48 48" width="48px" height="48px"><path d="M 42.003906 1.9746094 A 2.0002 2.0002 0 0 0 40.166016 3.1992188 L 35.634766 13.556641 L 34.574219 13.115234 A 1.50015 1.50015 0 0 0 33.992188 12.992188 A 1.50015 1.50015 0 0 0 33.421875 15.884766 L 33.699219 16 L 22.498047 16 L 21.498047 16 L 20.921875 16 C 20.261875 16 19.627109 16.12375 19.037109 16.34375 L 22.052734 17.554688 C 22.949734 17.914687 23.541391 18.806437 23.525391 19.773438 C 23.355391 25.334437 20.845594 29.949766 16.808594 32.134766 C 16.660594 32.214766 16.496031 32.255859 16.332031 32.255859 C 16.144031 32.255859 15.956969 32.199703 15.792969 32.095703 L 14.019531 43.699219 C 13.853531 44.791219 14.603312 45.811516 15.695312 45.978516 C 15.798312 45.993516 15.900953 46 16.001953 46 C 16.972953 46 17.824562 45.292734 17.976562 44.302734 L 19.548828 34 L 23.689453 34 L 25.013672 44.255859 C 25.155672 45.351859 26.160906 46.129375 27.253906 45.984375 C 28.349906 45.842375 29.121469 44.838141 28.980469 43.744141 L 26.998047 28.396484 L 26.998047 22 L 26.998047 21.5 L 26.998047 20 L 32.976562 20 A 2.0002 2.0002 0 0 0 36.830078 20.800781 L 37.607422 19.023438 C 37.691384 18.883726 37.756619 18.733366 37.804688 18.574219 L 38.123047 17.84375 L 39.421875 18.384766 A 1.50015 1.50015 0 1 0 40.574219 15.615234 L 39.326172 15.095703 L 43.830078 4.8007812 A 2.0002 2.0002 0 0 0 42.003906 1.9746094 z M 21.998047 7 A 4 4 0 0 0 21.998047 15 A 4 4 0 0 0 21.998047 7 z M 16.447266 17 C 16.318266 17 16.189359 17.024219 16.068359 17.074219 L 11.515625 18.941406 C 11.139625 19.094406 10.894531 19.459234 10.894531 19.865234 C 10.894531 23.901234 12.899813 27.982484 15.882812 30.021484 C 16.053812 30.137484 16.248313 30.195313 16.445312 30.195312 C 16.642312 30.195312 16.840766 30.137484 17.009766 30.021484 C 19.991766 27.983484 21.996094 23.901234 21.996094 19.865234 C 21.998094 19.460234 21.753906 19.095406 21.378906 18.941406 L 16.826172 17.074219 C 16.704172 17.024219 16.576266 17 16.447266 17 z"/></svg>