<svg xmlns="http://www.w3.org/2000/svg" viewBox="0 0 48 48">
  <path d="M11.5 6C8.462 6 6 8.462 6 11.5L6 25.5C6 28.538 8.462 31 11.5 31L16 31L16 36C16 39.290032 18.709968 42 22 42L36 42C39.290032 42 42 39.290032 42 36L42 22C42 18.709968 39.290032 16 36 16L31 16L31 11.5C31 8.462 28.538 6 25.5 6L11.5 6zM31 20L36 20C37.127968 20 38 20.872032 38 22L38 36C38 37.127968 37.127968 38 36 38L22 38C20.872032 38 20 37.127968 20 36L20 31L25.5 31C28.538 31 31 28.538 31 25.5L31 20zM6.9707031 32.972656A2.0002 2.0002 0 0 0 5 35L5 37C5 40.290032 7.7099679 43 11 43L11 43.332031C11 43.804031 11.284703 44.230156 11.720703 44.410156C11.864703 44.470156 12.016016 44.5 12.166016 44.5C12.470016 44.5 12.768234 44.382203 12.990234 44.158203L15.324219 41.824219C15.780219 41.368219 15.780219 40.630781 15.324219 40.175781L12.990234 37.841797C12.657234 37.507797 12.157703 37.407844 11.720703 37.589844C11.284703 37.770844 11 38.195969 11 38.667969L11 39C9.8720321 39 9 38.127968 9 37L9 35A2.0002 2.0002 0 0 0 6.9707031 32.972656z"/>
</svg>
