<svg xmlns="http://www.w3.org/2000/svg" viewBox="0 0 48 48">
  <path d="M6 8A2.0002 2.0002 0 1 0 6 12L7 12A2.0002 2.0002 0 1 0 7 8L6 8zM14 8A2.0002 2.0002 0 1 0 14 12L29 12A2.0002 2.0002 0 1 0 29 8L14 8zM36 8A2 2 0 0 0 36 12A2 2 0 0 0 36 8zM42 8A2 2 0 0 0 42 12A2 2 0 0 0 42 8zM6 15A2.0002 2.0002 0 1 0 6 19L7 19A2.0002 2.0002 0 1 0 7 15L6 15zM14 15A2.0002 2.0002 0 1 0 14 19L23 19A2.0002 2.0002 0 1 0 23 15L14 15zM36 15A2 2 0 0 0 36 19A2 2 0 0 0 36 15zM42 15A2 2 0 0 0 42 19A2 2 0 0 0 42 15zM6 22A2.0002 2.0002 0 1 0 6 26L7 26A2.0002 2.0002 0 1 0 7 22L6 22zM14 22A2.0002 2.0002 0 1 0 14 26L29 26A2.0002 2.0002 0 1 0 29 22L14 22zM36 22A2 2 0 0 0 36 26A2 2 0 0 0 36 22zM42 22A2 2 0 0 0 42 26A2 2 0 0 0 42 22zM6 29A2.0002 2.0002 0 1 0 6 33L7 33A2.0002 2.0002 0 1 0 7 29L6 29zM14 29A2.0002 2.0002 0 1 0 14 33L26 33A2.0002 2.0002 0 1 0 26 29L14 29zM36 29A2 2 0 0 0 36 33A2 2 0 0 0 36 29zM42 29A2 2 0 0 0 42 33A2 2 0 0 0 42 29zM6 36A2.0002 2.0002 0 1 0 6 40L7 40A2.0002 2.0002 0 1 0 7 36L6 36zM14 36A2.0002 2.0002 0 1 0 14 40L28 40A2.0002 2.0002 0 1 0 28 36L14 36zM36 36A2 2 0 0 0 36 40A2 2 0 0 0 36 36zM42 36A2 2 0 0 0 42 40A2 2 0 0 0 42 36z"/>
</svg>
