<svg xmlns="http://www.w3.org/2000/svg" viewBox="0 0 48 48">
  <path d="M24 4C12.977988 4 4 12.977996 4 24C4 35.022004 12.977988 44 24 44C35.022012 44 44 35.022004 44 24C44 12.977996 35.022012 4 24 4zM24 8C27.704511 8 31.066544 9.2983083 33.773438 11.398438L11.398438 33.773438C9.2983107 31.066543 8 27.704508 8 24C8 15.139753 15.139747 8 24 8zM36.601562 14.226562C38.70169 16.933457 40 20.295492 40 24C40 32.860247 32.860253 40 24 40C20.295489 40 16.933456 38.701691 14.226562 36.601562L36.601562 14.226562z"/>
</svg>
