<svg xmlns="http://www.w3.org/2000/svg" viewBox="0 0 48 48"> 
<path d="M 10.970703 5.9726562 A 2.0002 2.0002 0 0 0 9 8 L 9 14 A 2.0002 2.0002 0 0 0 11 16 L 17 16 A 2.0002 2.0002 0 1 0 17 12 L 16.822266 12 C 18.918741 10.738832 21.364943 10 24 10 C 31.756241 10 38 16.243759 38 24 C 38 31.756241 31.756241 38 24 38 C 16.243759 38 10 31.756241 10 24 C 10 23.430966 10.0477 22.851759 10.123047 22.248047 A 2.0002 2.0002 0 1 0 6.1542969 21.751953 C 6.065646 22.462241 6 23.211034 6 24 C 6 33.917759 14.082241 42 24 42 C 33.917759 42 42 33.917759 42 24 C 42 14.082241 33.917759 6 24 6 C 19.861583 6 16.043907 7.4118008 13 9.7695312 L 13 8 A 2.0002 2.0002 0 0 0 10.970703 5.9726562 z"/> 
</svg>