<?xml version="1.0" encoding="iso-8859-1"?>
<!-- Generator: Adobe Illustrator 24.2.1, SVG Export Plug-In . SVG Version: 6.00 Build 0)  -->
<svg version="1.1" id="Layer_1" xmlns="http://www.w3.org/2000/svg" xmlns:xlink="http://www.w3.org/1999/xlink" x="0px" y="0px"
	 viewBox="0 0 48 48" style="enable-background:new 0 0 48 48;" xml:space="preserve">
<path style="fill:none;stroke:#000000;stroke-width:3;stroke-linecap:round;stroke-linejoin:round;stroke-miterlimit:10;" d="
	M40.5,33.5v3c0,2.209-1.791,4-4,4h-25c-2.209,0-4-1.791-4-4v-3"/>
<path d="M36.662,23.265l-1.347-1.077c-0.667-0.533-1.05-1.33-1.05-2.185s0.383-1.652,1.051-2.186l1.346-1.077
	c0.471-0.376,0.647-1.013,0.437-1.579c-0.552-1.489-1.346-2.862-2.36-4.082c-0.385-0.464-1.025-0.626-1.586-0.408l-1.603,0.626
	c-0.796,0.313-1.677,0.244-2.418-0.183c-0.741-0.428-1.239-1.157-1.368-2.003l-0.262-1.715c-0.09-0.596-0.553-1.066-1.147-1.168
	c-1.821-0.313-3.131-0.288-4.719-0.005c-0.591,0.104-1.049,0.574-1.139,1.167L20.234,9.11c-0.128,0.845-0.626,1.574-1.367,2.002
	c-0.739,0.427-1.62,0.496-2.418,0.183l-1.608-0.628c-0.56-0.218-1.2-0.055-1.586,0.409c-1.012,1.217-1.804,2.59-2.357,4.084
	c-0.209,0.566-0.032,1.202,0.439,1.579l1.347,1.077c0.667,0.533,1.05,1.33,1.05,2.185s-0.383,1.652-1.05,2.185l-1.347,1.077
	c-0.471,0.377-0.648,1.013-0.439,1.579c0.552,1.494,1.345,2.867,2.357,4.084c0.385,0.464,1.026,0.629,1.586,0.409l1.608-0.628
	c0.797-0.312,1.679-0.243,2.418,0.183c0.741,0.428,1.239,1.157,1.368,2.002l0.262,1.722c0.09,0.593,0.549,1.063,1.139,1.167
	C22.455,33.93,23.228,34,24,34s1.545-0.07,2.363-0.216c0.591-0.104,1.049-0.574,1.139-1.167l0.262-1.722c0.001,0,0.001,0,0.001,0
	c0.128-0.845,0.626-1.574,1.367-2.002c0.741-0.427,1.622-0.495,2.418-0.183l1.608,0.628c0.56,0.219,1.2,0.055,1.586-0.409
	c1.012-1.217,1.804-2.59,2.357-4.084C37.31,24.278,37.133,23.642,36.662,23.265z M29.061,21.561l-4,4C24.768,25.854,24.384,26,24,26
	s-0.768-0.146-1.061-0.439l-4-4c-0.586-0.586-0.586-1.535,0-2.121s1.535-0.586,2.121,0l1.439,1.439V15.5c0-0.828,0.671-1.5,1.5-1.5
	s1.5,0.672,1.5,1.5v5.379l1.439-1.439c0.586-0.586,1.535-0.586,2.121,0S29.646,20.975,29.061,21.561z"/>
</svg>