<svg xmlns="http://www.w3.org/2000/svg" viewBox="0 0 48 48">
  <path d="M24,4C12.972,4,4,12.972,4,24s8.972,20,20,20s20-8.972,20-20S35.028,4,24,4z M28.5,9.08c0.31-0.761,1.19-1.13,1.95-0.811	c0.77,0.311,1.14,1.19,0.82,1.95c-0.24,0.59-0.79,0.94-1.38,0.94c-0.19,0-0.39-0.04-0.58-0.12C28.55,10.729,28.18,9.85,28.5,9.08z M23.95,7c0.83,0,1.5,0.67,1.5,1.49c0,0.829-0.67,1.51-1.49,1.51c-0.83,0-1.51-0.67-1.51-1.5C22.45,7.68,23.12,7,23.95,7z M8.28,17.53c0.31-0.771,1.19-1.131,1.95-0.82c0.77,0.32,1.13,1.189,0.82,1.96c-0.24,0.58-0.8,0.93-1.39,0.93	c-0.19,0-0.38-0.04-0.57-0.109C8.32,19.17,7.96,18.29,8.28,17.53z M7,24.03c0-0.82,0.67-1.5,1.5-1.5c0.83,0,1.5,0.67,1.5,1.5	c0,0.819-0.67,1.5-1.5,1.5C7.67,25.53,7,24.859,7,24.03z M10.26,31.34c-0.19,0.08-0.38,0.12-0.57,0.12c-0.59,0-1.15-0.351-1.39-0.92	c-0.32-0.771,0.05-1.65,0.81-1.971c0.76-0.319,1.64,0.051,1.96,0.811C11.39,30.149,11.03,31.02,10.26,31.34z M11.95,12.01	c0.58-0.59,1.53-0.59,2.12-0.01c0.59,0.59,0.59,1.54,0.01,2.12c-0.3,0.3-0.68,0.449-1.07,0.449c-0.38,0-0.76-0.149-1.06-0.439	C11.37,13.55,11.36,12.6,11.95,12.01z M14.12,36.04c-0.29,0.29-0.68,0.439-1.06,0.439c-0.39,0-0.77-0.149-1.06-0.439	c-0.59-0.59-0.59-1.54-0.01-2.12c0.59-0.59,1.54-0.59,2.13-0.01C14.7,34.5,14.7,35.45,14.12,36.04z M17.45,8.31	c0.76-0.319,1.64,0.04,1.96,0.8c0.32,0.771-0.04,1.65-0.8,1.971H18.6c-0.18,0.069-0.38,0.109-0.57,0.109	c-0.59,0-1.15-0.34-1.39-0.92C16.32,9.51,16.68,8.63,17.45,8.31z M19.47,38.899c-0.24,0.58-0.8,0.931-1.39,0.931	c-0.19,0-0.38-0.04-0.57-0.11c-0.76-0.32-1.13-1.2-0.81-1.96c0.31-0.77,1.19-1.13,1.96-0.82C19.42,37.26,19.79,38.14,19.47,38.899z M24.02,41c-0.83,0-1.5-0.67-1.5-1.5s0.67-1.5,1.49-1.5c0.83,0,1.51,0.67,1.51,1.5S24.85,41,24.02,41z M25.5,21.121V30.5	c0,0.828-0.671,1.5-1.5,1.5s-1.5-0.672-1.5-1.5v-9.379l-1.939,1.939c-0.586,0.586-1.535,0.586-2.121,0s-0.586-1.535,0-2.121l4.5-4.5	c0.586-0.586,1.535-0.586,2.121,0l4.5,4.5c0.586,0.586,0.586,1.535,0,2.121C29.268,23.354,28.884,23.5,28.5,23.5	s-0.768-0.146-1.061-0.439L25.5,21.121z M30.52,39.71c-0.19,0.07-0.38,0.109-0.58,0.109c-0.58,0-1.14-0.35-1.38-0.93	c-0.32-0.76,0.04-1.64,0.81-1.96c0.76-0.31,1.64,0.05,1.96,0.811C31.65,38.51,31.29,39.39,30.52,39.71z M33.86,11.939	c0.58-0.59,1.53-0.59,2.12,0c0.58,0.58,0.59,1.53,0,2.12c-0.29,0.29-0.67,0.44-1.06,0.44c-0.38,0-0.76-0.15-1.06-0.44	C33.28,13.479,33.27,12.53,33.86,11.939z M36.03,36.02c0,0,0,0,0-0.01c-0.3,0.3-0.68,0.44-1.06,0.44c-0.39,0-0.77-0.141-1.06-0.431	c-0.59-0.59-0.59-1.54-0.01-2.13c0.59-0.58,1.54-0.58,2.13,0C36.61,34.479,36.61,35.43,36.03,36.02z M37.72,16.63	c0.76-0.32,1.64,0.04,1.97,0.8c0.31,0.771-0.04,1.64-0.81,1.96c-0.19,0.08-0.39,0.12-0.58,0.12c-0.59,0-1.14-0.34-1.38-0.92	C36.6,17.83,36.96,16.95,37.72,16.63z M39.71,30.5c-0.24,0.58-0.8,0.93-1.39,0.93c-0.19,0-0.38-0.04-0.57-0.12	c-0.77-0.31-1.13-1.189-0.81-1.96c0.32-0.76,1.19-1.12,1.96-0.81C39.66,28.859,40.03,29.74,39.71,30.5z M41,24	c0,0.83-0.67,1.5-1.5,1.5c-0.83,0-1.5-0.67-1.5-1.5c0-0.01,0-0.021,0-0.03s0-0.02,0-0.03c0-0.83,0.67-1.5,1.49-1.5	C40.32,22.43,41,23.1,41,23.93c0,0.01,0,0.03,0,0.04S41,23.99,41,24z"/>
</svg>
