<svg xmlns="http://www.w3.org/2000/svg" viewBox="0 0 48 48">
  <path d="M15 2A10 10 0 1015 22 10 10 0 1015 2zM22 35c0-3.479 1.375-6.632 3.601-8.965C25.493 26.025 25.388 26 25.278 26H3.722C1.67 26 0 27.785 0 29.979V31.5c0 3.281 1.696 6.132 4.776 8.027C7.367 41.122 10.82 42 14.5 42c2.969 0 6.028-.6 8.571-1.837C22.385 38.58 22 36.835 22 35zM14.5 39c-.815 0-1.639-.057-2.452-.161l2.178-7.259L12.818 29h4.364l-1.408 2.581 2.134 7.113C16.79 38.895 15.637 39 14.5 39zM44.105 32.118l.895-.861c-.401-1.147-.981-2.205-1.706-3.139l-1.204.356c-2.195.649-4.485-.673-5.022-2.898l-.345-1.432C36.162 24.049 35.586 24 35 24c-.587 0-1.162.049-1.723.144l-.345 1.432c-.537 2.225-2.827 3.547-5.022 2.898l-1.204-.356c-.724.933-1.305 1.992-1.706 3.139l.895.861c1.635 1.574 1.635 4.191 0 5.765L25 38.743c.401 1.147.981 2.205 1.706 3.139l1.204-.356c2.195-.649 4.485.673 5.022 2.898l.345 1.432C33.838 45.951 34.413 46 35 46c.587 0 1.162-.049 1.723-.144l.345-1.432c.537-2.225 2.827-3.547 5.022-2.898l1.204.356c.724-.933 1.305-1.992 1.706-3.139l-.895-.861C42.469 36.309 42.469 33.691 44.105 32.118zM35 38c-1.657 0-3-1.343-3-3 0-1.657 1.343-3 3-3 1.657 0 3 1.343 3 3C38 36.657 36.657 38 35 38z"/>
</svg>
