<?xml version="1.0" encoding="utf-8"?>
<!-- Generator: Adobe Illustrator 28.3.0, SVG Export Plug-In . SVG Version: 6.00 Build 0)  -->
<svg version="1.1" id="Layer_1" xmlns="http://www.w3.org/2000/svg" xmlns:xlink="http://www.w3.org/1999/xlink" x="0px" y="0px"
	 viewBox="0 0 48 48" style="enable-background:new 0 0 48 48;" xml:space="preserve">

<g>
	<path  d="M21.2,16.6c0-5.7-5.6-10.1-11.7-7.9c-2.2,0.8-4,2.6-4.8,4.9c-0.9,2.5-0.7,5,0.4,7l7.6,15.7l7.6-15.7l0,0 C20.8,19.3,21.2,18,21.2,16.6z M14.3,19.3c-3,1.5-5.9-1.4-4.3-4.3c0.2-0.4,0.6-0.8,1-1c3-1.5,5.9,1.4,4.3,4.3 C15.1,18.7,14.8,19,14.3,19.3z M28,39.9H14.5l13.1-27c1.4-3,4.4-4.8,7.7-4.8h8.2L28,39.9z"/>
</g>
</svg>
