<svg xmlns="http://www.w3.org/2000/svg" viewBox="0 0 48 48">
  <path d="M12.5 4C10.019 4 8 6.019 8 8.5L8 39.5C8 41.981 10.019 44 12.5 44L25.632812 44C23.386813 41.664 22 38.496 22 35C22 27.82 27.82 22 35 22C36.772 22 38.46 22.357 40 23L40 20L28.5 20C26.019 20 24 17.981 24 15.5L24 4L12.5 4zM27 4.8789062L27 15.5C27 16.327 27.673 17 28.5 17L39.121094 17L27 4.8789062zM35 24C28.925 24 24 28.925 24 35C24 41.075 28.925 46 35 46C41.075 46 46 41.075 46 35C46 28.925 41.075 24 35 24zM35 30C40.182 30 42.756281 34.313094 42.863281 34.496094C43.044281 34.808094 43.044281 35.191906 42.863281 35.503906C42.756281 35.687906 40.182 40 35 40C29.818 40 27.243719 35.686906 27.136719 35.503906C26.955719 35.191906 26.955719 34.808094 27.136719 34.496094C27.243719 34.313094 29.818 30 35 30zM35 32C33.343 32 32 33.343 32 35C32 36.657 33.343 38 35 38C36.657 38 38 36.657 38 35C38 33.343 36.657 32 35 32z"/>
</svg>
