<svg xmlns="http://www.w3.org/2000/svg" viewBox="0 0 48 48">
  <path d="M5.5 7A2.5 2.5 0 0 0 5.3144531 11.990234A1.50015 1.50015 0 0 0 4 13.5L4 38L3.5 38A1.50015 1.50015 0 1 0 3.5 41L5.2539062 41A1.50015 1.50015 0 0 0 5.7402344 41L7.5 41A1.50015 1.50015 0 1 0 7.5 38L7 38L7 13.5A1.50015 1.50015 0 0 0 5.6816406 11.992188A2.5 2.5 0 0 0 5.5 7zM42.5 7A2.5 2.5 0 0 0 42.314453 11.990234A1.50015 1.50015 0 0 0 41 13.5L41 38L40.5 38A1.50015 1.50015 0 1 0 40.5 41L42.253906 41A1.50015 1.50015 0 0 0 42.740234 41L44.5 41A1.50015 1.50015 0 1 0 44.5 38L44 38L44 13.5A1.50015 1.50015 0 0 0 42.681641 11.992188A2.5 2.5 0 0 0 42.5 7zM37.578125 12.984375A1.50015 1.50015 0 0 0 36.623047 13.283203C36.623047 13.283203 31.446855 17 24 17C16.553145 17 11.376953 13.283203 11.376953 13.283203A1.50015 1.50015 0 0 0 10.541016 12.988281A1.50015 1.50015 0 0 0 9.6230469 15.716797C9.6230469 15.716797 15.546855 20 24 20C32.453145 20 38.376953 15.716797 38.376953 15.716797A1.50015 1.50015 0 0 0 37.578125 12.984375zM18.5 25A1.50015 1.50015 0 0 0 17.138672 25.871094L11.138672 38.871094A1.50015 1.50015 0 0 0 12.5 41L35.5 41A1.50015 1.50015 0 0 0 36.841797 38.830078L30.341797 25.830078A1.50015 1.50015 0 0 0 29 25L18.5 25z"/>
</svg>
