<svg xmlns="http://www.w3.org/2000/svg"  viewBox="0 0 48 48" width="48px" height="48px"><path d="M 11 6 C 7.686 6 5 8.686 5 12 L 5 13 L 5 15.5 L 5 36.029297 C 5 39.319329 7.7099679 42.029297 11 42.029297 L 37 42.029297 C 40.290032 42.029297 43 39.319329 43 36.029297 L 43 15.5 L 43 13 L 43 12 C 43 8.686 40.314 6 37 6 L 11 6 z M 10.5 10 C 11.328 10 12 10.672 12 11.5 C 12 12.328 11.328 13 10.5 13 C 9.672 13 9 12.328 9 11.5 C 9 10.672 9.672 10 10.5 10 z M 15.5 10 C 16.328 10 17 10.672 17 11.5 C 17 12.328 16.328 13 15.5 13 C 14.672 13 14 12.328 14 11.5 C 14 10.672 14.672 10 15.5 10 z M 21.5 10 L 37.5 10 C 38.328 10 39 10.672 39 11.5 C 39 12.328 38.328 13 37.5 13 L 21.5 13 C 20.672 13 20 12.328 20 11.5 C 20 10.672 20.672 10 21.5 10 z M 9 17 L 39 17 L 39 36.029297 C 39 37.157265 38.127968 38.029297 37 38.029297 L 11 38.029297 C 9.8720321 38.029297 9 37.157265 9 36.029297 L 9 17 z M 13.5 20 C 12.672 20 12 20.672 12 21.5 L 12 27.5 C 12 28.328 12.672 29 13.5 29 L 22.5 29 C 23.328 29 24 28.328 24 27.5 L 24 21.5 C 24 20.672 23.328 20 22.5 20 L 13.5 20 z M 28.5 20 C 27.672 20 27 20.672 27 21.5 L 27 33.5 C 27 34.328 27.672 35 28.5 35 L 34.5 35 C 35.328 35 36 34.328 36 33.5 L 36 21.5 C 36 20.672 35.328 20 34.5 20 L 28.5 20 z M 13.5 32 A 1.50015 1.50015 0 1 0 13.5 35 L 22.5 35 A 1.50015 1.50015 0 1 0 22.5 32 L 13.5 32 z"/></svg>