<svg xmlns="http://www.w3.org/2000/svg" viewBox="0 0 48 48">
  <path d="M10.5 6C7.467 6 5 8.467 5 11.5L5 36.5C5 39.533 7.467 42 10.5 42L37.5 42C40.533 42 43 39.533 43 36.5L43 11.5C43 8.467 40.533 6 37.5 6L10.5 6zM10.5 9C11.328 9 12 9.672 12 10.5C12 11.328 11.328 12 10.5 12C9.672 12 9 11.328 9 10.5C9 9.672 9.672 9 10.5 9zM15.5 9C16.328 9 17 9.672 17 10.5C17 11.328 16.328 12 15.5 12C14.672 12 14 11.328 14 10.5C14 9.672 14.672 9 15.5 9zM21.5 9L37.5 9C38.328 9 39 9.672 39 10.5C39 11.328 38.328 12 37.5 12L21.5 12C20.672 12 20 11.328 20 10.5C20 9.672 20.672 9 21.5 9zM9 15L39 15L39 36.5C39 37.327 38.327 38 37.5 38L10.5 38C9.673 38 9 37.327 9 36.5L9 15zM13.5 18C12.672 18 12 18.671 12 19.5L12 34.5C12 35.329 12.672 36 13.5 36L20.5 36C21.328 36 22 35.329 22 34.5L22 19.5C22 18.671 21.328 18 20.5 18L13.5 18zM26.5 18A1.50015 1.50015 0 1 0 26.5 21L34.5 21A1.50015 1.50015 0 1 0 34.5 18L26.5 18zM26.5 23A1.50015 1.50015 0 1 0 26.5 26L34.5 26A1.50015 1.50015 0 1 0 34.5 23L26.5 23zM26.5 28A1.50015 1.50015 0 1 0 26.5 31L34.5 31A1.50015 1.50015 0 1 0 34.5 28L26.5 28zM26.5 33A1.50015 1.50015 0 1 0 26.5 36L30.5 36A1.50015 1.50015 0 1 0 30.5 33L26.5 33z"/>
</svg>
