<svg xmlns="http://www.w3.org/2000/svg" viewBox="0 0 48 48">
<path d="M 8.5 5 C 6.019 5 4 7.019 4 9.5 L 4 30.5 C 4 32.981 6.019 35 8.5 35 L 17 35 L 17 40 L 13.5 40 C 12.672 39.988 11.989516 40.649516 11.978516 41.478516 C 11.967516 42.307516 12.628031 42.989 13.457031 43 L 13.5 43 L 18.253906 43 C 18.414906 43.026 18.579234 43.026 18.740234 43 L 26.943359 43 C 26.405359 42.356 25.999734 41.593234 25.802734 40.740234 L 25.578125 40 L 20 40 L 20 35 L 24.072266 35 L 23.332031 32.537109 L 23.300781 32.433594 L 23.28125 32.326172 C 23.03525 31.006172 23.385187 29.658953 24.242188 28.626953 C 24.480187 28.339953 24.749969 28.085141 25.042969 27.869141 C 23.499969 25.286141 22.801813 22.361625 23.007812 19.265625 C 23.114812 17.691625 24.267547 16.377359 25.810547 16.068359 C 26.268547 15.976359 27.919344 15.675781 29.902344 15.675781 C 32.765344 15.675781 35.386047 16.771047 36.998047 17.998047 C 38.915047 17.084047 40.838047 16.111953 43.373047 16.001953 L 43.453125 16 L 43.484375 16 C 43.660375 16 43.831 16.017016 44 16.041016 L 44 9.5 C 44 7.019 41.981 5 39.5 5 L 8.5 5 z M 27.556641 17.970703 C 26.981141 17.969656 26.566141 17.993156 26.400391 18.003906 C 25.650391 18.054906 25.053906 18.650391 25.003906 19.400391 C 24.792906 22.568391 25.675234 25.078 26.865234 27 L 31.896484 27 C 31.838484 25.515 32.048125 22.895922 33.828125 20.544922 C 34.096125 20.191922 34.391031 19.861828 34.707031 19.548828 C 32.456281 18.186828 29.283141 17.973844 27.556641 17.970703 z M 43.779297 18.029297 C 39.860297 18.381297 37.0485 19.622422 35.4375 21.732422 C 33.9815 23.640422 33.850344 25.843 33.902344 27 L 41.962891 27 C 44.710891 23.374 44.983094 19.809797 44.996094 19.591797 C 45.021094 19.166797 44.866359 18.750266 44.568359 18.447266 C 44.352359 18.227266 44.079297 18.085297 43.779297 18.029297 z M 27.705078 29 C 26.959078 29 26.25825 29.328344 25.78125 29.902344 C 25.30425 30.476344 25.109094 31.226938 25.246094 31.960938 L 27.738281 40.234375 C 28.082281 41.843375 29.507156 43 31.160156 43 L 37.839844 43 C 39.492844 43 40.917719 41.843375 41.261719 40.234375 L 43.714844 32.117188 L 43.753906 31.960938 C 43.890906 31.227937 43.69475 30.477344 43.21875 29.902344 C 42.74275 29.327344 42.040922 29 41.294922 29 L 40.177734 29 L 28.357422 29 L 27.705078 29 z"></path>
                                               
</svg>