<svg xmlns="http://www.w3.org/2000/svg" viewBox="0 0 48 48">
  <path d="M23.576172 4.0664062 C 23.314218 4.0591207 23.047263 4.0824054 22.779297 4.1386719 L 8.5722656 7.1308594 C 6.4998481 7.5683366 5 9.4137099 5 11.533203 L 5 36.466797 C 5 38.585784 6.4983909 40.43285 8.5722656 40.869141 L 22.779297 43.859375 C 24.923297 44.311288 27 42.626019 27 40.435547 L 27 7.5644531 C 27 5.6477898 25.409849 4.117405 23.576172 4.0664062 z M 30 8 L 30 9.5 L 30 11 L 30 15 L 36.5 15 C 37.33 15 38 15.67 38 16.5 C 38 17.33 37.33 18 36.5 18 L 30 18 L 30 23 L 36.5 23 C 37.33 23 38 23.67 38 24.5 C 38 25.33 37.33 26 36.5 26 L 30 26 L 30 31 L 36.5 31 C 37.33 31 38 31.67 38 32.5 C 38 33.33 37.33 34 36.5 34 L 30 34 L 30 38 L 30 39.5 L 30 41 L 38.5 41 C 40.967501 41 43 38.967501 43 36.5 L 43 12.5 C 43 10.032499 40.967501 8 38.5 8 L 30 8 z M 10.554688 17 C 11.25332 17.024473 11.857969 17.54125 11.980469 18.25 L 13.060547 24.730469 L 14.099609 21.970703 C 14.319609 21.390703 14.88 21 15.5 21 C 16.12 21 16.680391 21.390703 16.900391 21.970703 L 17.939453 24.730469 L 19.019531 18.25 C 19.159531 17.44 19.93 16.879531 20.75 17.019531 C 21.56 17.159531 22.120469 17.93 21.980469 18.75 L 19.980469 30.75 C 19.870469 31.42 19.320625 31.930234 18.640625 31.990234 C 18.600625 32.000234 18.55 32 18.5 32 C 17.88 32 17.319609 31.619297 17.099609 31.029297 L 15.5 26.769531 L 13.900391 31.029297 C 13.670391 31.659297 13.029375 32.060234 12.359375 31.990234 C 11.679375 31.930234 11.129531 31.42 11.019531 30.75 L 9.0195312 18.75 C 8.8795312 17.93 9.44 17.159531 10.25 17.019531 C 10.3525 17.002031 10.454883 16.996504 10.554688 17 z"/>
</svg>
