<svg xmlns="http://www.w3.org/2000/svg" viewBox="0 0 48 48">
  <path d="M8.5 5C6.019 5 4 7.019 4 9.5L4 30.5C4 32.981 6.019 35 8.5 35L17 35L17 40L13.5 40C12.672 39.988 11.989516 40.649516 11.978516 41.478516C11.967516 42.307516 12.628031 42.989 13.457031 43L13.5 43L18.253906 43C18.414906 43.026 18.579234 43.026 18.740234 43L26.943359 43C26.405359 42.356 25.999734 41.593234 25.802734 40.740234L25.578125 40L20 40L20 35L24.072266 35L23.332031 32.537109L23.300781 32.433594L23.28125 32.326172C23.03525 31.006172 23.385187 29.658953 24.242188 28.626953C24.480187 28.339953 24.749969 28.085141 25.042969 27.869141C23.499969 25.286141 22.801813 22.361625 23.007812 19.265625C23.114812 17.691625 24.267547 16.377359 25.810547 16.068359C26.268547 15.976359 27.919344 15.675781 29.902344 15.675781C32.765344 15.675781 35.386047 16.771047 36.998047 17.998047C38.915047 17.084047 40.838047 16.111953 43.373047 16.001953L43.453125 16L43.484375 16C43.660375 16 43.831 16.017016 44 16.041016L44 9.5C44 7.019 41.981 5 39.5 5L8.5 5zM27.556641 17.970703C26.981141 17.969656 26.566141 17.993156 26.400391 18.003906C25.650391 18.054906 25.053906 18.650391 25.003906 19.400391C24.792906 22.568391 25.675234 25.078 26.865234 27L31.896484 27C31.838484 25.515 32.048125 22.895922 33.828125 20.544922C34.096125 20.191922 34.391031 19.861828 34.707031 19.548828C32.456281 18.186828 29.283141 17.973844 27.556641 17.970703zM43.779297 18.029297C39.860297 18.381297 37.0485 19.622422 35.4375 21.732422C33.9815 23.640422 33.850344 25.843 33.902344 27L41.962891 27C44.710891 23.374 44.983094 19.809797 44.996094 19.591797C45.021094 19.166797 44.866359 18.750266 44.568359 18.447266C44.352359 18.227266 44.079297 18.085297 43.779297 18.029297zM27.705078 29C26.959078 29 26.25825 29.328344 25.78125 29.902344C25.30425 30.476344 25.109094 31.226938 25.246094 31.960938L27.738281 40.234375C28.082281 41.843375 29.507156 43 31.160156 43L37.839844 43C39.492844 43 40.917719 41.843375 41.261719 40.234375L43.714844 32.117188L43.753906 31.960938C43.890906 31.227937 43.69475 30.477344 43.21875 29.902344C42.74275 29.327344 42.040922 29 41.294922 29L40.177734 29L28.357422 29L27.705078 29z"/>
</svg>
