<svg xmlns="http://www.w3.org/2000/svg" viewBox="0 0 48 48">
  <path d="M25.5 4.261V16h7.626C31.749 9.9 28.874 5.33 25.5 4.261zM22.5 16V4.261C19.126 5.33 16.251 9.9 14.874 16H22.5zM22.5 43.739V32h-7.626C16.251 38.1 19.126 42.67 22.5 43.739zM11 24c0-1.723.105-3.394.299-5h-6.641C4.244 20.601 4 22.271 4 24s.244 3.399.658 5h6.641C11.105 27.394 11 25.723 11 24zM22.5 19h-8.157C14.127 20.607 14 22.278 14 24s.127 3.393.343 5H22.5V19zM25.5 32v11.739C28.874 42.67 31.749 38.1 33.126 32H25.5zM11.78 16c.849-4.172 2.353-7.745 4.301-10.357C11.44 7.653 7.712 11.371 5.682 16H11.78zM11.78 32H5.682c2.03 4.629 5.758 8.347 10.398 10.357C14.132 39.745 12.629 36.172 11.78 32zM33.657 19H25.5v10h8.157C33.873 27.393 34 25.722 34 24S33.873 20.607 33.657 19zM36.22 32c-.849 4.172-2.353 7.745-4.301 10.357 4.64-2.01 8.369-5.728 10.398-10.357H36.22zM43.342 29C43.756 27.399 44 25.729 44 24s-.244-3.399-.658-5h-6.641C36.895 20.606 37 22.277 37 24s-.105 3.394-.299 5H43.342zM36.22 16h6.098c-2.03-4.629-5.758-8.347-10.398-10.357C33.868 8.255 35.371 11.828 36.22 16z"/>
</svg>
